<svg width="180" height="145" viewBox="0 0 180 145" fill="none" xmlns="http://www.w3.org/2000/svg">
<g clip-path="url(#clip0_1863_76656)">
<path d="M90 113.003C139.706 113.003 180 104.366 180 93.7106C180 83.0556 139.706 74.418 90 74.418C40.2944 74.418 0 83.0556 0 93.7106C0 104.366 40.2944 113.003 90 113.003Z" fill="#F5F5F5"/>
<path fill-rule="evenodd" clip-rule="evenodd" d="M154.687 37.9256L126.152 6.22498C124.782 4.0642 122.782 2.75781 120.676 2.75781H59.3241C57.2175 2.75781 55.2178 4.0642 53.8481 6.22223L25.3125 37.9284V63.392H154.687V37.9256Z" stroke="#D9D9D9" stroke-width="0.487805"/>
<path fill-rule="evenodd" clip-rule="evenodd" d="M117.037 46.6641C117.037 42.2405 119.832 38.5887 123.3 38.5859H154.687V88.5733C154.687 94.4245 150.975 99.2201 146.391 99.2201H33.6094C29.025 99.2201 25.3125 94.4217 25.3125 88.5733V38.5859H56.7C60.1678 38.5859 62.9634 42.2323 62.9634 46.6558V46.7164C62.9634 51.14 65.79 54.7119 69.255 54.7119H110.745C114.21 54.7119 117.037 51.1069 117.037 46.6834V46.6641V46.6641Z" fill="#FAFAFA" stroke="#D9D9D9" stroke-width="0.487805"/>
</g>
<path d="M1.815 139C1.70833 139 1.655 138.941 1.655 138.824V133.64C1.655 132.509 1.98033 131.613 2.631 130.952C3.29233 130.28 4.17767 129.944 5.287 129.944C6.42833 129.944 7.335 130.28 8.007 130.952C8.68967 131.613 9.031 132.509 9.031 133.64V138.824C9.031 138.941 8.97767 139 8.871 139H7.895C7.77767 139 7.719 138.941 7.719 138.824V133.816C7.719 132.973 7.50567 132.317 7.079 131.848C6.65233 131.379 6.055 131.144 5.287 131.144C4.54033 131.144 3.959 131.379 3.543 131.848C3.13767 132.317 2.935 132.973 2.935 133.816V134.504H5.655C5.76167 134.504 5.815 134.557 5.815 134.664V135.48C5.815 135.597 5.76167 135.656 5.655 135.656H2.967V138.824C2.967 138.941 2.91367 139 2.807 139H1.815ZM8.8565 140.296C8.97383 140.296 9.0325 140.355 9.0325 140.472V143.112C9.0325 143.219 8.97383 143.272 8.8565 143.272H7.9765C7.86983 143.272 7.8165 143.219 7.8165 143.112V141.368H6.7445C6.62717 141.368 6.5685 141.309 6.5685 141.192V140.472C6.5685 140.355 6.62717 140.296 6.7445 140.296H8.8565ZM24.1685 130.12C24.2752 130.12 24.3285 130.173 24.3285 130.28V138.824C24.3285 138.941 24.2752 139 24.1685 139H23.3045C23.1872 139 23.1285 138.941 23.1285 138.824L23.0645 137.48C22.7765 138.013 22.3818 138.429 21.8805 138.728C21.3898 139.027 20.8405 139.176 20.2325 139.176C19.3578 139.176 18.6698 138.899 18.1685 138.344C17.6778 137.779 17.4325 137.005 17.4325 136.024V133.256C17.4325 132.616 17.2512 132.125 16.8885 131.784C16.5258 131.443 16.0032 131.272 15.3205 131.272H12.9205V136.2C12.9205 137.352 13.3418 137.928 14.1845 137.928C14.4405 137.928 14.6805 137.864 14.9045 137.736C14.9578 137.704 14.9952 137.688 15.0165 137.688C15.0592 137.688 15.0965 137.72 15.1285 137.784L15.4645 138.504C15.4752 138.525 15.4805 138.557 15.4805 138.6C15.4805 138.653 15.4645 138.696 15.4325 138.728C15.1018 138.984 14.6378 139.112 14.0405 139.112C13.2618 139.112 12.6592 138.872 12.2325 138.392C11.8165 137.912 11.6085 137.229 11.6085 136.344V130.28C11.6085 130.173 11.6618 130.12 11.7685 130.12H15.4325C16.4992 130.12 17.3152 130.392 17.8805 130.936C18.4565 131.469 18.7445 132.243 18.7445 133.256V135.672C18.7445 136.397 18.9045 136.963 19.2245 137.368C19.5552 137.773 20.0138 137.976 20.6005 137.976C21.3152 137.976 21.8965 137.715 22.3445 137.192C22.7925 136.659 23.0165 135.971 23.0165 135.128V130.28C23.0165 130.173 23.0752 130.12 23.1925 130.12H24.1685ZM29.8639 139C28.8612 139 28.0772 138.771 27.5119 138.312C26.9465 137.843 26.6639 137.197 26.6639 136.376C26.6639 135.864 26.8025 135.416 27.0799 135.032C27.3572 134.637 27.7412 134.365 28.2319 134.216C27.7305 134.088 27.3305 133.843 27.0319 133.48C26.7439 133.117 26.5999 132.68 26.5999 132.168C26.5999 131.496 26.8292 130.963 27.2879 130.568C27.7465 130.173 28.3652 129.976 29.1439 129.976C29.8159 129.976 30.3759 130.12 30.8239 130.408C30.9092 130.461 30.9252 130.541 30.8719 130.648L30.5359 131.368C30.5039 131.411 30.4719 131.437 30.4399 131.448C30.4079 131.448 30.3652 131.437 30.3119 131.416C29.9919 131.235 29.6505 131.144 29.2879 131.144C28.8719 131.144 28.5359 131.256 28.2799 131.48C28.0345 131.693 27.9119 131.981 27.9119 132.344C27.9119 132.76 28.0612 133.085 28.3599 133.32C28.6585 133.544 29.0799 133.656 29.6239 133.656H30.8719C30.9785 133.656 31.0319 133.709 31.0319 133.816V134.584C31.0319 134.701 30.9785 134.76 30.8719 134.76H29.8479C29.2612 134.76 28.8025 134.893 28.4719 135.16C28.1519 135.416 27.9919 135.773 27.9919 136.232C27.9919 136.755 28.1679 137.155 28.5199 137.432C28.8719 137.709 29.3732 137.848 30.0239 137.848H32.2799C32.3865 137.848 32.4399 137.789 32.4399 137.672V130.28C32.4399 130.173 32.4985 130.12 32.6159 130.12H33.5919C33.6985 130.12 33.7519 130.173 33.7519 130.28V138.824C33.7519 138.941 33.6985 139 33.5919 139H29.8639ZM31.5112 128.824C30.9246 128.824 30.4766 128.68 30.1672 128.392C29.8472 128.093 29.6872 127.667 29.6872 127.112V126.536C29.6872 126.419 29.7406 126.36 29.8472 126.36H30.7112C30.8179 126.36 30.8712 126.419 30.8712 126.536V126.936C30.8712 127.203 30.9459 127.405 31.0952 127.544C31.2339 127.683 31.4419 127.752 31.7192 127.752H35.1913C35.3086 127.752 35.3673 127.811 35.3673 127.928V128.648C35.3673 128.765 35.3086 128.824 35.1913 128.824H31.5112ZM39.9258 129.976C40.9071 129.976 41.6858 130.328 42.2618 131.032C42.8378 131.725 43.1258 132.669 43.1258 133.864C43.1258 135.048 42.8218 136.077 42.2138 136.952C41.6058 137.827 40.7258 138.493 39.5738 138.952C39.5098 138.984 39.4404 139 39.3658 139H38.2938C38.1978 139 38.1338 138.947 38.1018 138.84L35.4778 130.296L35.4618 130.248C35.4618 130.163 35.5151 130.12 35.6217 130.12H36.6138C36.7098 130.12 36.7738 130.168 36.8058 130.264L39.0778 137.832C39.9738 137.48 40.6458 136.963 41.0938 136.28C41.5524 135.597 41.7818 134.792 41.7818 133.864C41.7818 133.021 41.6058 132.36 41.2538 131.88C40.9018 131.4 40.4218 131.16 39.8138 131.16C39.4831 131.16 39.2004 131.229 38.9658 131.368C38.9231 131.389 38.8911 131.4 38.8698 131.4C38.8164 131.4 38.7738 131.368 38.7418 131.304L38.4058 130.6C38.3844 130.557 38.3738 130.52 38.3738 130.488C38.3738 130.435 38.4004 130.392 38.4538 130.36C38.8271 130.104 39.3178 129.976 39.9258 129.976ZM48.5314 124.392C48.638 124.392 48.6914 124.445 48.6914 124.552V125.336C48.6914 125.411 48.6594 125.48 48.5954 125.544C48.0834 125.875 47.7154 126.275 47.4914 126.744C47.2674 127.203 47.1554 127.795 47.1554 128.52V138.824C47.1554 138.941 47.0967 139 46.9794 139H46.0034C45.8967 139 45.8434 138.941 45.8434 138.824V128.536C45.8434 127.832 45.934 127.251 46.1154 126.792C46.2967 126.333 46.606 125.907 47.0434 125.512H44.1154C43.998 125.512 43.9394 125.453 43.9394 125.336V124.552C43.9394 124.445 43.998 124.392 44.1154 124.392H48.5314ZM54.1 139.176C53.4493 139.176 52.8573 139.021 52.324 138.712C51.8013 138.403 51.396 137.976 51.108 137.432L51.044 138.824C51.044 138.941 50.9853 139 50.868 139H50.004C49.8973 139 49.844 138.941 49.844 138.824V130.28C49.844 130.173 49.8973 130.12 50.004 130.12H50.98C51.0973 130.12 51.156 130.173 51.156 130.28V134.936C51.156 135.555 51.268 136.093 51.492 136.552C51.7267 137.011 52.036 137.363 52.42 137.608C52.8147 137.853 53.2573 137.976 53.748 137.976C54.3773 137.976 54.868 137.752 55.22 137.304C55.572 136.845 55.748 136.205 55.748 135.384V130.28C55.748 130.173 55.8013 130.12 55.908 130.12H56.884C57.0013 130.12 57.06 130.173 57.06 130.28V135.768C57.06 136.824 56.7933 137.656 56.26 138.264C55.7373 138.872 55.0173 139.176 54.1 139.176ZM55.9597 128.824C55.8531 128.824 55.7997 128.765 55.7997 128.648V126.184C55.7997 126.067 55.8531 126.008 55.9597 126.008H56.8557C56.9624 126.008 57.0157 126.067 57.0157 126.184V128.648C57.0157 128.765 56.9624 128.824 56.8557 128.824H55.9597ZM60.0234 139C59.9167 139 59.8634 138.941 59.8634 138.824V130.28C59.8634 130.173 59.9167 130.12 60.0234 130.12H60.9994C61.1167 130.12 61.1754 130.173 61.1754 130.28V138.824C61.1754 138.941 61.1167 139 60.9994 139H60.0234ZM63.9556 139C63.849 139 63.7956 138.941 63.7956 138.824V133.64C63.7956 132.509 64.121 131.613 64.7716 130.952C65.433 130.28 66.3183 129.944 67.4276 129.944C68.569 129.944 69.4756 130.28 70.1476 130.952C70.8303 131.613 71.1716 132.509 71.1716 133.64V138.824C71.1716 138.941 71.1183 139 71.0116 139H70.0356C69.9183 139 69.8596 138.941 69.8596 138.824V133.816C69.8596 132.973 69.6463 132.317 69.2196 131.848C68.793 131.379 68.1956 131.144 67.4276 131.144C66.681 131.144 66.0996 131.379 65.6836 131.848C65.2783 132.317 65.0756 132.973 65.0756 133.816V134.504H67.7956C67.9023 134.504 67.9556 134.557 67.9556 134.664V135.48C67.9556 135.597 67.9023 135.656 67.7956 135.656H65.1076V138.824C65.1076 138.941 65.0543 139 64.9476 139H63.9556ZM76.6451 139C75.6425 139 74.8585 138.771 74.2931 138.312C73.7278 137.843 73.4451 137.197 73.4451 136.376C73.4451 135.864 73.5838 135.416 73.8611 135.032C74.1385 134.637 74.5225 134.365 75.0131 134.216C74.5118 134.088 74.1118 133.843 73.8131 133.48C73.5251 133.117 73.3811 132.68 73.3811 132.168C73.3811 131.496 73.6105 130.963 74.0691 130.568C74.5278 130.173 75.1465 129.976 75.9251 129.976C76.5971 129.976 77.1571 130.12 77.6051 130.408C77.6905 130.461 77.7065 130.541 77.6531 130.648L77.3171 131.368C77.2851 131.411 77.2531 131.437 77.2211 131.448C77.1891 131.448 77.1465 131.437 77.0931 131.416C76.7731 131.235 76.4318 131.144 76.0691 131.144C75.6531 131.144 75.3171 131.256 75.0611 131.48C74.8158 131.693 74.6931 131.981 74.6931 132.344C74.6931 132.76 74.8425 133.085 75.1411 133.32C75.4398 133.544 75.8611 133.656 76.4051 133.656H77.6531C77.7598 133.656 77.8131 133.709 77.8131 133.816V134.584C77.8131 134.701 77.7598 134.76 77.6531 134.76H76.6291C76.0425 134.76 75.5838 134.893 75.2531 135.16C74.9331 135.416 74.7731 135.773 74.7731 136.232C74.7731 136.755 74.9491 137.155 75.3011 137.432C75.6531 137.709 76.1545 137.848 76.8051 137.848H79.0611C79.1678 137.848 79.2211 137.789 79.2211 137.672V130.28C79.2211 130.173 79.2798 130.12 79.3971 130.12H80.3731C80.4798 130.12 80.5331 130.173 80.5331 130.28V138.824C80.5331 138.941 80.4798 139 80.3731 139H76.6451ZM83.539 139C83.4323 139 83.379 138.941 83.379 138.824V130.28C83.379 130.173 83.4323 130.12 83.539 130.12H84.515C84.6323 130.12 84.691 130.173 84.691 130.28V138.824C84.691 138.941 84.6323 139 84.515 139H83.539ZM94.2073 129.944C94.2819 129.944 94.3299 129.965 94.3513 130.008C94.3833 130.051 94.3779 130.099 94.3353 130.152L92.7833 132.424C93.1459 132.552 93.4233 132.792 93.6153 133.144C93.8179 133.485 93.9193 133.917 93.9193 134.44V135.864C93.9193 136.899 93.6206 137.709 93.0233 138.296C92.4366 138.883 91.6206 139.176 90.5753 139.176C89.5299 139.176 88.7139 138.883 88.1273 138.296C87.5406 137.709 87.2473 136.899 87.2473 135.864V134.888C87.2473 134.376 87.3326 133.939 87.5033 133.576C87.6846 133.213 87.9246 132.835 88.2233 132.44C88.4259 132.184 88.5753 131.971 88.6713 131.8C88.7673 131.619 88.8153 131.432 88.8153 131.24H87.1033C86.9966 131.24 86.9433 131.181 86.9433 131.064V130.28C86.9433 130.173 86.9966 130.12 87.1033 130.12H89.9193C90.0366 130.12 90.0953 130.173 90.0953 130.28V131.048C90.0953 131.325 90.0313 131.597 89.9033 131.864C89.7859 132.12 89.6153 132.403 89.3913 132.712C89.1246 133.075 88.9166 133.421 88.7673 133.752C88.6286 134.072 88.5593 134.435 88.5593 134.84V135.736C88.5593 136.461 88.7299 137.016 89.0713 137.4C89.4233 137.784 89.9246 137.976 90.5753 137.976C91.2259 137.976 91.7273 137.784 92.0793 137.4C92.4313 137.016 92.6073 136.461 92.6073 135.736V134.616C92.6073 134.221 92.5166 133.928 92.3353 133.736C92.1646 133.533 91.9086 133.432 91.5673 133.432H90.7833C90.6659 133.432 90.6073 133.373 90.6073 133.256V132.488C90.6073 132.371 90.6659 132.312 90.7833 132.312H91.4233L92.8953 130.056C92.9486 129.981 93.0233 129.944 93.1193 129.944H94.2073ZM89.7955 126.376C89.4968 126.376 89.2568 126.451 89.0755 126.6C88.8942 126.749 88.8035 126.947 88.8035 127.192C88.8035 127.427 88.8728 127.613 89.0115 127.752C89.1502 127.88 89.3422 127.944 89.5875 127.944C89.7795 127.944 89.9502 127.88 90.0995 127.752C90.2488 127.624 90.3875 127.427 90.5155 127.16C90.5688 127.075 90.6382 127.032 90.7235 127.032H91.1395C91.2142 127.032 91.2728 127.069 91.3155 127.144L91.5395 127.528C91.6142 127.645 91.7102 127.731 91.8275 127.784C91.9342 127.837 92.0835 127.864 92.2755 127.864H93.2675C93.3848 127.864 93.4435 127.923 93.4435 128.04V128.648C93.4435 128.765 93.3848 128.824 93.2675 128.824H92.3235C91.6942 128.824 91.2515 128.595 90.9955 128.136L90.8995 127.976C90.5582 128.616 90.0302 128.936 89.3155 128.936C88.8035 128.936 88.3928 128.781 88.0835 128.472C87.7742 128.163 87.6195 127.747 87.6195 127.224C87.6195 126.659 87.8062 126.211 88.1795 125.88C88.5528 125.549 89.0542 125.384 89.6835 125.384H93.2675C93.3848 125.384 93.4435 125.437 93.4435 125.544V126.216C93.4435 126.323 93.3848 126.376 93.2675 126.376H89.7955ZM96.6431 139C96.5365 139 96.4831 138.941 96.4831 138.824V133.64C96.4831 132.509 96.8085 131.613 97.4591 130.952C98.1205 130.28 99.0058 129.944 100.115 129.944C101.256 129.944 102.163 130.28 102.835 130.952C103.518 131.613 103.859 132.509 103.859 133.64V138.824C103.859 138.941 103.806 139 103.699 139H102.723C102.606 139 102.547 138.941 102.547 138.824V133.816C102.547 132.973 102.334 132.317 101.907 131.848C101.48 131.379 100.883 131.144 100.115 131.144C99.3685 131.144 98.7871 131.379 98.3711 131.848C97.9658 132.317 97.7631 132.973 97.7631 133.816V134.504H100.483C100.59 134.504 100.643 134.557 100.643 134.664V135.48C100.643 135.597 100.59 135.656 100.483 135.656H97.7951V138.824C97.7951 138.941 97.7418 139 97.6351 139H96.6431ZM109.557 129.944C110.389 129.944 111.114 130.136 111.733 130.52C112.362 130.893 112.842 131.427 113.173 132.12C113.514 132.813 113.685 133.624 113.685 134.552C113.685 135.491 113.519 136.307 113.189 137C112.858 137.693 112.383 138.232 111.765 138.616C111.157 138.989 110.442 139.176 109.621 139.176C108.853 139.176 108.181 139.016 107.605 138.696C107.039 138.365 106.602 137.901 106.293 137.304C105.983 136.696 105.829 135.987 105.829 135.176V134.232C105.829 134.125 105.882 134.072 105.989 134.072H109.781C109.887 134.072 109.941 134.125 109.941 134.232V135.016C109.941 135.133 109.887 135.192 109.781 135.192H107.125V135.24C107.125 136.072 107.343 136.739 107.781 137.24C108.229 137.741 108.826 137.992 109.573 137.992C110.415 137.992 111.087 137.677 111.589 137.048C112.09 136.419 112.341 135.581 112.341 134.536C112.341 133.491 112.085 132.664 111.573 132.056C111.061 131.437 110.362 131.128 109.477 131.128C108.933 131.128 108.442 131.261 108.005 131.528C107.578 131.784 107.263 132.136 107.061 132.584C107.039 132.637 107.013 132.669 106.981 132.68C106.949 132.691 106.901 132.691 106.837 132.68L105.989 132.424C105.882 132.392 105.845 132.317 105.877 132.2C106.154 131.496 106.623 130.947 107.285 130.552C107.946 130.147 108.703 129.944 109.557 129.944ZM106.817 128.824C106.699 128.824 106.641 128.765 106.641 128.648V127.928C106.641 127.811 106.699 127.752 106.817 127.752H113.201C113.307 127.752 113.361 127.805 113.361 127.912V128.232C113.361 128.413 113.307 128.557 113.201 128.664C113.094 128.771 112.95 128.824 112.769 128.824H106.817ZM118.662 139.176C117.734 139.176 117.009 138.888 116.486 138.312C115.974 137.736 115.718 136.931 115.718 135.896V130.28C115.718 130.173 115.771 130.12 115.878 130.12H116.854C116.971 130.12 117.03 130.173 117.03 130.28V135.512C117.03 136.301 117.201 136.909 117.542 137.336C117.894 137.763 118.385 137.976 119.014 137.976C119.505 137.976 119.947 137.853 120.342 137.608C120.737 137.363 121.046 137.011 121.27 136.552C121.505 136.093 121.622 135.555 121.622 134.936V130.28C121.622 130.173 121.675 130.12 121.782 130.12H122.758C122.875 130.12 122.934 130.173 122.934 130.28V138.824C122.934 138.941 122.875 139 122.758 139H121.894C121.777 139 121.718 138.941 121.718 138.824L121.67 137.432C121.382 137.976 120.971 138.403 120.438 138.712C119.915 139.021 119.323 139.176 118.662 139.176ZM128.425 129.944C129.204 129.944 129.876 130.109 130.441 130.44C131.017 130.76 131.46 131.229 131.769 131.848C132.089 132.456 132.249 133.171 132.249 133.992C132.249 135.005 132.009 135.917 131.529 136.728C131.06 137.528 130.356 138.259 129.417 138.92C129.332 138.973 129.263 139 129.209 139H127.801C127.695 139 127.625 138.952 127.593 138.856L126.441 135.144H125.289C125.183 135.144 125.129 135.091 125.129 134.984V134.2C125.129 134.083 125.183 134.024 125.289 134.024H127.321C127.428 134.024 127.497 134.072 127.529 134.168L128.617 138.008C129.364 137.475 129.929 136.883 130.313 136.232C130.708 135.581 130.905 134.845 130.905 134.024C130.905 133.139 130.676 132.44 130.217 131.928C129.769 131.405 129.151 131.144 128.361 131.144C127.807 131.144 127.316 131.272 126.889 131.528C126.463 131.784 126.148 132.131 125.945 132.568C125.924 132.621 125.897 132.653 125.865 132.664C125.833 132.675 125.785 132.675 125.721 132.664L124.873 132.44C124.767 132.408 124.729 132.333 124.761 132.216C125.028 131.501 125.487 130.947 126.137 130.552C126.799 130.147 127.561 129.944 128.425 129.944ZM129.777 128.824C129.19 128.824 128.742 128.68 128.433 128.392C128.113 128.093 127.953 127.667 127.953 127.112V126.536C127.953 126.419 128.006 126.36 128.113 126.36H128.977C129.084 126.36 129.137 126.419 129.137 126.536V126.936C129.137 127.203 129.212 127.405 129.361 127.544C129.5 127.683 129.708 127.752 129.985 127.752H133.457C133.574 127.752 133.633 127.811 133.633 127.928V128.648C133.633 128.765 133.574 128.824 133.457 128.824H129.777ZM137.723 129.976C138.704 129.976 139.483 130.328 140.059 131.032C140.635 131.725 140.923 132.669 140.923 133.864C140.923 135.048 140.619 136.077 140.011 136.952C139.403 137.827 138.523 138.493 137.371 138.952C137.307 138.984 137.237 139 137.163 139H136.091C135.995 139 135.931 138.947 135.899 138.84L133.275 130.296L133.259 130.248C133.259 130.163 133.312 130.12 133.419 130.12H134.411C134.507 130.12 134.571 130.168 134.603 130.264L136.875 137.832C137.771 137.48 138.443 136.963 138.891 136.28C139.349 135.597 139.579 134.792 139.579 133.864C139.579 133.021 139.403 132.36 139.051 131.88C138.699 131.4 138.219 131.16 137.611 131.16C137.28 131.16 136.997 131.229 136.763 131.368C136.72 131.389 136.688 131.4 136.667 131.4C136.613 131.4 136.571 131.368 136.539 131.304L136.203 130.6C136.181 130.557 136.171 130.52 136.171 130.488C136.171 130.435 136.197 130.392 136.251 130.36C136.624 130.104 137.115 129.976 137.723 129.976ZM150.344 138.808L150.36 138.872C150.36 138.957 150.312 139 150.216 139H149.16C149.118 139 149.075 138.989 149.032 138.968C148.99 138.947 148.963 138.915 148.952 138.872L147 134.408H144.328V138.824C144.328 138.941 144.27 139 144.152 139H143.176C143.07 139 143.016 138.941 143.016 138.824V130.28C143.016 130.173 143.07 130.12 143.176 130.12H144.136C144.243 130.12 144.296 130.173 144.296 130.28V133.256H147.208C147.752 133.256 148.163 133.117 148.44 132.84C148.728 132.563 148.872 132.157 148.872 131.624V130.28C148.872 130.173 148.931 130.12 149.048 130.12H150.008C150.115 130.12 150.168 130.173 150.168 130.28V131.72C150.168 132.392 150.008 132.947 149.688 133.384C149.368 133.821 148.915 134.12 148.328 134.28L150.344 138.808ZM155.253 139.176C154.432 139.176 153.722 138.968 153.125 138.552C152.538 138.125 152.117 137.539 151.861 136.792C151.85 136.771 151.845 136.744 151.845 136.712C151.845 136.637 151.888 136.589 151.973 136.568L152.853 136.328L152.933 136.312C152.997 136.312 153.045 136.355 153.077 136.44C153.28 136.941 153.568 137.325 153.941 137.592C154.314 137.859 154.746 137.992 155.237 137.992C155.994 137.992 156.597 137.683 157.045 137.064C157.493 136.435 157.717 135.587 157.717 134.52C157.717 133.464 157.493 132.637 157.045 132.04C156.597 131.432 155.978 131.128 155.189 131.128C154.666 131.128 154.218 131.267 153.845 131.544C153.472 131.811 153.184 132.195 152.981 132.696C152.96 132.749 152.933 132.787 152.901 132.808C152.869 132.819 152.821 132.819 152.757 132.808L151.877 132.584C151.76 132.552 151.722 132.477 151.765 132.36C152.021 131.592 152.448 131 153.045 130.584C153.642 130.157 154.362 129.944 155.205 129.944C155.984 129.944 156.661 130.131 157.237 130.504C157.824 130.877 158.272 131.411 158.581 132.104C158.901 132.787 159.061 133.592 159.061 134.52C159.061 135.459 158.906 136.28 158.597 136.984C158.288 137.688 157.845 138.232 157.269 138.616C156.693 138.989 156.021 139.176 155.253 139.176ZM156.449 128.824C155.862 128.824 155.414 128.68 155.105 128.392C154.785 128.093 154.625 127.667 154.625 127.112V126.536C154.625 126.419 154.678 126.36 154.785 126.36H155.649C155.755 126.36 155.809 126.419 155.809 126.536V126.936C155.809 127.203 155.883 127.405 156.033 127.544C156.171 127.683 156.379 127.752 156.657 127.752H160.129C160.246 127.752 160.305 127.811 160.305 127.928V128.648C160.305 128.765 160.246 128.824 160.129 128.824H156.449ZM163.845 139.144C162.928 139.144 162.208 138.856 161.685 138.28C161.163 137.693 160.901 136.883 160.901 135.848V133.608C160.901 132.872 161.056 132.227 161.365 131.672C161.675 131.117 162.112 130.691 162.677 130.392C163.253 130.093 163.92 129.944 164.677 129.944C165.445 129.944 166.117 130.093 166.693 130.392C167.269 130.691 167.712 131.117 168.021 131.672C168.331 132.227 168.485 132.872 168.485 133.608V138.824C168.485 138.941 168.427 139 168.309 139H167.333C167.227 139 167.173 138.941 167.173 138.824V133.768C167.173 132.957 166.949 132.317 166.501 131.848C166.064 131.379 165.456 131.144 164.677 131.144C163.92 131.144 163.317 131.379 162.869 131.848C162.432 132.317 162.213 132.957 162.213 133.768V135.752C162.213 136.456 162.363 137 162.661 137.384C162.971 137.768 163.413 137.96 163.989 137.96C164.32 137.96 164.619 137.885 164.885 137.736C164.917 137.715 164.955 137.704 164.997 137.704C165.051 137.704 165.088 137.731 165.109 137.784L165.445 138.504C165.467 138.547 165.477 138.584 165.477 138.616C165.477 138.659 165.456 138.701 165.413 138.744C165.04 139.011 164.517 139.144 163.845 139.144ZM174.006 139.176C173.078 139.176 172.352 138.888 171.83 138.312C171.318 137.736 171.062 136.931 171.062 135.896V130.28C171.062 130.173 171.115 130.12 171.222 130.12H172.198C172.315 130.12 172.374 130.173 172.374 130.28V135.512C172.374 136.301 172.544 136.909 172.886 137.336C173.238 137.763 173.728 137.976 174.358 137.976C174.848 137.976 175.291 137.853 175.686 137.608C176.08 137.363 176.39 137.011 176.614 136.552C176.848 136.093 176.966 135.555 176.966 134.936V130.28C176.966 130.173 177.019 130.12 177.126 130.12H178.102C178.219 130.12 178.278 130.173 178.278 130.28V138.824C178.278 138.941 178.219 139 178.102 139H177.238C177.12 139 177.062 138.941 177.062 138.824L177.014 137.432C176.726 137.976 176.315 138.403 175.782 138.712C175.259 139.021 174.667 139.176 174.006 139.176ZM171.738 128.824C171.621 128.824 171.562 128.765 171.562 128.648V127.928C171.562 127.811 171.621 127.752 171.738 127.752H177.082V126.248C177.082 126.141 177.141 126.088 177.258 126.088H178.106C178.224 126.088 178.282 126.141 178.282 126.248V128.232C178.282 128.413 178.229 128.557 178.122 128.664C178.016 128.771 177.872 128.824 177.69 128.824H171.738ZM179.434 124.056C179.541 124.056 179.595 124.115 179.595 124.232V124.872C179.595 124.979 179.541 125.032 179.434 125.032H175.946C175.829 125.032 175.77 124.979 175.77 124.872V123.528H174.874C174.768 123.528 174.714 123.469 174.714 123.352V122.744C174.714 122.637 174.768 122.584 174.874 122.584H176.17C176.384 122.584 176.549 122.643 176.666 122.76C176.784 122.877 176.842 123.043 176.842 123.256V124.056H179.434Z" fill="#CCCCCC"/>
<defs>
<clipPath id="clip0_1863_76656">
<rect width="180" height="113" fill="white"/>
</clipPath>
</defs>
</svg>
