<svg width="40" height="40" viewBox="0 0 40 40" fill="none" xmlns="http://www.w3.org/2000/svg">
<path d="M13.6502 3.98298C14.0264 3.81669 14.3971 3.63456 14.7801 3.48637C16.3906 2.86434 18.0598 2.52559 19.7677 2.42103C21.7226 2.30138 23.6408 2.53217 25.5127 3.10513C27.5772 3.73705 29.4552 4.73825 31.1454 6.10446C32.6101 7.2885 33.8468 8.68899 34.8622 10.2964C34.9307 10.4049 35.0389 10.5022 34.9465 10.669C34.9088 10.7373 34.9448 10.8486 34.9475 10.9593C35.0449 10.9382 35.1253 10.9208 35.2338 10.8972C35.4697 11.3544 35.7081 11.8153 35.9589 12.3016C35.7218 12.3372 35.5225 12.3777 35.3222 12.3899C35.2704 12.3932 35.1951 12.3203 35.1634 12.2628C34.8477 11.6894 34.5651 11.0944 34.22 10.5412C33.9241 10.067 33.5704 9.62907 33.2224 9.19193C31.5787 7.12678 29.5623 5.56058 27.1842 4.48839C25.3165 3.64673 23.3579 3.19132 21.312 3.11229C20.189 3.06888 19.0767 3.16745 17.9638 3.33323C17.224 3.44344 16.5073 3.64577 15.8014 3.87901C15.0945 4.11284 14.3944 4.38671 13.722 4.71216C13.0445 5.04041 12.3919 5.43164 11.7515 5.83446C10.89 6.37703 10.1144 7.03974 9.37413 7.748C8.88234 8.21841 8.43116 8.72668 8.00952 9.26101C7.86777 9.44093 7.74055 9.53284 7.52596 9.43609C7.49228 9.4208 7.45095 9.42253 7.40327 9.41504C7.29677 9.58926 7.40027 9.75312 7.40844 9.91746C7.41065 9.96432 7.41638 10.0229 7.3932 10.0572C7.1836 10.3743 6.96789 10.6869 6.74207 11.019C6.59799 10.8986 6.46967 10.9822 6.40639 11.1088C6.37627 11.1687 6.46517 11.2908 6.51342 11.4198C5.96239 12.3783 5.45717 13.4203 5.10986 14.5313C4.88846 15.2398 4.71591 15.9645 4.52629 16.6829C4.49543 16.8002 4.42277 16.8526 4.34315 16.9333C4.16617 17.1132 3.95652 17.0389 3.73744 17.1426C3.80466 16.7993 3.85848 16.4865 3.92818 16.1771C4.45606 13.8369 5.40475 11.6899 6.77729 9.738C7.76673 8.3305 8.93311 7.10066 10.27 6.04172C10.3413 5.98505 10.4199 5.92973 10.5038 5.89965C10.6686 5.84074 10.8583 5.82612 10.8824 5.58574C10.8846 5.56304 10.9303 5.54317 10.957 5.5241C11.778 4.94409 12.64 4.43926 13.5432 4.00921C13.5782 3.99256 13.6181 3.98577 13.6554 3.97447C13.6482 3.99183 13.6389 4.00868 13.6342 4.02688C13.6174 4.08879 13.6022 4.15086 13.5863 4.21306C13.6461 4.21994 13.7184 4.2514 13.7632 4.228C13.8279 4.19388 13.8727 4.11922 13.9261 4.06198C13.8845 4.02551 13.8475 3.97289 13.7996 3.95771C13.7559 3.94434 13.6999 3.97268 13.6492 3.9819L13.6502 3.98298ZM11.7379 5.65343C11.8715 5.50159 12.0073 5.35145 12.1325 5.19273C12.1399 5.18347 12.0681 5.07059 12.0222 5.06161C11.893 5.03625 11.5755 5.27021 11.5316 5.4029C11.4807 5.55739 11.5445 5.63934 11.7379 5.65343ZM14.8897 3.79901C15.1116 3.91786 15.3195 3.90129 15.442 3.73403C15.4866 3.67323 15.5038 3.55431 15.4767 3.48678C15.4581 3.44157 15.3365 3.41385 15.2666 3.42394C15.0674 3.45302 14.957 3.59772 14.8897 3.79901ZM4.20148 15.9892C4.41228 16.0422 4.55736 15.9777 4.56287 15.8121C4.56529 15.7463 4.49166 15.641 4.42979 15.619C4.32847 15.5829 4.21231 15.7769 4.20148 15.9892ZM18.9141 3.01774C18.9665 2.93177 19.0147 2.87939 19.0266 2.81944C19.0308 2.79765 18.936 2.724 18.9074 2.73481C18.8508 2.75591 18.8089 2.81956 18.7611 2.86537C18.8026 2.90675 18.844 2.94812 18.9141 3.01774Z" fill="#FF9E02"/>
<path d="M17.4535 37.1867C17.5382 37.0992 17.6048 37.0432 17.6551 36.9738C17.6906 36.925 17.7029 36.8588 17.7257 36.8005C17.6564 36.7739 17.5773 36.7109 17.5202 36.728C17.4121 36.7609 17.3004 36.8228 17.2191 36.9034C17.0521 37.0688 16.8854 37.0926 16.66 37.0397C14.4858 36.5305 12.4868 35.6235 10.6655 34.3132C9.59879 33.5457 8.62971 32.6632 7.76623 31.6599C7.74942 31.6404 7.7354 31.6181 7.72866 31.609C7.90566 31.4652 8.07914 31.3249 8.24143 31.1928C8.71537 31.6602 9.19657 32.1738 9.71715 32.6408C12.0552 34.7376 14.7669 36.0351 17.8403 36.5437C18.0389 36.5765 18.2406 36.5935 18.4388 36.6284C18.5575 36.6492 18.6987 36.6036 18.7476 36.8099C18.7727 36.9163 18.917 36.8699 19.0119 36.7938C19.0684 36.7483 19.15 36.7039 19.2171 36.7081C20.4896 36.7901 21.7557 36.7295 23.0179 36.5226C23.0939 36.5099 23.1825 36.5491 23.2587 36.5804C23.388 36.6334 23.4928 36.6421 23.5595 36.484C23.5737 36.4506 23.615 36.4155 23.6497 36.4062C24.0165 36.3092 24.3848 36.217 24.7527 36.1256C24.7891 36.1164 24.837 36.108 24.8657 36.1245C24.9827 36.1923 25.0396 36.1346 25.1278 36.0497C25.2118 35.9692 25.3474 35.9407 25.4637 35.9017C27.3353 35.2783 29.0413 34.3328 30.5844 33.0721C32.7335 31.316 34.357 29.1418 35.4753 26.569C35.6059 26.2683 35.721 25.961 35.8495 25.6411C36.0002 25.7011 36.1242 25.6442 36.1491 25.4819C36.1599 25.4107 36.0718 25.3246 36.0239 25.237C36.2043 24.4883 36.3924 23.7006 36.5878 22.9151C36.5998 22.8677 36.6667 22.8113 36.716 22.8006C36.9008 22.7615 37.0888 22.7402 37.3189 22.7057C37.2459 23.0799 37.1778 23.4286 37.1071 23.7907C36.9976 23.7733 36.9046 23.7588 36.7935 23.7409C36.7529 23.9528 36.7603 24.1356 36.8874 24.3073C36.9211 24.3531 36.9352 24.4388 36.9198 24.4961C36.4811 26.1187 35.8235 27.6452 34.9555 29.076C33.8094 30.965 32.3704 32.5803 30.6382 33.917C29.2086 35.02 27.6588 35.8957 25.9613 36.4616C25.1116 36.7449 24.2354 36.9407 23.3709 37.1742C23.3021 37.1926 23.2298 37.1966 23.1611 37.2069C23.038 36.9304 22.997 36.9317 22.7674 37.1358C22.6707 37.2219 22.54 37.3029 22.4177 37.3176C20.7899 37.5167 19.1671 37.495 17.5535 37.2128C17.53 37.2086 17.5072 37.2006 17.4526 37.186L17.4535 37.1867ZM33.6142 30.3207C33.8413 30.3684 33.9719 30.3085 33.9757 30.1354C33.9772 30.0685 33.9017 29.9643 33.8385 29.9412C33.7421 29.9065 33.6199 30.1176 33.6142 30.3207ZM34.8405 28.1239C34.7706 28.2722 34.7177 28.3579 34.694 28.4513C34.6876 28.4775 34.7985 28.5626 34.8028 28.5591C34.8851 28.4837 34.9634 28.402 35.0295 28.3119C35.0345 28.305 34.9406 28.2227 34.8405 28.1243L34.8405 28.1239ZM16.432 36.4438C16.2801 36.4658 16.149 36.5014 16.1324 36.6755C16.1308 36.6908 16.2592 36.746 16.3173 36.7332C16.458 36.7015 16.5374 36.616 16.432 36.4438ZM27.4428 35.3285L27.472 35.4266C27.5645 35.4229 27.6574 35.4192 27.7499 35.4154L27.7376 35.1203C27.7163 35.1121 27.6947 35.1044 27.6735 35.0962C27.5966 35.1736 27.5196 35.2507 27.4428 35.3281L27.4428 35.3285Z" fill="#FF9E02"/>
<path d="M10.8528 27.394L10.7618 26.7027C10.8354 26.6879 10.9028 26.6709 10.9711 26.6607C17.7985 25.6357 24.6265 24.6119 31.4532 23.5822C31.6484 23.5529 31.6972 23.6107 31.7161 23.7962C31.7625 24.2538 31.7709 24.2549 31.3265 24.3216C25.6375 25.1754 19.9487 26.0282 14.2595 26.8815C13.2069 27.0395 12.1545 27.1982 11.1019 27.3566C11.0259 27.368 10.9498 27.3794 10.8528 27.394ZM18.0332 26.2908C18.2725 26.034 18.2828 25.9381 18.1034 25.7181C17.841 25.8775 17.8113 26.0902 18.0332 26.2908ZM14.22 26.7284C14.3411 26.6386 14.5143 26.6037 14.4579 26.41C14.4477 26.3749 14.2851 26.3423 14.2349 26.3759C14.1109 26.4588 14.0967 26.5858 14.22 26.7284ZM16.0394 26.2593C16.0613 26.2629 16.0831 26.2662 16.1049 26.2698C16.1228 26.2102 16.1725 26.1279 16.1509 26.0961C16.1185 26.0481 16.0372 26.0351 15.9766 26.0076C15.9649 26.024 15.9532 26.0404 15.9419 26.0571C15.9746 26.1246 16.0068 26.1918 16.0394 26.2593Z" fill="#FF9E02"/>
<path d="M30.3102 13.1426L9.40091 16.2803L9.31249 15.6085C9.38038 15.5951 9.45362 15.5772 9.52775 15.566C14.495 14.8215 19.4628 14.0776 24.43 13.3326C26.2837 13.0545 28.1379 12.777 29.9904 12.4905C30.1805 12.4612 30.2493 12.5115 30.255 12.7026C30.2591 12.8415 30.2887 12.9794 30.3102 13.1426ZM24.4217 13.6902C24.4979 13.5926 24.5476 13.5281 24.5977 13.4641C24.5484 13.4324 24.4848 13.3635 24.4521 13.3769C24.3781 13.4071 24.3189 13.4778 24.254 13.5319C24.2988 13.5744 24.3436 13.6169 24.4214 13.6907L24.4217 13.6902Z" fill="#FF9E02"/>
<path d="M33.306 27.1595L33.3445 27.4523C33.3941 27.4558 33.4432 27.4594 33.502 27.464C33.4947 27.4895 33.4919 27.5164 33.48 27.5373C32.9625 28.4623 32.3561 29.3217 31.6658 30.1181C30.9655 30.9257 30.1962 31.657 29.3477 32.2981C29.2105 32.4017 29.0729 32.5045 28.9307 32.6003C28.8136 32.6789 28.7184 32.8001 28.5354 32.7214C28.4708 32.6937 28.3135 32.7852 28.2536 32.8654C27.778 33.5071 27.0499 33.7185 26.3932 34.0485C26.2098 34.1407 26.0001 34.1742 25.8078 34.2498C25.5308 34.3589 25.2646 34.501 24.9834 34.5956C23.9173 34.955 22.8258 35.1899 21.7092 35.2794C21.2521 35.3158 20.7931 35.344 20.335 35.3428C19.8603 35.3412 19.3842 35.3179 18.9125 35.2703C18.4473 35.2238 17.983 35.1515 17.5245 35.06C17.0661 34.9689 16.6089 34.8606 16.1615 34.7239C14.3105 34.1592 12.6279 33.2621 11.1201 32.0247C10.2092 31.2771 9.38998 30.4359 8.67943 29.4849C8.61361 29.3967 8.57029 29.2751 8.55846 29.1642C8.54503 29.0381 8.49488 28.9789 8.38847 28.9281C8.29557 28.8839 8.19407 28.8194 8.14052 28.7343C7.83563 28.2492 7.54383 27.7552 7.24467 27.2594C7.55976 27.1214 7.59179 27.1333 7.73132 27.3845C9.47267 30.5199 11.9797 32.7455 15.2608 34.0333C17.7374 35.0053 20.3015 35.2384 22.921 34.7591C25.9499 34.2049 28.5702 32.802 30.7757 30.5726C30.8945 30.4523 31.044 30.3619 31.1522 30.2334C31.4027 29.935 31.6515 29.6333 31.8728 29.3125C32.3276 28.6544 32.7641 27.9832 33.2076 27.317C33.2327 27.2791 33.2555 27.2394 33.3051 27.1588L33.306 27.1595Z" fill="#FF9E02"/>
<path d="M23.4205 31.7996C23.0201 31.6498 22.6639 31.5267 22.3167 31.3819C22.1375 31.3071 21.9984 31.3089 21.8381 31.4416C21.5383 31.6895 21.2204 31.9142 20.8698 32.1792C20.8737 32.0045 20.8739 31.8706 20.8808 31.737C20.8965 31.4291 20.9221 31.1218 20.9287 30.8141C20.9303 30.7504 20.8806 30.6647 20.8287 30.6253C20.5097 30.3851 20.1835 30.1558 19.8599 29.9221C19.8353 29.9042 19.8138 29.8818 19.7636 29.8373C20.1748 29.7195 20.5535 29.5992 20.9382 29.5056C21.1142 29.4629 21.1981 29.3755 21.2486 29.1999C21.359 28.8144 21.4915 28.4353 21.6277 28.0146C21.8143 28.2986 21.9852 28.5533 22.1505 28.8112C22.4354 29.2553 22.434 29.2539 22.9495 29.2372C23.2526 29.2275 23.5561 29.2271 23.9052 29.2215C23.6285 29.5697 23.3854 29.8849 23.1316 30.191C23.0217 30.3239 22.9724 30.437 23.0457 30.618C23.1673 30.9191 23.2518 31.2363 23.3505 31.5474C23.3722 31.6157 23.3893 31.6856 23.4209 31.7992L23.4205 31.7996ZM22.8123 30.1975C22.8891 30.1017 22.9414 30.0361 22.9941 29.9704C22.9369 29.9383 22.8691 29.8688 22.8255 29.8831C22.7571 29.9047 22.7053 29.9829 22.6463 30.0373C22.6921 30.0812 22.7375 30.1253 22.8127 30.1978L22.8123 30.1975Z" fill="#FF9E02"/>
<path d="M18.9298 7.57184C19.1763 7.94084 19.4081 8.27989 19.6312 8.62512C19.7017 8.73373 19.7711 8.78842 19.9119 8.78193C20.3258 8.76334 20.7405 8.76864 21.2054 8.76397C20.9537 9.08608 20.7473 9.38799 20.5021 9.65176C20.317 9.8508 20.2896 10.0245 20.3887 10.2721C20.5213 10.6032 20.6132 10.9523 20.7374 11.34C20.4376 11.23 20.1633 11.1642 19.9236 11.033C19.5309 10.8185 19.2084 10.8523 18.8819 11.1799C18.6875 11.3751 18.4417 11.5161 18.2184 11.681C18.2141 11.6841 18.2059 11.6821 18.1722 11.6847C18.188 11.339 18.1763 10.9913 18.2268 10.653C18.2738 10.3368 18.1808 10.1478 17.9165 9.99461C17.6577 9.8447 17.4235 9.6504 17.1795 9.47427C17.1506 9.45338 17.1274 9.42432 17.0779 9.37602C17.4295 9.27445 17.7495 9.1593 18.0788 9.09281C18.3722 9.03373 18.5395 8.90367 18.607 8.58641C18.6792 8.24811 18.8142 7.92317 18.929 7.57156L18.9298 7.57184ZM19.6212 9.70016C19.7379 9.64278 19.8513 9.58712 19.9256 9.55034C19.9887 9.6271 20.0367 9.72729 20.075 9.72318C20.1503 9.71513 20.2369 9.66349 20.2883 9.60289C20.3301 9.5535 20.3389 9.46431 20.3395 9.39304C20.34 9.33683 20.3157 9.24244 20.2836 9.23342C20.2348 9.22 20.1381 9.24916 20.118 9.28919C20.0557 9.41447 19.9698 9.40174 19.8603 9.39416C19.6609 9.37974 19.592 9.47266 19.6208 9.70022L19.6212 9.70016Z" fill="#FF9E02"/>
<path d="M33.7863 12.6144C33.4562 12.6989 33.4581 12.6978 33.3078 12.4254C33.2153 12.2575 33.1201 12.0904 33.0198 11.9272C32.9261 11.7741 32.8027 11.6307 33.004 11.3918C32.651 11.4704 32.5846 11.2213 32.4561 11.051C32.1622 10.6614 31.8665 10.2734 31.5936 9.91367C31.6062 9.80234 31.6167 9.71047 31.6271 9.61819C31.5381 9.61243 31.4491 9.60707 31.3262 9.59907C30.9666 9.25193 30.5806 8.8575 30.1724 8.48959C28.8876 7.33104 27.4422 6.43536 25.8364 5.83021C25.1443 5.56958 24.4217 5.39286 23.7114 5.18297C23.5895 5.14716 23.4628 5.1377 23.5021 4.94955C23.508 4.92182 23.458 4.88213 23.4337 4.84794C23.4026 4.8762 23.3617 4.89903 23.3434 4.93432C23.3225 4.97366 23.322 5.02418 23.3068 5.09805C23.0829 5.01775 22.8158 5.10868 22.6724 4.91216C22.524 4.92466 22.4046 4.9491 22.2873 4.94228C21.6923 4.90831 21.0979 4.86653 20.5058 4.82724C20.5268 4.73174 20.5508 4.62482 20.5751 4.515C25.954 4.36562 31.315 7.62578 33.7863 12.6144Z" fill="#FF9E02"/>
<path d="M24.0136 7.33086C24.239 7.67495 24.4382 7.96803 24.6247 8.26955C24.6921 8.37822 24.7669 8.42069 24.8919 8.41658C25.2528 8.40472 25.6142 8.405 26.0149 8.4002C25.8199 8.65035 25.6571 8.89322 25.4601 9.10137C25.2552 9.31843 25.1877 9.51853 25.3223 9.80749C25.4414 10.0626 25.4999 10.3479 25.5999 10.6653C25.2877 10.5518 25.0015 10.4707 24.736 10.3446C24.489 10.2275 24.2998 10.2477 24.0907 10.4369C23.8715 10.6358 23.6201 10.7972 23.3452 11.0032C23.3532 10.7778 23.3312 10.5839 23.3716 10.4041C23.4892 9.8812 23.3354 9.5211 22.8542 9.2992C22.6873 9.22213 22.5485 9.08147 22.3595 8.94222C22.7277 8.83735 23.0554 8.73814 23.3862 8.65311C23.5446 8.61224 23.6422 8.54472 23.6884 8.36613C23.7735 8.03605 23.8912 7.71493 24.014 7.3308L24.0136 7.33086ZM24.3249 9.78061C24.151 9.8665 24.0475 10.0358 24.1235 10.1208C24.1574 10.1588 24.2715 10.1771 24.3057 10.1488C24.4364 10.0409 24.4032 9.90881 24.3249 9.78061Z" fill="#FF9E02"/>
<path d="M18.6432 30.3718C18.3922 30.6934 18.1794 30.9832 17.9469 31.2549C17.847 31.3711 17.8473 31.4695 17.8911 31.5984C18.0034 31.9314 18.1086 32.2671 18.2297 32.6427C17.9377 32.5356 17.6677 32.4655 17.4252 32.34C17.1321 32.1883 16.9053 32.2215 16.6618 32.4525C16.4581 32.6458 16.2136 32.7939 15.9634 32.9799C15.9836 32.6039 15.9977 32.2572 16.0243 31.9115C16.0287 31.8551 16.1022 31.8059 16.1158 31.7469C16.1366 31.6555 16.1333 31.5583 16.1403 31.4637C16.0677 31.4685 15.995 31.4758 15.9224 31.4773C15.8659 31.4784 15.7958 31.493 15.755 31.4658C15.5067 31.2989 15.2652 31.1211 14.9831 30.9202C15.2719 30.8354 15.5202 30.7342 15.7773 30.694C16.1299 30.6391 16.3226 30.4641 16.3913 30.0991C16.4379 29.8517 16.5425 29.6151 16.6211 29.3739C16.6228 29.3683 16.6298 29.3644 16.6611 29.3317C16.8094 29.6377 17.0882 29.8432 17.1404 30.2125C17.151 30.2869 17.3563 30.3737 17.4762 30.3793C17.8516 30.3962 18.2291 30.3774 18.6436 30.3717L18.6432 30.3718Z" fill="#FF9E02"/>
<path d="M25.0499 29.4022C25.4522 29.2861 25.8047 29.1921 26.1515 29.0786C26.2286 29.0536 26.3113 28.9725 26.3455 28.8957C26.4162 28.7379 26.4417 28.5591 26.512 28.4013C26.582 28.2444 26.6844 28.1025 26.7917 27.9221C26.9893 28.2211 27.156 28.489 27.341 28.7427C27.3884 28.808 27.4915 28.8637 27.5709 28.8656C27.9341 28.8738 28.2982 28.8614 28.7114 28.8556C28.4433 29.1972 28.2045 29.5032 27.9618 29.806C27.9448 29.8273 27.8965 29.8329 27.8651 29.8287C27.6278 29.7976 27.546 29.9038 27.629 30.1521C27.7282 30.1059 27.8266 30.0594 27.938 30.0073C28.0565 30.378 28.1699 30.7316 28.2957 31.1252C28.0093 31.0205 27.739 30.9516 27.4972 30.826C27.2037 30.6736 26.9741 30.7093 26.73 30.9359C26.5279 31.1236 26.2909 31.2714 26.0697 31.4373C26.0499 31.4305 26.0296 31.4238 26.0097 31.417C26.0504 31.1819 26.0927 30.9473 26.1301 30.7114C26.1372 30.666 26.1292 30.6172 26.1212 30.5712C26.1127 30.5216 26.077 30.4696 26.0862 30.4259C26.1314 30.2158 26.0441 30.0967 25.874 29.9892C25.6047 29.8193 25.3532 29.6198 25.0502 29.4017L25.0499 29.4022Z" fill="#FF9E02"/>
<path d="M7.68079 12.8011C7.6502 12.704 7.62351 12.6185 7.59638 12.5327C7.55175 12.6086 7.51279 12.6884 7.46066 12.7585C7.41894 12.8144 7.36131 12.8576 7.27226 12.8787C7.36289 12.7073 7.45054 12.5343 7.54464 12.3651C8.2855 11.0356 9.19673 9.84286 10.2748 8.78411C10.3596 8.7006 10.4341 8.64997 10.5613 8.67847C10.7114 8.71209 10.8632 8.69906 10.959 8.50367C10.8976 8.46082 10.8322 8.4153 10.7377 8.34935C13.4947 5.90777 16.6781 4.64822 20.2893 4.51961C20.1427 4.69253 20.0314 4.87806 19.7525 4.89468C17.4612 5.02862 15.3183 5.7045 13.3219 6.88315C11.8676 7.74168 10.5953 8.83121 9.49536 10.1361C9.43341 10.2097 9.33539 10.2528 9.25023 10.3035C9.1401 10.3688 9.03031 10.4247 9.07977 10.593C9.09042 10.6289 9.05528 10.6866 9.02913 10.7255C8.70679 11.2083 8.40576 11.7087 8.0479 12.1623C7.88882 12.3639 7.86868 12.6289 7.68167 12.8018L7.68079 12.8011Z" fill="#FF9E02"/>
<path d="M13.9496 8.84759C14.1696 9.18434 14.3677 9.4654 14.5406 9.76245C14.6249 9.90722 14.7273 9.9362 14.8753 9.93026C15.2179 9.91709 15.5607 9.91691 15.9513 9.91077C15.6886 10.2455 15.4527 10.5457 15.2174 10.8455C14.9404 10.656 14.8478 10.665 14.6119 10.9237C14.4922 11.0548 14.3879 11.2006 14.2748 11.3424C14.6145 11.494 14.862 11.4256 15.1755 11.0832C15.2272 11.2353 15.2743 11.3735 15.3142 11.4903C15.2664 11.5659 15.2309 11.6216 15.1955 11.6774C15.2441 11.6977 15.2946 11.7142 15.3403 11.7399C15.3698 11.7566 15.4044 11.7815 15.4154 11.8112C15.4542 11.9164 15.4839 12.025 15.5321 12.1805C15.2345 12.0722 14.9585 12.0022 14.7117 11.8745C14.4275 11.7271 14.2107 11.7759 13.9783 11.9857C13.7685 12.175 13.5288 12.3294 13.2727 12.5212C13.2918 12.1103 13.3153 11.7329 13.3211 11.3558C13.3222 11.28 13.2747 11.1777 13.2165 11.1323C12.9585 10.931 12.688 10.7466 12.4226 10.555C12.388 10.5301 12.3568 10.5002 12.3024 10.4543C12.6614 10.3516 12.9905 10.2485 13.3243 10.1654C13.4815 10.1264 13.567 10.0542 13.6136 9.88854C13.709 9.54879 13.8291 9.21632 13.9493 8.84844L13.9496 8.84759Z" fill="#FF9E02"/>
<path d="M7.94396 30.7986C7.77229 30.9558 7.60837 31.1057 7.43275 31.2659C6.51861 30.1453 5.74561 28.9152 5.11345 27.5403C5.34438 27.5057 5.55217 27.4696 5.76102 27.4476C5.79655 27.4439 5.85464 27.4913 5.87319 27.53C6.43444 28.7089 7.14323 29.7879 7.94469 30.8042C7.94848 30.8089 7.9487 30.8166 7.94313 30.7984L7.94396 30.7986Z" fill="#FF9E02"/>
<path d="M35.2081 23.0257C35.0252 23.6573 34.8604 24.2425 34.6849 24.8242C34.6112 25.0675 34.5203 25.3057 34.4238 25.541C34.3882 25.6282 34.3126 25.6973 34.2598 25.7776C34.2285 25.825 34.1804 25.881 34.184 25.9289C34.2048 26.2073 34.0935 26.3965 33.8738 26.5612C33.6915 26.698 33.5467 26.8877 33.3456 27.0949C33.5205 26.7245 33.676 26.4054 33.823 26.0823C34.2344 25.1785 34.5539 24.2409 34.7636 23.269C34.8194 23.0108 34.9871 23.0642 35.2085 23.0257L35.2081 23.0257Z" fill="#FF9E02"/>
<path d="M7.14761 13.1266C7.27947 13.4127 7.37774 13.173 7.52825 13.1228C7.449 13.2905 7.38146 13.4328 7.31487 13.5734C7.24105 13.5718 7.17321 13.5706 7.05055 13.5679C7.27379 13.8236 7.11056 14.0238 7.03057 14.234C6.93996 14.4717 6.88529 14.7329 6.75213 14.9421C6.60389 15.175 6.61176 15.4362 6.52799 15.6778C6.44087 15.9301 6.38375 16.1937 6.31984 16.4539C6.24029 16.7786 6.2435 16.779 5.88722 16.7995C6.15275 15.5242 6.57211 14.3141 7.14717 13.1263L7.14761 13.1266Z" fill="#FF9E02"/>
<path d="M14.2371 19.0464C14.3228 19.0335 14.3713 19.0701 14.3826 19.156L14.4922 19.9888C14.5035 20.0747 14.4663 20.1241 14.3806 20.137L13.4016 20.2839C13.7898 20.475 14.0191 20.8383 14.0896 21.3737L14.5241 24.6752C14.5355 24.7611 14.4983 24.8105 14.4125 24.8234L13.3544 24.9822C13.2687 24.995 13.2202 24.9585 13.2089 24.8726L12.9205 22.6815L12.1095 22.8031C11.6612 22.8704 11.3324 22.9771 11.123 23.1231C10.9128 23.2625 10.8233 23.4511 10.8547 23.6891C10.8781 23.8675 10.959 23.9969 11.0974 24.0773C11.2357 24.1576 11.4136 24.1815 11.6312 24.1488C11.7696 24.1281 11.8914 24.0828 11.9965 24.0131L12.073 23.9814C12.1126 23.9755 12.1453 23.9942 12.1712 24.0375L12.6191 24.7589C12.6375 24.7965 12.6471 24.8187 12.648 24.8253C12.6532 24.865 12.6382 24.9043 12.603 24.9433C12.3808 25.1451 12.0456 25.2797 11.5973 25.3469C11.0303 25.432 10.5637 25.3605 10.1975 25.1324C9.83706 24.8966 9.62333 24.5243 9.55634 24.0153C9.47804 23.4205 9.64789 22.9232 10.0659 22.5234C10.4905 22.1227 11.1313 21.858 11.9884 21.7294L12.7795 21.6107L12.76 21.462C12.7182 21.1447 12.5838 20.9155 12.3568 20.7743C12.1355 20.6255 11.8535 20.5769 11.5107 20.6283C10.9898 20.7065 10.641 20.9678 10.4642 21.4122C10.4333 21.4842 10.3803 21.5158 10.3052 21.5068L9.33778 21.3588C9.24113 21.3396 9.20407 21.2879 9.22659 21.2036C9.35949 20.7321 9.61466 20.3466 9.9921 20.0474C10.3761 19.7471 10.8483 19.5549 11.4087 19.4708L14.2371 19.0464ZM12.9939 18.6668C12.6774 18.7142 12.404 18.6542 12.1735 18.4866C11.9355 18.3133 11.7966 18.0747 11.7565 17.7706C11.7165 17.4666 11.7889 17.1996 11.9738 16.9696C12.1512 16.7341 12.3982 16.5925 12.7146 16.5451C13.0311 16.4976 13.3083 16.5604 13.5462 16.7337C13.7767 16.9013 13.9119 17.1371 13.952 17.4412C13.992 17.7452 13.9233 18.015 13.7459 18.2506C13.561 18.4806 13.3103 18.6193 12.9939 18.6668ZM12.9025 17.9727C13.008 17.9569 13.0927 17.9105 13.1565 17.8335C13.2129 17.7509 13.2341 17.6568 13.2202 17.551C13.2062 17.4452 13.162 17.3643 13.0873 17.3081C13.0052 17.2462 12.9115 17.2232 12.806 17.2391C12.7005 17.2549 12.6196 17.3041 12.5632 17.3867C12.4994 17.4637 12.4744 17.5551 12.4883 17.6608C12.5023 17.7666 12.5503 17.8504 12.6324 17.9122C12.707 17.9684 12.7971 17.9886 12.9025 17.9727ZM18.1834 24.2575C18.0977 24.2704 18.0492 24.2338 18.0378 24.1479L17.5654 20.5589C17.5306 20.2945 17.441 20.099 17.2966 19.9724C17.158 19.8382 16.9765 19.7879 16.7524 19.8215C16.4096 19.873 16.1948 20.0804 16.1082 20.4439C16.1002 20.4855 16.0811 20.5188 16.0507 20.5435C16.0195 20.5617 15.9865 20.5666 15.9518 20.5584L15.018 20.4356C14.9767 20.4284 14.9444 20.413 14.9212 20.3895C14.9036 20.3584 14.8988 20.3221 14.9068 20.2804C15.001 19.8215 15.2006 19.4478 15.5055 19.1593C15.8104 18.8709 16.2002 18.6911 16.6749 18.6199C17.2748 18.5299 17.771 18.6475 18.1635 18.9728C18.5616 19.2905 18.8029 19.7699 18.8872 20.4111L19.3531 23.9505C19.3644 24.0365 19.3272 24.0859 19.2415 24.0987L18.1834 24.2575ZM21.0251 23.8311C20.9394 23.8439 20.8909 23.8074 20.8795 23.7215L20.1722 18.3478C20.1609 18.2619 20.1981 18.2125 20.2838 18.1997L21.342 18.0409C21.4277 18.028 21.4762 18.0645 21.4875 18.1505L22.1948 23.5241C22.2061 23.61 22.1689 23.6594 22.0832 23.6723L21.0251 23.8311ZM25.4614 23.2867C24.9142 23.3688 24.4403 23.3186 24.0398 23.136C23.6393 22.9535 23.3282 22.6328 23.1064 22.1741C23.0981 22.1618 23.0922 22.1425 23.0887 22.1161C23.0817 22.0632 23.1099 22.0219 23.1732 21.9922L24.0681 21.6658L24.1064 21.6499C24.1591 21.642 24.2026 21.6658 24.2368 21.7214C24.5009 22.0929 24.8603 22.2445 25.3152 22.1763C25.5526 22.1406 25.7307 22.0634 25.8495 21.9444C25.9674 21.8189 26.0151 21.6702 25.9924 21.4984C25.9489 21.1679 25.666 20.9845 25.1435 20.9483L24.8179 20.9264C23.665 20.8501 23.0263 20.3393 22.9019 19.3941C22.834 18.8786 22.9585 18.4453 23.2754 18.0945C23.598 17.736 24.0658 17.5108 24.679 17.4188C25.1998 17.3406 25.6398 17.3892 25.999 17.5644C26.364 17.7321 26.6556 18.0321 26.8738 18.4644C26.8822 18.4767 26.8876 18.4927 26.8903 18.5125C26.8972 18.5654 26.8657 18.6072 26.7958 18.6379L25.9675 18.9341L25.9194 18.9514C25.8601 18.9603 25.8166 18.9365 25.789 18.88C25.7013 18.7246 25.5727 18.6159 25.4032 18.5537C25.2336 18.4915 25.0401 18.4767 24.8225 18.5094C24.5983 18.543 24.433 18.615 24.3265 18.7254C24.2192 18.8291 24.1764 18.9636 24.1981 19.1288C24.2199 19.2941 24.3003 19.4202 24.4395 19.5071C24.5778 19.5875 24.7997 19.6384 25.105 19.66L25.4208 19.6834C26.5623 19.775 27.1948 20.29 27.3184 21.2286C27.3897 21.7706 27.2579 22.2251 26.923 22.5922C26.5947 22.9582 26.1075 23.1897 25.4614 23.2867ZM23.9744 15.3609C23.8227 15.3837 23.7113 15.4307 23.64 15.5021C23.5621 15.5744 23.5306 15.6668 23.5454 15.7792C23.5584 15.8783 23.6018 15.9527 23.6756 16.0023C23.7493 16.0519 23.8455 16.0677 23.9642 16.0499C24.0631 16.0351 24.1458 15.9991 24.2122 15.942C24.2712 15.8792 24.3287 15.7796 24.3846 15.6431C24.4155 15.5711 24.4639 15.5301 24.5298 15.5202L24.8562 15.4712C24.9155 15.4623 24.9651 15.4818 25.0051 15.5298L25.1373 15.6919C25.2023 15.7765 25.3435 15.8025 25.5611 15.7699L26.194 15.6749C26.2797 15.662 26.3282 15.6986 26.3395 15.7845L26.423 16.419C26.4343 16.5049 26.3971 16.5543 26.3114 16.5672L25.7378 16.6533C25.5335 16.6839 25.3507 16.6743 25.1895 16.6244C25.0217 16.5754 24.8886 16.4841 24.7904 16.3506L24.7654 16.3139C24.6768 16.5092 24.5467 16.6702 24.3752 16.7971C24.2028 16.9173 23.9946 16.9958 23.7506 17.0324C23.3815 17.0878 23.0737 17.0227 22.8274 16.8373C22.5803 16.6452 22.4324 16.3641 22.3836 15.9939C22.3297 15.5841 22.4222 15.24 22.6612 14.9615C22.8993 14.6763 23.2491 14.4992 23.7106 14.4299L25.9852 14.0886C26.0709 14.0757 26.1194 14.1123 26.1307 14.1982L26.222 14.8922C26.2334 14.9781 26.1962 15.0275 26.1105 15.0404L23.9744 15.3609ZM29.8508 16.6427C30.3782 16.5635 30.8541 16.6034 31.2784 16.7621C31.7018 16.9143 32.0455 17.1761 32.3096 17.5476C32.5736 17.9192 32.7413 18.3759 32.8126 18.9179C32.8927 19.526 32.8264 20.0954 32.6139 20.626C32.408 21.1557 32.063 21.6759 31.5789 22.1867C31.538 22.2333 31.4878 22.261 31.4285 22.2699L29.9451 22.4925C29.8594 22.5054 29.8019 22.4769 29.7725 22.4072L28.9255 20.492L28.2827 20.5885C28.197 20.6014 28.1484 20.5648 28.1371 20.4789L28.0275 19.6461C28.0162 19.5602 28.0534 19.5108 28.1391 19.4979L29.7115 19.2619C29.7445 19.257 29.7787 19.262 29.8143 19.2769C29.8499 19.2917 29.8731 19.3152 29.8841 19.3473L30.6724 21.3521C31.3087 20.6702 31.5756 19.9393 31.4729 19.1594C31.4111 18.6901 31.2437 18.3378 30.9707 18.1024C30.6977 17.867 30.3502 17.781 29.9283 17.8443C29.6646 17.8839 29.4379 17.9752 29.2483 18.1182C29.0588 18.2612 28.9276 18.4393 28.8548 18.6525C28.8239 18.7245 28.7676 18.7565 28.6859 18.7486L27.7336 18.6387C27.6453 18.6318 27.6115 18.5795 27.6323 18.482C27.7551 17.9851 28.0072 17.5765 28.3886 17.2564C28.7767 16.9353 29.264 16.7307 29.8508 16.6427Z" fill="#FF9E02"/>
</svg>
