<svg width="60" height="60" viewBox="0 0 60 60" fill="none" xmlns="http://www.w3.org/2000/svg">
<rect width="60" height="60" rx="30" fill="#EEEEEE"/>
<path d="M30.374 11.668H29.6266L29.3177 11.6736C25.1037 11.8392 21.7727 15.3136 21.7729 19.543V23.9629L21.7828 24.3518V24.3518C21.8811 26.4243 22.7601 28.382 24.2423 29.8295L26.2124 31.7545L26.3393 31.8945C26.579 32.1872 26.7102 32.555 26.7102 32.9369V33.2056L26.6975 33.3993C26.6334 33.9176 26.3176 34.3704 25.8542 34.6086L13.4594 40.9647L13.2451 41.0849C12.2656 41.6835 11.6676 42.7505 11.667 43.9008V44.4524L11.6755 44.6646C11.7826 45.9856 12.8855 47.0251 14.2308 47.0251H45.7698C47.1852 47.0251 48.3329 45.8748 48.3337 44.4552V43.9037C48.3337 42.6633 47.6426 41.5276 46.5412 40.9647L34.1465 34.6086C33.6206 34.339 33.2899 33.7965 33.2904 33.2042V32.9354C33.2904 32.4913 33.471 32.0656 33.7883 31.7545L35.7584 29.8295C37.3365 28.2879 38.2265 26.1722 38.2263 23.9629V19.543V19.543C38.2263 15.1938 34.7107 11.668 30.374 11.668Z" fill="#CCCCCC"/>
</svg>
