<svg width="100" height="100" viewBox="0 0 100 100" fill="none" xmlns="http://www.w3.org/2000/svg">
<rect width="100" height="100" rx="44" fill="#EEEEEE"/>
<path d="M50.7134 15H49.2865L48.6969 15.0108C40.652 15.3269 34.2927 21.9598 34.2931 30.0342V38.4721L34.312 39.2146V39.2146C34.4996 43.1711 36.1778 46.9087 39.0073 49.6721L42.7685 53.3469L43.0108 53.6143C43.4685 54.1732 43.7189 54.8752 43.7189 55.6042V56.1172L43.6946 56.4872C43.5722 57.4766 42.9693 58.341 42.0846 58.7958L18.4219 70.93L18.0127 71.1595C16.1427 72.3023 15.0012 74.3393 15 76.5355V77.5885L15.0162 77.9935C15.2208 80.5154 17.3262 82.5 19.8946 82.5H80.1054C82.8076 82.5 84.9985 80.3039 85 77.5939V76.5409C85 74.1729 83.6808 72.0047 81.5781 70.93L57.9154 58.7958C56.9114 58.2811 56.2801 57.2453 56.2811 56.1146V55.6015C56.2811 54.7537 56.6257 53.941 57.2315 53.3469L60.9927 49.6721C64.0054 46.729 65.7045 42.69 65.7042 38.4721V30.0342V30.0342C65.7042 21.7311 58.9926 15 50.7134 15Z" fill="#CCCCCC"/>
</svg>
