<svg width="32" height="32" viewBox="0 0 32 32" fill="none" xmlns="http://www.w3.org/2000/svg">
<circle cx="15.9997" cy="19.9987" r="2.66667" fill="#222222"/>
<path d="M6 16.668C6 14.7824 6 13.8395 6.58579 13.2538C7.17157 12.668 8.11438 12.668 10 12.668H22C23.8856 12.668 24.8284 12.668 25.4142 13.2538C26 13.8395 26 14.7824 26 16.668V21.3346C26 24.1631 26 25.5773 25.1213 26.456C24.2426 27.3346 22.8284 27.3346 20 27.3346H12C9.17157 27.3346 7.75736 27.3346 6.87868 26.456C6 25.5773 6 24.1631 6 21.3346V16.668Z" stroke="#222222"/>
<path d="M22 12.668V10.668C22 9.73896 22 9.27446 21.9384 8.8858C21.5996 6.74633 19.9216 5.06838 17.7822 4.72953C17.3935 4.66797 16.929 4.66797 16 4.66797V4.66797C15.071 4.66797 14.6065 4.66797 14.2178 4.72953C12.0784 5.06838 10.4004 6.74633 10.0616 8.8858C10 9.27446 10 9.73896 10 10.668V12.668" stroke="#222222" stroke-linecap="round"/>
</svg>
