<svg width="87" height="92" viewBox="0 0 87 92" fill="none" xmlns="http://www.w3.org/2000/svg">
<path fill-rule="evenodd" clip-rule="evenodd" d="M43.5 47.5C53.165 47.5 61 39.665 61 30C61 20.335 53.165 12.5 43.5 12.5C33.835 12.5 26 20.335 26 30C26 39.665 33.835 47.5 43.5 47.5ZM38.1424 17.0657C39.841 16.3621 41.6615 16 43.5 16C43.7761 16 44 15.7761 44 15.5C44 15.2239 43.7761 15 43.5 15C41.5302 15 39.5796 15.388 37.7597 16.1418C35.9399 16.8956 34.2863 18.0005 32.8934 19.3934C31.5005 20.7863 30.3956 22.4399 29.6418 24.2598C28.888 26.0796 28.5 28.0302 28.5 30C28.5 30.2761 28.7239 30.5 29 30.5C29.2761 30.5 29.5 30.2761 29.5 30C29.5 28.1615 29.8621 26.341 30.5657 24.6424C31.2693 22.9439 32.3005 21.4005 33.6005 20.1005C34.9005 18.8005 36.4439 17.7693 38.1424 17.0657Z" fill="#7E869E" fill-opacity="0.25"/>
<path d="M64.75 51.25L56 42.5" stroke="#222222" stroke-linecap="round"/>
<circle cx="41" cy="27.5" r="22" stroke="#222222"/>
<path d="M10.5581 77.12C10.6754 77.12 10.7234 77.1787 10.7021 77.296L8.78206 85.84C8.7714 85.8827 8.75006 85.92 8.71806 85.952C8.68606 85.984 8.6434 86 8.59006 86H7.80606C7.72073 86 7.65673 85.952 7.61406 85.856L5.75806 79.376L3.90206 85.856C3.8594 85.952 3.7954 86 3.71006 86H2.92606C2.87273 86 2.83006 85.984 2.79806 85.952C2.76606 85.92 2.74473 85.8827 2.73406 85.84L0.814063 77.296V77.264C0.814063 77.168 0.862063 77.12 0.958063 77.12H1.93406C2.0514 77.12 2.1154 77.168 2.12606 77.264L3.47006 83.44L5.29406 77.264C5.3154 77.168 5.37406 77.12 5.47006 77.12H6.06206C6.15806 77.12 6.22206 77.168 6.25406 77.264L8.07806 83.408L9.40606 77.264C9.43806 77.168 9.50206 77.12 9.59806 77.12H10.5581ZM2.98069 75.824C2.86335 75.824 2.80469 75.7653 2.80469 75.648V74.928C2.80469 74.8107 2.86335 74.752 2.98069 74.752H9.36469C9.47135 74.752 9.52469 74.8053 9.52469 74.912V75.232C9.52469 75.4133 9.47135 75.5573 9.36469 75.664C9.25802 75.7707 9.11402 75.824 8.93269 75.824H2.98069ZM16.7016 86.176C16.0509 86.176 15.4589 86.0213 14.9256 85.712C14.4029 85.4027 13.9976 84.976 13.7096 84.432L13.6456 85.824C13.6456 85.9413 13.5869 86 13.4696 86H12.6056C12.4989 86 12.4456 85.9413 12.4456 85.824V77.28C12.4456 77.1733 12.4989 77.12 12.6056 77.12H13.5816C13.6989 77.12 13.7576 77.1733 13.7576 77.28V81.936C13.7576 82.5547 13.8696 83.0933 14.0936 83.552C14.3282 84.0107 14.6376 84.3627 15.0216 84.608C15.4162 84.8533 15.8589 84.976 16.3496 84.976C16.9789 84.976 17.4696 84.752 17.8216 84.304C18.1736 83.8453 18.3496 83.2053 18.3496 82.384V77.28C18.3496 77.1733 18.4029 77.12 18.5096 77.12H19.4856C19.6029 77.12 19.6616 77.1733 19.6616 77.28V82.768C19.6616 83.824 19.3949 84.656 18.8616 85.264C18.3389 85.872 17.6189 86.176 16.7016 86.176ZM31.1049 77.12C31.2223 77.12 31.2703 77.1787 31.2489 77.296L29.3289 85.84C29.3183 85.8827 29.2969 85.92 29.2649 85.952C29.2329 85.984 29.1903 86 29.1369 86H28.3529C28.2676 86 28.2036 85.952 28.1609 85.856L26.3049 79.376L24.4489 85.856C24.4063 85.952 24.3423 86 24.2569 86H23.4729C23.4196 86 23.3769 85.984 23.3449 85.952C23.3129 85.92 23.2916 85.8827 23.2809 85.84L21.3609 77.296V77.264C21.3609 77.168 21.4089 77.12 21.5049 77.12H22.4809C22.5983 77.12 22.6623 77.168 22.6729 77.264L24.0169 83.44L25.8409 77.264C25.8623 77.168 25.9209 77.12 26.0169 77.12H26.6089C26.7049 77.12 26.7689 77.168 26.8009 77.264L28.6249 83.408L29.9529 77.264C29.9849 77.168 30.0489 77.12 30.1449 77.12H31.1049ZM27.5116 75.824C27.3942 75.824 27.3356 75.7653 27.3356 75.648V75.152C27.3356 74.608 27.5009 74.1813 27.8316 73.872C28.1516 73.552 28.5996 73.392 29.1756 73.392H30.8556C30.9622 73.392 31.0156 73.4453 31.0156 73.552V74.272C31.0156 74.3787 30.9622 74.432 30.8556 74.432H29.4156C29.1382 74.432 28.9249 74.5067 28.7756 74.656C28.6156 74.8053 28.5356 75.0187 28.5356 75.296V75.648C28.5356 75.7653 28.4769 75.824 28.3596 75.824H27.5116ZM40.3364 85.808L40.3524 85.872C40.3524 85.9573 40.3044 86 40.2084 86H39.1524C39.1098 86 39.0671 85.9893 39.0244 85.968C38.9818 85.9467 38.9551 85.9147 38.9444 85.872L36.9924 81.408H34.3204V85.824C34.3204 85.9413 34.2618 86 34.1444 86H33.1684C33.0618 86 33.0084 85.9413 33.0084 85.824V77.28C33.0084 77.1733 33.0618 77.12 33.1684 77.12H34.1284C34.2351 77.12 34.2884 77.1733 34.2884 77.28V80.256H37.2004C37.7444 80.256 38.1551 80.1173 38.4324 79.84C38.7204 79.5627 38.8644 79.1573 38.8644 78.624V77.28C38.8644 77.1733 38.9231 77.12 39.0404 77.12H40.0004C40.1071 77.12 40.1604 77.1733 40.1604 77.28V78.72C40.1604 79.392 40.0004 79.9467 39.6804 80.384C39.3604 80.8213 38.9071 81.12 38.3204 81.28L40.3364 85.808ZM45.8692 86C45.7519 86 45.6932 85.9413 45.6932 85.824V79.888C45.6932 79.344 45.5545 78.9173 45.2772 78.608C45.0105 78.2987 44.6372 78.144 44.1572 78.144C43.7945 78.144 43.4852 78.24 43.2292 78.432C42.9732 78.6133 42.7812 78.8853 42.6532 79.248C42.5999 79.3547 42.5252 79.392 42.4292 79.36L41.5972 79.12C41.5545 79.0987 41.5225 79.0667 41.5012 79.024C41.4799 78.9813 41.4745 78.9387 41.4852 78.896C41.6985 78.2667 42.0452 77.7867 42.5252 77.456C43.0052 77.1147 43.5759 76.944 44.2372 76.944C45.0905 76.944 45.7625 77.216 46.2532 77.76C46.7545 78.2933 47.0052 79.0187 47.0052 79.936V85.824C47.0052 85.9413 46.9519 86 46.8452 86H45.8692ZM53.2167 86.176C52.0754 86.176 51.1847 85.8453 50.5447 85.184C49.9047 84.512 49.5847 83.584 49.5847 82.4V77.28C49.5847 77.1733 49.638 77.12 49.7447 77.12H50.7207C50.838 77.12 50.8967 77.1733 50.8967 77.28V82.24C50.8967 83.1147 51.094 83.792 51.4887 84.272C51.894 84.7413 52.47 84.976 53.2167 84.976C53.9634 84.976 54.5394 84.7413 54.9447 84.272C55.35 83.8027 55.5527 83.1253 55.5527 82.24V77.28C55.5527 77.1733 55.606 77.12 55.7127 77.12H56.6887C56.806 77.12 56.8647 77.1733 56.8647 77.28V82.4C56.8647 83.5733 56.5394 84.496 55.8887 85.168C55.2487 85.84 54.358 86.176 53.2167 86.176ZM62.7244 76.944C63.7804 76.944 64.6178 77.2427 65.2364 77.84C65.8658 78.4373 66.1804 79.248 66.1804 80.272V85.824C66.1804 85.9413 66.1271 86 66.0204 86H65.0444C64.9271 86 64.8684 85.9413 64.8684 85.824V81.872H63.3644C61.3911 81.872 60.4044 82.4427 60.4044 83.584C60.4044 84.0107 60.5431 84.3467 60.8204 84.592C61.0978 84.8373 61.4871 84.96 61.9884 84.96C62.3618 84.96 62.6658 84.8853 62.9004 84.736C62.9644 84.7147 63.0018 84.704 63.0124 84.704C63.0658 84.704 63.1031 84.7307 63.1244 84.784L63.4604 85.504C63.4818 85.5467 63.4924 85.584 63.4924 85.616C63.4924 85.6587 63.4711 85.7013 63.4284 85.744C63.0444 86.0107 62.5164 86.144 61.8444 86.144C60.9804 86.144 60.3031 85.9307 59.8124 85.504C59.3324 85.0667 59.0924 84.464 59.0924 83.696C59.0924 82.7573 59.4604 82.0373 60.1964 81.536C60.9431 81.024 62.0044 80.768 63.3804 80.768H64.8684V80.208C64.8684 79.5573 64.6658 79.0453 64.2604 78.672C63.8658 78.288 63.3324 78.096 62.6604 78.096C62.1378 78.096 61.6844 78.2133 61.3004 78.448C60.9164 78.6827 60.6178 79.0133 60.4044 79.44C60.3618 79.536 60.2871 79.568 60.1804 79.536L59.3164 79.264C59.2098 79.232 59.1724 79.1573 59.2044 79.04C59.4924 78.3893 59.9404 77.8773 60.5484 77.504C61.1671 77.1307 61.8924 76.944 62.7244 76.944ZM61.8971 73.376C61.5984 73.376 61.3584 73.4507 61.1771 73.6C60.9957 73.7493 60.9051 73.9467 60.9051 74.192C60.9051 74.4267 60.9744 74.6133 61.1131 74.752C61.2517 74.88 61.4437 74.944 61.6891 74.944C61.8811 74.944 62.0517 74.88 62.2011 74.752C62.3504 74.624 62.4891 74.4267 62.6171 74.16C62.6704 74.0747 62.7397 74.032 62.8251 74.032H63.2411C63.3157 74.032 63.3744 74.0693 63.4171 74.144L63.6411 74.528C63.7157 74.6453 63.8117 74.7307 63.9291 74.784C64.0357 74.8373 64.1851 74.864 64.3771 74.864H65.3691C65.4864 74.864 65.5451 74.9227 65.5451 75.04V75.648C65.5451 75.7653 65.4864 75.824 65.3691 75.824H64.4251C63.7957 75.824 63.3531 75.5947 63.0971 75.136L63.0011 74.976C62.6597 75.616 62.1317 75.936 61.4171 75.936C60.9051 75.936 60.4944 75.7813 60.1851 75.472C59.8757 75.1627 59.7211 74.7467 59.7211 74.224C59.7211 73.6587 59.9077 73.2107 60.2811 72.88C60.6544 72.5493 61.1557 72.384 61.7851 72.384H65.3691C65.4864 72.384 65.5451 72.4373 65.5451 72.544V73.216C65.5451 73.3227 65.4864 73.376 65.3691 73.376H61.8971ZM71.8769 76.944C72.7089 76.944 73.4343 77.136 74.0529 77.52C74.6823 77.8933 75.1623 78.4267 75.4929 79.12C75.8343 79.8133 76.0049 80.624 76.0049 81.552C76.0049 82.4907 75.8396 83.3067 75.5089 84C75.1783 84.6933 74.7036 85.232 74.0849 85.616C73.4769 85.9893 72.7623 86.176 71.9409 86.176C71.1729 86.176 70.5009 86.016 69.9249 85.696C69.3596 85.3653 68.9223 84.9013 68.6129 84.304C68.3036 83.696 68.1489 82.9867 68.1489 82.176V81.232C68.1489 81.1253 68.2023 81.072 68.3089 81.072H72.1009C72.2076 81.072 72.2609 81.1253 72.2609 81.232V82.016C72.2609 82.1333 72.2076 82.192 72.1009 82.192H69.4449V82.24C69.4449 83.072 69.6636 83.7387 70.1009 84.24C70.5489 84.7413 71.1463 84.992 71.8929 84.992C72.7356 84.992 73.4076 84.6773 73.9089 84.048C74.4103 83.4187 74.6609 82.5813 74.6609 81.536C74.6609 80.4907 74.4049 79.664 73.8929 79.056C73.3809 78.4373 72.6823 78.128 71.7969 78.128C71.2529 78.128 70.7623 78.2613 70.3249 78.528C69.8983 78.784 69.5836 79.136 69.3809 79.584C69.3596 79.6373 69.3329 79.6693 69.3009 79.68C69.2689 79.6907 69.2209 79.6907 69.1569 79.68L68.3089 79.424C68.2023 79.392 68.1649 79.3173 68.1969 79.2C68.4743 78.496 68.9436 77.9467 69.6049 77.552C70.2663 77.1467 71.0236 76.944 71.8769 76.944ZM81.9742 77.12C83.0515 77.12 83.8729 77.392 84.4382 77.936C85.0142 78.4693 85.3022 79.2427 85.3022 80.256V85.824C85.3022 85.9413 85.2435 86 85.1262 86H84.1662C84.1129 86 84.0702 85.984 84.0382 85.952C84.0062 85.92 83.9902 85.8773 83.9902 85.824V80.256C83.9902 79.616 83.8035 79.1253 83.4302 78.784C83.0675 78.4427 82.5449 78.272 81.8622 78.272H79.4142V85.824C79.4142 85.9413 79.3555 86 79.2382 86H78.2782C78.2249 86 78.1822 85.984 78.1502 85.952C78.1182 85.92 78.1022 85.8773 78.1022 85.824V77.28C78.1022 77.1733 78.1555 77.12 78.2622 77.12H81.9742Z" fill="#CCCCCC"/>
</svg>
