<svg width="32" height="32" viewBox="0 0 32 32" fill="none" xmlns="http://www.w3.org/2000/svg">
<path d="M2.66699 15.9987L2.27656 15.6863L2.02668 15.9987L2.27656 16.311L2.66699 15.9987ZM14.667 16.4987C14.9431 16.4987 15.167 16.2748 15.167 15.9987C15.167 15.7226 14.9431 15.4987 14.667 15.4987V16.4987ZM7.60989 9.01968L2.27656 15.6863L3.05743 16.311L8.39076 9.64438L7.60989 9.01968ZM2.27656 16.311L7.60989 22.9777L8.39076 22.353L3.05743 15.6863L2.27656 16.311ZM2.66699 16.4987H14.667V15.4987H2.66699V16.4987Z" fill="#222222"/>
<path d="M13.333 10.8439V8.72314C13.333 7.1048 13.333 6.29563 13.807 5.73614C14.2809 5.17665 15.0791 5.04362 16.6754 4.77757L22.3466 3.83237C25.5897 3.29185 27.2113 3.02159 28.2721 3.92029C29.333 4.81899 29.333 6.4629 29.333 9.75073V22.2519C29.333 25.5397 29.333 27.1836 28.2721 28.0823C27.2113 28.981 25.5897 28.7108 22.3466 28.1702L16.6754 27.225C15.0791 26.959 14.2809 26.826 13.807 26.2665C13.333 25.707 13.333 24.8978 13.333 23.2795V21.4226" stroke="#222222"/>
</svg>
