<svg width="32" height="32" viewBox="0 0 32 32" fill="none" xmlns="http://www.w3.org/2000/svg">
<path d="M26.6663 13.332C26.6663 9.5608 26.6663 7.67518 25.4948 6.5036C24.3232 5.33203 22.4376 5.33203 18.6663 5.33203H13.333C9.56177 5.33203 7.67615 5.33203 6.50458 6.5036C5.33301 7.67518 5.33301 9.5608 5.33301 13.332V24.6654C5.33301 25.6082 5.33301 26.0796 5.6259 26.3725C5.91879 26.6654 6.3902 26.6654 7.33301 26.6654H18.6663C22.4376 26.6654 24.3232 26.6654 25.4948 25.4938C26.6663 24.3222 26.6663 22.4366 26.6663 18.6654V13.332Z" stroke="#222222"/>
<path d="M12 13.332L20 13.332" stroke="#222222" stroke-linecap="round" stroke-linejoin="round"/>
<path d="M12 18.668H16" stroke="#222222" stroke-linecap="round" stroke-linejoin="round"/>
</svg>
