<svg width="32" height="32" viewBox="0 0 32 32" fill="none" xmlns="http://www.w3.org/2000/svg">
<path d="M7 12.5643C7 9.46984 7 7.92263 7.98851 6.96131C8.97703 6 10.568 6 13.75 6H18.25C21.432 6 23.023 6 24.0115 6.96131C25 7.92263 25 9.46984 25 12.5643V20.034C25 22.9696 25 24.4374 24.0502 24.8864C23.1003 25.3353 21.9135 24.4285 19.5399 22.6148L18.7802 22.0343C17.4455 21.0145 16.7782 20.5046 16 20.5046C15.2218 20.5046 14.5545 21.0145 13.2198 22.0343L12.4601 22.6148C10.0865 24.4285 8.89966 25.3353 7.94983 24.8864C7 24.4374 7 22.9696 7 20.034V12.5643Z" stroke="#222222"/>
</svg>
