<svg width="32" height="32" viewBox="0 0 32 32" fill="none" xmlns="http://www.w3.org/2000/svg">
<path d="M26.6663 13.332C26.6663 9.5608 26.6663 7.67518 25.4948 6.5036C24.3232 5.33203 22.4376 5.33203 18.6663 5.33203H13.333C9.56177 5.33203 7.67615 5.33203 6.50458 6.5036C5.33301 7.67518 5.33301 9.5608 5.33301 13.332V24.6654C5.33301 25.6082 5.33301 26.0796 5.6259 26.3725C5.91879 26.6654 6.3902 26.6654 7.33301 26.6654H18.6663C22.4376 26.6654 24.3232 26.6654 25.4948 25.4938C26.6663 24.3222 26.6663 22.4366 26.6663 18.6654V13.332Z" stroke="#222222"/>
<path d="M12 13.332L20 13.332" stroke="#222222" stroke-linecap="round" stroke-linejoin="round"/>
<path d="M12 18.668H16" stroke="#222222" stroke-linecap="round" stroke-linejoin="round"/>
<path d="M24.8148 24.6043C24.8148 24.7734 24.5464 24.7753 24.4355 24.8145C24.3168 24.8564 24.0867 24.8997 24.0005 24.9968C23.9856 25.0136 24.327 24.9588 24.3444 24.9538C24.5795 24.8855 24.7573 24.8133 24.9287 24.6397C25.0392 24.5278 25.1393 24.4008 25.2372 24.2776C25.3192 24.1743 25.397 24.0692 25.48 23.9661C25.6633 23.7382 25.9269 23.5712 26.1123 23.3405C26.2033 23.2272 26.3035 23.0919 26.3348 22.9454C26.3844 22.714 26.5002 22.5118 26.5688 22.2844C26.7256 21.7642 26.909 21.2159 26.909 20.6724C26.909 20.5494 26.909 20.4287 26.909 20.3077C26.909 20.2574 26.9625 20.0188 27 20" stroke="white" stroke-width="3" stroke-linecap="round"/>
<path d="M24.0241 25.7312C24.0217 25.7547 23.9929 25.8129 24.0016 25.8331C24.0208 25.8778 24.0795 25.8382 24.0984 25.8089C24.1377 25.7483 24.2342 25.7172 24.2808 25.6603C24.3346 25.5945 24.408 25.5633 24.4666 25.5047C24.5103 25.461 24.5763 25.4266 24.6308 25.3924C24.8311 25.2665 25.0229 25.128 25.2219 25" stroke="white" stroke-width="3" stroke-linecap="round"/>
<path d="M20.5959 24.1118L24.6516 27.9217L24.662 27.9314C24.8531 28.1064 25.1463 28.1064 25.3374 27.9314L25.3478 27.9217L29.4034 24.1118C30.5445 23.0399 30.6831 21.2759 29.7234 20.0389L29.5429 19.8063C28.3948 18.3265 26.0903 18.5747 25.2836 20.265C25.1696 20.5038 24.8297 20.5038 24.7158 20.265C23.9091 18.5747 21.6045 18.3265 20.4564 19.8063L20.276 20.0389C19.3162 21.2759 19.4548 23.0399 20.5959 24.1118Z" stroke="#222222"/>
</svg>
