<svg width="32" height="32" viewBox="0 0 32 32" fill="none" xmlns="http://www.w3.org/2000/svg">
<path d="M26 20.3872V8.06015C26 7.72562 25.648 7.50805 25.3488 7.65765L20.8232 9.92042C20.7225 9.97077 20.6066 9.98154 20.4984 9.95061L11.5016 7.38012C11.3934 7.34919 11.2775 7.35996 11.1768 7.41031L6.24875 9.87432C6.0963 9.95055 6 10.1064 6 10.2768V22.6039C6 22.9384 6.35204 23.156 6.65125 23.0064L11.1768 20.7436C11.2775 20.6933 11.3934 20.6825 11.5016 20.7135L20.4984 23.2839C20.6066 23.3149 20.7225 23.3041 20.8232 23.2537L25.7512 20.7897C25.9037 20.7135 26 20.5577 26 20.3872Z" stroke="#222222"/>
<path d="M20.667 23.3333V10" stroke="#222222"/>
<path d="M11.333 20.6654V7.33203" stroke="#222222"/>
</svg>
