<svg width="32" height="32" viewBox="0 0 32 32" fill="none" xmlns="http://www.w3.org/2000/svg">
<path d="M25.7675 7.70232L26.1832 7.42454V7.42454L25.7675 7.70232ZM25.7675 21.6284L26.1832 21.9062L25.7675 21.6284ZM24.296 23.0999L24.0183 22.6841H24.0183L24.296 23.0999ZM18.6663 23.9969L18.6642 23.4969C18.3889 23.4981 18.1663 23.7216 18.1663 23.9969H18.6663ZM18.6663 23.9987L19.1136 24.2223C19.1483 24.1529 19.1663 24.0763 19.1663 23.9987H18.6663ZM16.8941 27.5432L17.3413 27.7668V27.7668L16.8941 27.5432ZM15.1052 27.5432L14.658 27.7668L15.1052 27.5432ZM13.333 23.9987H12.833C12.833 24.0763 12.8511 24.1529 12.8858 24.2223L13.333 23.9987ZM13.333 23.9969H13.833C13.833 23.7216 13.6105 23.4981 13.3352 23.4969L13.333 23.9969ZM7.7033 23.0999L7.98109 22.6841H7.98108L7.7033 23.0999ZM6.23184 21.6284L6.64757 21.3506L6.23184 21.6284ZM6.23184 7.70232L6.64757 7.98011L6.23184 7.70232ZM7.7033 6.23086L7.98109 6.64659L7.7033 6.23086ZM24.296 6.23086L24.0183 6.64659V6.64659L24.296 6.23086ZM27.1663 14.6654C27.1663 12.8032 27.1669 11.3689 27.0514 10.2332C26.935 9.08923 26.6967 8.19298 26.1832 7.42454L25.3518 7.98011C25.7371 8.55686 25.9482 9.26951 26.0566 10.3344C26.1657 11.4077 26.1663 12.7823 26.1663 14.6654H27.1663ZM26.1832 21.9062C26.6967 21.1377 26.935 20.2415 27.0514 19.0975C27.1669 17.9619 27.1663 16.5276 27.1663 14.6654H26.1663C26.1663 16.5484 26.1657 17.923 26.0566 18.9963C25.9482 20.0612 25.7371 20.7739 25.3518 21.3506L26.1832 21.9062ZM24.5738 23.5156C25.2108 23.09 25.7577 22.5431 26.1832 21.9062L25.3518 21.3506C24.9991 21.8784 24.546 22.3315 24.0183 22.6841L24.5738 23.5156ZM18.6685 24.4969C20.1046 24.4906 21.2496 24.4631 22.1878 24.3334C23.1341 24.2026 23.9026 23.9641 24.5738 23.5156L24.0183 22.6841C23.5144 23.0208 22.9064 23.2246 22.0509 23.3428C21.1873 23.4622 20.105 23.4906 18.6642 23.4969L18.6685 24.4969ZM19.1663 23.9987V23.9969H18.1663V23.9987H19.1663ZM17.3413 27.7668L19.1136 24.2223L18.2191 23.7751L16.4469 27.3196L17.3413 27.7668ZM14.658 27.7668C15.2108 28.8724 16.7885 28.8724 17.3413 27.7668L16.4469 27.3196C16.2626 27.6881 15.7367 27.6881 15.5525 27.3196L14.658 27.7668ZM12.8858 24.2223L14.658 27.7668L15.5525 27.3196L13.7802 23.7751L12.8858 24.2223ZM12.833 23.9969V23.9987H13.833V23.9969H12.833ZM7.42551 23.5156C8.09674 23.9641 8.86522 24.2026 9.81151 24.3334C10.7498 24.4631 11.8947 24.4906 13.3308 24.4969L13.3352 23.4969C11.8943 23.4906 10.812 23.4622 9.94844 23.3428C9.09291 23.2246 8.48499 23.0208 7.98109 22.6841L7.42551 23.5156ZM5.8161 21.9062C6.24169 22.5431 6.78857 23.09 7.42552 23.5156L7.98108 22.6841C7.45333 22.3315 7.0002 21.8784 6.64757 21.3506L5.8161 21.9062ZM4.83301 14.6654C4.83301 16.5276 4.8324 17.9619 4.94793 19.0975C5.0643 20.2415 5.30264 21.1377 5.8161 21.9062L6.64757 21.3506C6.2622 20.7739 6.05113 20.0612 5.94279 18.9963C5.83361 17.923 5.83301 16.5484 5.83301 14.6654H4.83301ZM5.8161 7.42454C5.30264 8.19298 5.0643 9.08923 4.94793 10.2332C4.8324 11.3689 4.83301 12.8032 4.83301 14.6654H5.83301C5.83301 12.7823 5.83361 11.4077 5.94279 10.3344C6.05113 9.26951 6.2622 8.55686 6.64757 7.98011L5.8161 7.42454ZM7.42551 5.81513C6.78857 6.24072 6.24169 6.7876 5.8161 7.42454L6.64757 7.98011C7.0002 7.45236 7.45333 6.99923 7.98109 6.64659L7.42551 5.81513ZM14.6663 4.83203C12.8041 4.83203 11.3698 4.83143 10.2342 4.94695C9.09021 5.06333 8.19396 5.30167 7.42551 5.81513L7.98109 6.64659C8.55783 6.26122 9.27049 6.05015 10.3354 5.94182C11.4087 5.83264 12.7833 5.83203 14.6663 5.83203V4.83203ZM17.333 4.83203H14.6663V5.83203H17.333V4.83203ZM24.5738 5.81513C23.8054 5.30167 22.9091 5.06333 21.7651 4.94695C20.6295 4.83143 19.1952 4.83203 17.333 4.83203V5.83203C19.216 5.83203 20.5907 5.83264 21.6639 5.94182C22.7289 6.05015 23.4415 6.26122 24.0183 6.64659L24.5738 5.81513ZM26.1832 7.42454C25.7577 6.7876 25.2108 6.24072 24.5738 5.81513L24.0183 6.64659C24.546 6.99923 24.9991 7.45236 25.3518 7.98011L26.1832 7.42454Z" fill="#222222"/>
<circle cx="21.3333" cy="14.6654" r="1.33333" fill="#222222"/>
<circle cx="16.0003" cy="14.6654" r="1.33333" fill="#222222"/>
<circle cx="10.6663" cy="14.6654" r="1.33333" fill="#222222"/>
</svg>
