<svg width="160" height="146" viewBox="0 0 160 146" fill="none" xmlns="http://www.w3.org/2000/svg">
<g clip-path="url(#clip0_1924_49264)">
<path d="M80 113.499C124.183 113.499 160 104.862 160 94.2067C160 83.5517 124.183 74.9141 80 74.9141C35.8172 74.9141 0 83.5517 0 94.2067C0 104.862 35.8172 113.499 80 113.499Z" fill="#F5F5F5"/>
<path fill-rule="evenodd" clip-rule="evenodd" d="M137.5 38.4237L112.135 6.72303C110.917 4.56225 109.14 3.25586 107.267 3.25586H52.7325C50.86 3.25586 49.0825 4.56225 47.865 6.72027L22.5 38.4264V63.89H137.5V38.4237Z" stroke="#D9D9D9" stroke-width="0.487805"/>
<path fill-rule="evenodd" clip-rule="evenodd" d="M104.032 47.1631C104.032 42.7395 106.517 39.0877 109.6 39.085H137.5V89.0723C137.5 94.9235 134.2 99.7191 130.125 99.7191H29.875C25.8 99.7191 22.5 94.9207 22.5 89.0723V39.085H50.4C53.4825 39.085 55.9675 42.7313 55.9675 47.1548V47.2154C55.9675 51.639 58.48 55.2109 61.56 55.2109H98.44C101.52 55.2109 104.032 51.6059 104.032 47.1824V47.1631Z" fill="#FAFAFA" stroke="#D9D9D9" stroke-width="0.487805"/>
</g>
<path d="M48.4064 124.892C48.513 124.892 48.5664 124.945 48.5664 125.052V125.836C48.5664 125.911 48.5344 125.98 48.4704 126.044C47.9584 126.375 47.5904 126.775 47.3664 127.244C47.1424 127.703 47.0304 128.295 47.0304 129.02V139.324C47.0304 139.441 46.9717 139.5 46.8544 139.5H45.8784C45.7717 139.5 45.7184 139.441 45.7184 139.324V129.036C45.7184 128.332 45.809 127.751 45.9904 127.292C46.1717 126.833 46.481 126.407 46.9184 126.012H43.9904C43.873 126.012 43.8144 125.953 43.8144 125.836V125.052C43.8144 124.945 43.873 124.892 43.9904 124.892H48.4064ZM53.975 139.676C53.3243 139.676 52.7323 139.521 52.199 139.212C51.6763 138.903 51.271 138.476 50.983 137.932L50.919 139.324C50.919 139.441 50.8603 139.5 50.743 139.5H49.879C49.7723 139.5 49.719 139.441 49.719 139.324V130.78C49.719 130.673 49.7723 130.62 49.879 130.62H50.855C50.9723 130.62 51.031 130.673 51.031 130.78V135.436C51.031 136.055 51.143 136.593 51.367 137.052C51.6017 137.511 51.911 137.863 52.295 138.108C52.6897 138.353 53.1323 138.476 53.623 138.476C54.2523 138.476 54.743 138.252 55.095 137.804C55.447 137.345 55.623 136.705 55.623 135.884V130.78C55.623 130.673 55.6763 130.62 55.783 130.62H56.759C56.8763 130.62 56.935 130.673 56.935 130.78V136.268C56.935 137.324 56.6683 138.156 56.135 138.764C55.6123 139.372 54.8923 139.676 53.975 139.676ZM55.8347 129.324C55.7281 129.324 55.6747 129.265 55.6747 129.148V126.684C55.6747 126.567 55.7281 126.508 55.8347 126.508H56.7307C56.8374 126.508 56.8907 126.567 56.8907 126.684V129.148C56.8907 129.265 56.8374 129.324 56.7307 129.324H55.8347ZM68.3784 130.62C68.4957 130.62 68.5437 130.679 68.5224 130.796L66.6024 139.34C66.5917 139.383 66.5704 139.42 66.5384 139.452C66.5064 139.484 66.4637 139.5 66.4104 139.5H65.6264C65.541 139.5 65.477 139.452 65.4344 139.356L63.5784 132.876L61.7224 139.356C61.6797 139.452 61.6157 139.5 61.5304 139.5H60.7464C60.693 139.5 60.6504 139.484 60.6184 139.452C60.5864 139.42 60.565 139.383 60.5544 139.34L58.6344 130.796V130.764C58.6344 130.668 58.6824 130.62 58.7784 130.62H59.7544C59.8717 130.62 59.9357 130.668 59.9464 130.764L61.2904 136.94L63.1144 130.764C63.1357 130.668 63.1944 130.62 63.2904 130.62H63.8824C63.9784 130.62 64.0424 130.668 64.0744 130.764L65.8984 136.908L67.2264 130.764C67.2584 130.668 67.3224 130.62 67.4184 130.62H68.3784ZM73.8339 139.676C72.6925 139.676 71.8019 139.345 71.1619 138.684C70.5219 138.012 70.2019 137.084 70.2019 135.9V130.78C70.2019 130.673 70.2552 130.62 70.3619 130.62H71.3379C71.4552 130.62 71.5139 130.673 71.5139 130.78V135.74C71.5139 136.615 71.7112 137.292 72.1059 137.772C72.5112 138.241 73.0872 138.476 73.8339 138.476C74.5805 138.476 75.1565 138.241 75.5619 137.772C75.9672 137.303 76.1699 136.625 76.1699 135.74V130.78C76.1699 130.673 76.2232 130.62 76.3299 130.62H77.3059C77.4232 130.62 77.4819 130.673 77.4819 130.78V135.9C77.4819 137.073 77.1565 137.996 76.5059 138.668C75.8659 139.34 74.9752 139.676 73.8339 139.676ZM86.3496 130.62C86.467 130.62 86.5256 130.673 86.5256 130.78V136.364C86.5256 137.409 86.2376 138.225 85.6616 138.812C85.0856 139.388 84.2803 139.676 83.2456 139.676C82.2323 139.676 81.4323 139.383 80.8456 138.796C80.2696 138.209 79.9816 137.399 79.9816 136.364V135.388C79.9816 134.876 80.067 134.439 80.2376 134.076C80.419 133.713 80.659 133.335 80.9576 132.94C81.1603 132.684 81.3096 132.471 81.4056 132.3C81.5016 132.119 81.5496 131.932 81.5496 131.74H79.8376C79.731 131.74 79.6776 131.681 79.6776 131.564V130.78C79.6776 130.673 79.731 130.62 79.8376 130.62H82.6536C82.771 130.62 82.8296 130.673 82.8296 130.78V131.548C82.8296 131.825 82.771 132.092 82.6536 132.348C82.5363 132.593 82.3603 132.881 82.1256 133.212C81.859 133.596 81.651 133.948 81.5016 134.268C81.363 134.577 81.2936 134.935 81.2936 135.34V136.236C81.2936 136.951 81.459 137.505 81.7896 137.9C82.131 138.284 82.6163 138.476 83.2456 138.476C83.875 138.476 84.3603 138.284 84.7016 137.9C85.043 137.505 85.2136 136.951 85.2136 136.236V130.78C85.2136 130.673 85.267 130.62 85.3736 130.62H86.3496ZM87.3645 128.252C87.4712 128.252 87.5245 128.311 87.5245 128.428V129.148C87.5245 129.265 87.4712 129.324 87.3645 129.324H83.4765C83.3698 129.324 83.3165 129.265 83.3165 129.148V127.612H82.3085C82.1912 127.612 82.1325 127.559 82.1325 127.452V126.748C82.1325 126.641 82.1912 126.588 82.3085 126.588H83.7645C83.9885 126.588 84.1645 126.652 84.2925 126.78C84.4098 126.897 84.4685 127.073 84.4685 127.308V128.252H87.3645ZM92.2285 130.444C93.0605 130.444 93.7858 130.636 94.4045 131.02C95.0338 131.393 95.5138 131.927 95.8445 132.62C96.1858 133.313 96.3565 134.124 96.3565 135.052C96.3565 135.991 96.1912 136.807 95.8605 137.5C95.5298 138.193 95.0552 138.732 94.4365 139.116C93.8285 139.489 93.1138 139.676 92.2925 139.676C91.5245 139.676 90.8525 139.516 90.2765 139.196C89.7112 138.865 89.2738 138.401 88.9645 137.804C88.6552 137.196 88.5005 136.487 88.5005 135.676V134.732C88.5005 134.625 88.5538 134.572 88.6605 134.572H92.4525C92.5592 134.572 92.6125 134.625 92.6125 134.732V135.516C92.6125 135.633 92.5592 135.692 92.4525 135.692H89.7965V135.74C89.7965 136.572 90.0152 137.239 90.4525 137.74C90.9005 138.241 91.4978 138.492 92.2445 138.492C93.0872 138.492 93.7592 138.177 94.2605 137.548C94.7618 136.919 95.0125 136.081 95.0125 135.036C95.0125 133.991 94.7565 133.164 94.2445 132.556C93.7325 131.937 93.0338 131.628 92.1485 131.628C91.6045 131.628 91.1138 131.761 90.6765 132.028C90.2498 132.284 89.9352 132.636 89.7325 133.084C89.7112 133.137 89.6845 133.169 89.6525 133.18C89.6205 133.191 89.5725 133.191 89.5085 133.18L88.6605 132.924C88.5538 132.892 88.5165 132.817 88.5485 132.7C88.8258 131.996 89.2952 131.447 89.9565 131.052C90.6178 130.647 91.3752 130.444 92.2285 130.444ZM102.694 139.676C102.043 139.676 101.451 139.521 100.918 139.212C100.395 138.903 99.9898 138.476 99.7018 137.932L99.6378 139.324C99.6378 139.441 99.5791 139.5 99.4618 139.5H98.5978C98.4911 139.5 98.4378 139.441 98.4378 139.324V130.78C98.4378 130.673 98.4911 130.62 98.5978 130.62H99.5738C99.6911 130.62 99.7498 130.673 99.7498 130.78V135.436C99.7498 136.055 99.8618 136.593 100.086 137.052C100.32 137.511 100.63 137.863 101.014 138.108C101.408 138.353 101.851 138.476 102.342 138.476C102.971 138.476 103.462 138.252 103.814 137.804C104.166 137.345 104.342 136.705 104.342 135.884V130.78C104.342 130.673 104.395 130.62 104.502 130.62H105.478C105.595 130.62 105.654 130.673 105.654 130.78V136.268C105.654 137.324 105.387 138.156 104.854 138.764C104.331 139.372 103.611 139.676 102.694 139.676ZM105.325 140.796C105.443 140.796 105.501 140.855 105.501 140.972V142.124C105.501 142.732 105.315 143.207 104.941 143.548C104.568 143.889 104.045 144.06 103.373 144.06C102.701 144.06 102.184 143.889 101.821 143.548C101.448 143.217 101.261 142.753 101.261 142.156V141.724H100.509C100.403 141.724 100.349 141.671 100.349 141.564V140.972C100.349 140.855 100.403 140.796 100.509 140.796H102.173C102.291 140.796 102.349 140.855 102.349 140.972V141.996C102.349 142.337 102.44 142.604 102.621 142.796C102.792 142.988 103.043 143.084 103.373 143.084C103.693 143.084 103.944 142.988 104.125 142.796C104.296 142.604 104.381 142.327 104.381 141.964V140.972C104.381 140.855 104.435 140.796 104.541 140.796H105.325ZM111.529 130.444C112.585 130.444 113.422 130.743 114.041 131.34C114.67 131.937 114.985 132.748 114.985 133.772V139.324C114.985 139.441 114.932 139.5 114.825 139.5H113.849C113.732 139.5 113.673 139.441 113.673 139.324V135.372H112.169C110.196 135.372 109.209 135.943 109.209 137.084C109.209 137.511 109.348 137.847 109.625 138.092C109.902 138.337 110.292 138.46 110.793 138.46C111.166 138.46 111.47 138.385 111.705 138.236C111.769 138.215 111.806 138.204 111.817 138.204C111.87 138.204 111.908 138.231 111.929 138.284L112.265 139.004C112.286 139.047 112.297 139.084 112.297 139.116C112.297 139.159 112.276 139.201 112.233 139.244C111.849 139.511 111.321 139.644 110.649 139.644C109.785 139.644 109.108 139.431 108.617 139.004C108.137 138.567 107.897 137.964 107.897 137.196C107.897 136.257 108.265 135.537 109.001 135.036C109.748 134.524 110.809 134.268 112.185 134.268H113.673V133.708C113.673 133.057 113.47 132.545 113.065 132.172C112.67 131.788 112.137 131.596 111.465 131.596C110.942 131.596 110.489 131.713 110.105 131.948C109.721 132.183 109.422 132.513 109.209 132.94C109.166 133.036 109.092 133.068 108.985 133.036L108.121 132.764C108.014 132.732 107.977 132.657 108.009 132.54C108.297 131.889 108.745 131.377 109.353 131.004C109.972 130.631 110.697 130.444 111.529 130.444Z" fill="#CCCCCC"/>
<defs>
<clipPath id="clip0_1924_49264">
<rect width="160" height="113" fill="white" transform="translate(0 0.5)"/>
</clipPath>
</defs>
</svg>
