<svg width="18" height="18" viewBox="0 0 18 19" fill="none" xmlns="http://www.w3.org/2000/svg">
<path d="M6.5 13L6.5 10" stroke="#222222" stroke-width="1.2" stroke-linecap="round"/>
<path d="M11.5 13L11.5 10" stroke="#222222" stroke-width="1.2" stroke-linecap="round"/>
<path d="M0 5H18V5C16.5955 5 15.8933 5 15.3889 5.33706C15.1705 5.48298 14.983 5.67048 14.8371 5.88886C14.5 6.39331 14.5 7.09554 14.5 8.5V14C14.5 15.8856 14.5 16.8284 13.9142 17.4142C13.3284 18 12.3856 18 10.5 18H7.5C5.61438 18 4.67157 18 4.08579 17.4142C3.5 16.8284 3.5 15.8856 3.5 14V8.5C3.5 7.09554 3.5 6.39331 3.16294 5.88886C3.01702 5.67048 2.82952 5.48298 2.61114 5.33706C2.10669 5 1.40446 5 0 5V5Z" stroke="#222222" stroke-width="1.2" stroke-linecap="round"/>
<path d="M6.5 2.00024C6.5 2.00024 7 1 9 1C11 1 11.5 2 11.5 2" stroke="#222222" stroke-width="1.2" stroke-linecap="round"/>
</svg>
