<svg width="56" height="56" viewBox="0 0 56 56" fill="none" xmlns="http://www.w3.org/2000/svg">
<circle cx="28" cy="28" r="27.5" fill="white" stroke="black"/>
<path d="M16.8 24.0802C16.8 20.1204 16.8 18.1405 18.0302 16.9103C19.2603 15.6802 21.2402 15.6802 25.2 15.6802H30.8C34.7598 15.6802 36.7397 15.6802 37.9698 16.9103C39.2 18.1405 39.2 20.1204 39.2 24.0802V33.6388C39.2 37.3954 39.2 39.2737 38.018 39.8482C36.836 40.4227 35.359 39.2623 32.4051 36.9414L31.4598 36.1986C29.7989 34.8936 28.9684 34.2411 28 34.2411C27.0316 34.2411 26.2011 34.8936 24.5402 36.1986L23.5948 36.9414C20.641 39.2623 19.164 40.4227 17.982 39.8482C16.8 39.2737 16.8 37.3954 16.8 33.6388V24.0802Z" fill="#FFC502" stroke="#222222"/>
</svg>
