<svg width="59" height="59" viewBox="0 0 59 59" fill="none" xmlns="http://www.w3.org/2000/svg">
<path d="M29.5003 0.166016C45.7007 0.166016 58.8337 13.299 58.8337 29.4993C58.8337 45.6997 45.7007 58.8327 29.5003 58.8327C13.3 58.8327 0.166992 45.6997 0.166992 29.4993C0.166992 13.299 13.3 0.166016 29.5003 0.166016ZM45.2607 20.166H41.1119C40.9704 20.166 40.8348 20.2222 40.7348 20.3222L26.0233 35.0316L19.3125 28.3212C19.2125 28.2212 19.0769 28.165 18.9354 28.165H14.7875C14.6461 28.165 14.5105 28.2211 14.4105 28.3211C14.2022 28.5293 14.2021 28.867 14.4103 29.0754C14.6448 29.3099 14.8792 29.5445 15.1137 29.779C15.1773 29.8427 15.2423 29.9078 15.3087 29.9742L15.7218 30.3883C16.577 31.2461 17.5975 32.2737 18.6363 33.3216L19.4166 34.1089C21.8407 36.5557 24.1648 38.9093 24.5225 39.2707L24.5683 39.317C25.3494 40.098 26.6157 40.098 27.3968 39.317L45.6378 21.0765C45.7379 20.9765 45.794 20.8408 45.794 20.6993C45.794 20.4048 45.5553 20.166 45.2607 20.166Z" fill="#FFC502"/>
</svg>
