<svg width="65" height="65" viewBox="0 0 65 65" fill="none" xmlns="http://www.w3.org/2000/svg">
<path d="M32.5003 3.16602C48.7007 3.16602 61.8337 16.299 61.8337 32.4993C61.8337 48.6997 48.7007 61.8327 32.5003 61.8327C16.3 61.8327 3.16699 48.6997 3.16699 32.4993C3.16699 16.299 16.3 3.16602 32.5003 3.16602ZM32.5003 7.16602C18.5091 7.16602 7.16699 18.5081 7.16699 32.4993C7.16699 46.4906 18.5091 57.8327 32.5003 57.8327C46.4915 57.8327 57.8337 46.4906 57.8337 32.4993C57.8337 18.5081 46.4915 7.16602 32.5003 7.16602ZM25.0003 21.9889L32.5001 29.4886L39.9999 21.9889C40.0999 21.8889 40.2356 21.8327 40.377 21.8327H44.5271C44.8216 21.8327 45.0604 22.0715 45.0604 22.366C45.0604 22.5075 45.0042 22.6431 44.9042 22.7432L35.3281 32.3179L45.267 42.2555C45.4753 42.4638 45.4753 42.8015 45.267 43.0098C45.167 43.1098 45.0314 43.166 44.8899 43.166H40.7399C40.5984 43.166 40.4627 43.1098 40.3627 43.0098L32.5001 35.1459L24.6351 43.0098C24.5351 43.1098 24.3995 43.166 24.258 43.166H20.1105C19.8159 43.166 19.5772 42.9272 19.5772 42.6327C19.5772 42.4912 19.6333 42.3556 19.7334 42.2556L29.6708 32.3179L20.0959 22.7431C19.8876 22.5349 19.8876 22.1972 20.0959 21.9889C20.1959 21.8889 20.3316 21.8327 20.473 21.8327H24.6232C24.7647 21.8327 24.9003 21.8889 25.0003 21.9889Z" fill="#FFC502"/>
</svg>
