<svg width="16" height="16" viewBox="0 0 16 16" fill="none" xmlns="http://www.w3.org/2000/svg">
<path d="M10.9417 9C10.1397 9.46176 9.72977 10.2535 9.22632 10.9947C9.15363 11.1017 9.06017 11.1787 9.01754 11.305C8.96996 11.446 8.9643 11.5898 8.96111 11.7367C8.95682 11.9339 8.72428 12.0119 8.59716 12.1176C8.57644 12.1348 8.15041 12.4957 8.14856 12.4477C8.14042 12.2359 8.09386 12.0513 7.95953 11.8834C7.74938 11.6207 7.44574 11.4462 7.18084 11.2458C7.10769 11.1905 7.06868 11.1167 7.00592 11.0568C6.89997 10.9556 6.75352 10.9171 6.63632 10.8339C6.60108 10.8088 6.58368 10.7695 6.54886 10.7521" stroke="#FFC502" stroke-width="3" stroke-linecap="round"/>
<path d="M6.13711 10.7331C6.00998 10.5918 5.86289 10.4766 5.70968 10.3621C5.49393 10.2009 5.23536 10.0936 5.08475 9.86413C4.75128 9.35598 4.25323 8.98878 3.91389 8.48449C3.60103 8.01954 3.24084 7.58799 2.93771 7.11613C2.57598 6.55307 2.35794 5.81426 2.29162 5.15107C2.27323 4.96716 2.27155 4.77869 2.27751 4.59385C2.29342 4.10072 3.0693 3.95972 3.40887 3.7813C3.79776 3.57697 4.08655 3.38508 4.54023 3.34964C4.63678 3.34209 4.83858 3.29877 4.91406 3.37785C5.11583 3.58922 5.40169 3.74785 5.67864 3.83632C5.93378 3.91782 6.21723 3.92772 6.48132 3.96469C6.69392 3.99445 6.50243 3.86608 6.42771 3.7813C6.37168 3.71773 6.32979 3.70187 6.26125 3.65998C6.22396 3.63719 6.18853 3.61289 6.15263 3.58804C5.85211 3.37999 6.77167 3.97695 7.08509 4.165C7.12772 4.19058 7.31788 4.33429 7.41236 4.33429C7.4659 4.33429 7.51495 4.33756 7.56754 4.34839C7.87987 4.4127 8.25199 4.3912 8.54937 4.26375C8.80253 4.15525 9.1332 4.24859 9.36756 4.06908C9.61819 3.8771 9.82108 3.69361 10.1293 3.61202C10.5429 3.50253 10.9914 3.54713 11.4159 3.54713C11.7271 3.54713 12.0992 3.60585 12.4033 3.52738C12.5508 3.48931 12.992 3.67848 12.8505 3.6219C12.7487 3.58116 12.6646 3.57534 12.5557 3.56124C12.196 3.51466 11.8285 3.47739 11.4709 3.42017C11.3568 3.40191 11.2148 3.35254 11.0914 3.32989C10.915 3.29748 10.7595 3.19259 10.6033 3.10982C10.6031 3.10969 10.3294 2.97124 10.5003 3.00543C10.9631 3.09798 11.4224 3.22413 11.8842 3.32424C12.101 3.37123 12.3178 3.41928 12.5359 3.45967C12.5593 3.46399 12.6191 3.46062 12.6375 3.48365C12.7782 3.65954 12.9316 3.74562 12.9958 3.97033C13.1352 4.45824 13.2412 4.94372 13.309 5.44731C13.3547 5.78709 13.3326 6.07786 13.2582 6.41503C13.1445 6.93033 12.8365 7.43896 12.5261 7.85956C12.107 8.42726 11.6433 8.96387 11.2127 9.52274C11.1353 9.62326 11.0692 9.73192 10.9927 9.83309C10.9881 9.83908 10.8829 9.97419 10.8742 9.97698C10.8564 9.98265 10.8354 9.9574 10.8332 9.93889C10.8092 9.73066 10.9024 9.28623 10.9306 9.15033C11.0865 8.39759 11.3467 7.70005 11.6444 6.99482C11.7943 6.63963 11.9601 6.28274 12.0676 5.91142C12.1377 5.66933 12.2339 5.30587 12.045 5.09182C11.992 5.03176 10.6853 6.03032 10.6231 6.07506C10.1128 6.44189 9.59932 6.82037 9.15878 7.27131C8.78791 7.65093 8.486 8.10517 8.20093 8.55079C7.9999 8.86504 7.81536 9.24191 7.71707 9.60456C7.66196 9.8079 7.65181 9.90822 7.55202 9.64406C7.31637 9.02028 7.1998 8.3709 7.01878 7.7326C6.88013 7.24368 6.64537 6.92595 6.22458 6.65061C5.99655 6.50141 5.83161 6.28066 5.62927 6.10045C5.44887 5.93978 5.32427 5.82543 5.09039 5.77599C4.95745 5.74789 4.87272 5.75051 4.82942 5.62928C4.82222 5.60913 4.81618 5.56775 4.7998 5.61095C4.70625 5.85756 4.68507 6.16446 4.68694 6.4249C4.69009 6.86235 4.97838 7.1777 5.3161 7.42225C5.38707 7.47364 5.46412 7.51698 5.53758 7.56473C5.59749 7.60367 5.63091 7.62622 5.69981 7.65642C5.95215 7.76704 6.20579 7.46497 6.36564 7.32209C6.57621 7.13388 7.21108 6.51432 7.41518 6.31769C7.44428 6.28966 7.77113 5.9421 7.89622 5.87474C7.90985 5.86741 7.92641 5.87643 7.93996 5.88321" stroke="#FFC502" stroke-width="3" stroke-linecap="round"/>
<path d="M1.47614 2.27405C3.1988 0.490299 5.94493 0.412223 7.75719 2.03982L7.87467 2.14944L7.89349 2.16803C7.95278 2.22672 8.04611 2.2269 8.1056 2.16845L8.15301 2.1226C9.96327 0.410094 12.7725 0.460578 14.5239 2.27405C16.3254 4.13946 16.3254 7.16388 14.5239 9.02929L9.08731 14.6586C8.4868 15.2805 7.51319 15.2805 6.91269 14.6586L1.47614 9.02929C-0.325379 7.16388 -0.325379 4.13946 1.47614 2.27405ZM2.29162 3.11846C0.96461 4.49253 0.940914 6.70509 2.22053 8.10911L2.29162 8.18488L7.72817 13.8142C7.86758 13.9586 8.08741 13.9689 8.2383 13.8452L8.27183 13.8142L13.7084 8.18488C15.0595 6.78583 15.0595 4.51751 13.7084 3.11846C12.3814 1.74439 10.2446 1.71985 8.88866 3.04485L8.81548 3.11846L8.11749 3.84121C8.05796 3.90284 7.96164 3.90346 7.90138 3.84259L7.12117 3.05448C5.76381 1.7174 3.61952 1.74346 2.29162 3.11846Z" fill="black" fill-opacity="0.85"/>
</svg>
