<svg width="16" height="16" viewBox="0 0 16 16" fill="none" xmlns="http://www.w3.org/2000/svg">
<path d="M1.35114 2.27405C3.0738 0.490299 5.81993 0.412223 7.63219 2.03982L7.74967 2.14944L7.7685 2.16803C7.82778 2.22672 7.92111 2.2269 7.9806 2.16845L8.02801 2.1226C9.83827 0.410094 12.6475 0.460578 14.3989 2.27405C16.2004 4.13946 16.2004 7.16388 14.3989 9.02929L8.96231 14.6586C8.36181 15.2805 7.38819 15.2805 6.78769 14.6586L1.35114 9.02929C-0.450379 7.16388 -0.450379 4.13946 1.35114 2.27405ZM2.16662 3.11846C0.839611 4.49253 0.815914 6.70509 2.09553 8.10911L2.16662 8.18488L7.60317 13.8142C7.74258 13.9586 7.96241 13.9689 8.1133 13.8452L8.14683 13.8142L13.5834 8.18488C14.9345 6.78583 14.9345 4.51751 13.5834 3.11846C12.2564 1.74439 10.1196 1.71985 8.76366 3.04485L8.69048 3.11846L7.99249 3.84121C7.93297 3.90284 7.83664 3.90346 7.77638 3.84259L6.99617 3.05448C5.63881 1.7174 3.49452 1.74346 2.16662 3.11846Z" fill="black" fill-opacity="0.85"/>
</svg>
