<svg width="56" height="56" viewBox="0 0 56 56" fill="none" xmlns="http://www.w3.org/2000/svg">
<circle cx="28" cy="28" r="27.5" fill="white" stroke="black"/>
<path d="M15.04 22.2112C15.0514 22.12 15.4445 21.9951 15.5075 21.9648C15.8462 21.8018 16.178 21.6231 16.5222 21.4719C16.8294 21.3369 17.1369 21.2303 17.4645 21.1602C17.9579 21.0548 18.3921 20.7922 18.8706 20.6402C19.7312 20.3668 20.6212 20.2238 21.5124 20.0984C22.0413 20.024 22.5631 19.9104 23.0925 19.8411C24.34 19.6777 25.5921 19.5335 26.8288 19.2975C27.4872 19.1719 28.1369 19.0241 28.7893 18.8663C29.0505 18.8031 29.3077 18.7078 29.5721 18.6597C29.8856 18.6027 28.9417 18.7526 28.6263 18.7974C26.9181 19.0403 25.2127 19.3023 23.4911 19.428C22.5704 19.4952 21.6492 19.5568 20.7297 19.6382C20.2299 19.6824 19.748 19.7325 19.2656 19.8701C18.7581 20.0148 18.3186 20.1718 17.9283 20.5369C17.7997 20.6572 17.2552 21.1609 17.5859 21.3469C17.8526 21.4969 18.2785 21.4589 18.5698 21.461C18.9756 21.464 19.4098 21.521 19.7911 21.3596C20.5108 21.0548 21.2243 20.753 21.9582 20.4862C22.5759 20.2616 23.198 20.0438 23.8354 19.881C24.383 19.7411 24.9503 19.6634 25.4915 19.5005C25.7156 19.433 25.9186 19.3222 26.1366 19.2395C26.6239 19.0547 27.1177 18.902 27.6224 18.772C28.1981 18.6238 28.7662 18.42 29.3547 18.3299C29.62 18.2893 29.8842 18.27 30.152 18.2647C30.4345 18.259 30.7093 18.1816 30.9891 18.1668C31.1457 18.1586 30.8378 18.3099 30.7771 18.3444C30.5938 18.4485 30.4468 18.5547 30.2752 18.6706C30.1799 18.7349 30.1754 18.7431 30.3042 18.6887C30.6269 18.5523 30.9471 18.4275 31.2863 18.3372C31.563 18.2635 31.8484 18.1902 32.1324 18.1505C32.5548 18.0915 32.9596 18.0692 33.3537 17.924C33.9822 17.6925 34.6468 17.5608 35.3088 17.4819C36.0583 17.3926 36.8173 17.325 37.5629 17.2137C37.8045 17.1777 38.0415 17.087 38.2805 17.0362C38.8552 16.914 39.4268 16.7696 40.0001 16.6393C40.0826 16.6206 40.1647 16.5964 40.2447 16.5687C40.3426 16.5347 40.6735 16.5424 40.569 16.3857C40.4658 16.2309 40.2965 16.0729 40.1541 15.9508C39.9751 15.7974 39.6484 15.8185 39.4257 15.8185C38.8368 15.8185 38.2486 15.9261 37.668 16.0215C37.3598 16.0721 37.0584 16.1617 36.7494 16.2135C35.737 16.3833 34.7203 16.4675 33.6998 16.5687C33.0141 16.6367 32.326 16.6765 31.6378 16.7173C31.3738 16.7329 31.1116 16.7345 30.855 16.8042C30.4775 16.9069 30.1234 17.0565 29.7388 17.1413C28.7634 17.3562 27.7661 17.4474 26.7889 17.6522C25.015 18.0241 23.2462 18.4275 21.478 18.8246C19.6374 19.2379 17.7466 19.5939 15.9333 20.1292C15.7679 20.1781 15.3281 20.1756 15.2683 20.3847C15.1117 20.933 15.5293 19.2643 15.5293 18.6941C15.5293 18.3977 15.5001 18.081 15.3988 17.8008C15.3353 17.6253 15.3135 17.4266 15.3481 17.2427C15.4218 16.8512 15.5813 16.4573 15.8083 16.1266C16.176 15.5908 16.9205 15.5224 17.5098 15.4434C18.9852 15.2457 20.4927 15.0684 21.9835 15.0684C23.9659 15.0684 25.9384 15.1888 27.9196 15.1988C28.9215 15.2039 29.9253 15.2506 30.9275 15.2659C32.5803 15.2911 34.2216 15.3184 35.8687 15.4742C36.264 15.5116 36.6586 15.5621 37.0538 15.5884C37.2896 15.6041 37.501 15.6691 37.7333 15.7207C38.1917 15.8225 36.8028 15.8534 36.3344 15.8874C34.3213 16.0335 32.3086 16.2019 30.2969 16.3675C29.5845 16.4262 28.872 16.4828 28.1624 16.5687C26.0456 16.8249 23.9219 17.0114 21.806 17.2862C21.2189 17.3625 20.6606 17.5426 20.0918 17.7066C19.4707 17.8857 18.8424 17.9792 18.2038 18.0799C17.8648 18.1333 17.5251 18.1818 17.1963 18.2828C16.9812 18.3489 16.776 18.4623 16.5567 18.5129C16.3422 18.5624 16.3767 18.1967 16.3519 18.0618C16.3248 17.9143 16.2794 17.7634 16.2794 17.6124C16.2794 17.3761 16.4819 17.2051 16.6726 17.0923C17.2197 16.7691 17.9671 16.7716 18.5698 16.6412C19.6363 16.4104 20.6679 16.113 21.7516 15.9816C22.2016 15.9271 22.6856 15.8838 23.1396 15.8838C23.7347 15.8838 24.3263 16.0142 24.9226 16.0142" stroke="#FFC502" stroke-width="2" stroke-linecap="round"/>
<path d="M15.04 22.2112C15.0514 22.12 15.4445 21.9951 15.5075 21.9648C15.8462 21.8018 16.178 21.6231 16.5222 21.4719C16.8294 21.3369 17.1369 21.2303 17.4645 21.1602C17.9579 21.0548 18.3921 20.7922 18.8706 20.6402C19.7312 20.3668 20.6212 20.2238 21.5124 20.0984C22.0413 20.024 22.5631 19.9104 23.0925 19.8411C24.34 19.6777 25.5921 19.5335 26.8288 19.2975C27.4872 19.1719 28.1369 19.0241 28.7893 18.8663C29.0505 18.8031 29.3077 18.7078 29.5721 18.6597C29.8856 18.6027 28.9417 18.7526 28.6263 18.7974C26.9181 19.0403 25.2127 19.3023 23.4911 19.428C22.5704 19.4952 21.6492 19.5568 20.7297 19.6382C20.2299 19.6824 19.748 19.7325 19.2656 19.8701C18.7581 20.0148 18.3186 20.1718 17.9283 20.5369C17.7997 20.6572 17.2552 21.1609 17.5859 21.3469C17.8526 21.4969 18.2785 21.4589 18.5698 21.461C18.9756 21.464 19.4098 21.521 19.7911 21.3596C20.5108 21.0548 21.2243 20.753 21.9582 20.4862C22.5759 20.2616 23.198 20.0438 23.8354 19.881C24.383 19.7411 24.9503 19.6634 25.4915 19.5005C25.7156 19.433 25.9186 19.3222 26.1366 19.2395C26.6239 19.0547 27.1177 18.902 27.6224 18.772C28.1981 18.6238 28.7662 18.42 29.3547 18.3299C29.62 18.2893 29.8842 18.27 30.152 18.2647C30.4345 18.259 30.7093 18.1816 30.9891 18.1668C31.1457 18.1586 30.8378 18.3099 30.7771 18.3444C30.5938 18.4485 30.4468 18.5547 30.2752 18.6706C30.1799 18.7349 30.1754 18.7431 30.3042 18.6887C30.6269 18.5523 30.9471 18.4275 31.2863 18.3372C31.563 18.2635 31.8484 18.1902 32.1324 18.1505C32.5548 18.0915 32.9596 18.0692 33.3537 17.924C33.9822 17.6925 34.6468 17.5608 35.3088 17.4819C36.0583 17.3926 36.8173 17.325 37.5629 17.2137C37.8045 17.1777 38.0415 17.087 38.2805 17.0362C38.8552 16.914 39.4268 16.7696 40.0001 16.6393C40.0826 16.6206 40.1647 16.5964 40.2447 16.5687C40.3426 16.5347 40.6735 16.5424 40.569 16.3857C40.4658 16.2309 40.2965 16.0729 40.1541 15.9508C39.9751 15.7974 39.6484 15.8185 39.4257 15.8185C38.8368 15.8185 38.2486 15.9261 37.668 16.0215C37.3598 16.0721 37.0584 16.1617 36.7494 16.2135C35.737 16.3833 34.7203 16.4675 33.6998 16.5687C33.0141 16.6367 32.326 16.6765 31.6378 16.7173C31.3738 16.7329 31.1116 16.7345 30.855 16.8042C30.4775 16.9069 30.1234 17.0565 29.7388 17.1413C28.7634 17.3562 27.7661 17.4474 26.7889 17.6522C25.015 18.0241 23.2462 18.4275 21.478 18.8246C19.6374 19.2379 17.7466 19.5939 15.9333 20.1292C15.7679 20.1781 15.3281 20.1756 15.2683 20.3847C15.1117 20.933 15.5293 19.2643 15.5293 18.6941C15.5293 18.3977 15.5001 18.081 15.3988 17.8008C15.3353 17.6253 15.3135 17.4266 15.3481 17.2427C15.4218 16.8512 15.5813 16.4573 15.8083 16.1266C16.176 15.5908 16.9205 15.5224 17.5098 15.4434C18.9852 15.2457 20.4927 15.0684 21.9835 15.0684C23.9659 15.0684 25.9384 15.1888 27.9196 15.1988C28.9215 15.2039 29.9253 15.2506 30.9275 15.2659C32.5803 15.2911 34.2216 15.3184 35.8687 15.4742C36.264 15.5116 36.6586 15.5621 37.0538 15.5884C37.2896 15.6041 37.501 15.6691 37.7333 15.7207C38.1917 15.8225 36.8028 15.8534 36.3344 15.8874C34.3213 16.0335 32.3086 16.2019 30.2969 16.3675C29.5845 16.4262 28.872 16.4828 28.1624 16.5687C26.0456 16.8249 23.9219 17.0114 21.806 17.2862C21.2189 17.3625 20.6606 17.5426 20.0918 17.7066C19.4707 17.8857 18.8424 17.9792 18.2038 18.0799C17.8648 18.1333 17.5251 18.1818 17.1963 18.2828C16.9812 18.3489 16.776 18.4623 16.5567 18.5129C16.3422 18.5624 16.3767 18.1967 16.3519 18.0618C16.3248 17.9143 16.2794 17.7634 16.2794 17.6124C16.2794 17.3761 16.4819 17.2051 16.6726 17.0923C17.2197 16.7691 17.9671 16.7716 18.5698 16.6412C19.6363 16.4104 20.6679 16.113 21.7516 15.9816C22.2016 15.9271 22.6856 15.8838 23.1396 15.8838C23.7347 15.8838 24.3263 16.0142 24.9226 16.0142" stroke="white" stroke-opacity="0.8" stroke-width="2" stroke-linecap="round"/>
<path d="M29.4658 20.6648C30.0847 21.6963 30.5974 22.8089 31.3022 23.7894C31.426 23.9617 31.5466 24.1254 31.6865 24.2841C32.1498 24.8098 32.4024 25.4979 32.7043 26.1204C32.8772 26.4769 33.1023 26.8383 33.2381 27.213C33.2971 27.3757 33.312 27.559 33.3556 27.7272C33.4113 27.942 33.4054 28.1727 33.4054 28.3927C33.4054 28.5489 33.3669 28.4235 33.3235 28.3286C33.2036 28.0666 33.0506 27.8386 32.9072 27.5902C32.739 27.299 32.6624 26.9631 32.5015 26.6649C32.4085 26.4927 32.2301 26.2794 32.1847 26.0866C32.1189 25.8069 31.9574 25.5469 31.8538 25.2805C31.7276 24.9562 32.1482 25.9115 32.3093 26.2201C32.5928 26.7629 32.9815 27.2672 33.2239 27.8286C33.3778 28.185 33.4884 28.5122 33.5727 28.8927C33.6842 29.3965 33.7896 29.9114 33.9499 30.4016C34.0203 30.6169 34.1093 30.8346 34.1563 31.0564C34.2933 31.7022 34.3856 32.3431 34.5976 32.9711C34.7178 33.3272 34.8637 33.6926 35.0175 34.0352C35.1602 34.353 35.2447 34.6903 35.3556 35.0209C35.5192 35.5086 35.647 36.0407 35.9037 36.4872C36.0641 36.7662 36.2657 37.0174 36.4517 37.279C36.6574 37.5683 36.8284 37.8796 37.0087 38.1847C37.3665 38.7903 37.8795 39.298 38.2276 39.9071C38.296 40.0269 38.2861 40.1998 38.2667 40.3306C38.2393 40.5156 38.2494 40.6948 38.0532 40.5406C37.9842 40.4864 37.9167 40.3883 37.8859 40.3075C37.8623 40.2454 37.7756 40.1286 37.7952 40.0602C37.8099 40.0085 38.1678 40.1509 38.1795 40.1545C38.6113 40.2877 38.9379 40.4459 39.3913 40.4837C39.6533 40.5055 39.7257 40.5243 39.8682 40.3271C39.9583 40.2022 40.0034 40.0315 40.0034 39.8769C40.0034 39.7113 39.9824 39.5227 40.0247 39.3609C40.1729 38.7953 40.4805 38.224 40.5479 37.6402C40.6426 36.8197 40.5875 36.0091 40.5799 35.1846C40.5718 34.304 40.5042 33.4293 40.418 32.5529C40.375 32.1155 40.2422 31.6973 40.2258 31.2557C40.2147 30.9555 40.1442 30.6617 40.119 30.3625C40.0843 29.9499 40.0602 29.534 40.0425 29.1205C40.0242 28.6897 40.0296 28.2583 40.0603 27.8286C40.0878 27.444 40.0344 27.0531 40.0835 26.6702C40.1857 25.8731 40.3557 25.0517 40.3557 24.2467C40.3557 23.7531 40.3382 23.276 40.2988 22.7858C40.245 22.1165 40.2478 21.4444 40.2917 20.7751C40.3133 20.445 40.3296 20.1141 40.3717 19.7858C40.3887 19.6536 40.3572 19.4858 40.3949 19.3587C40.4677 19.1127 40.5672 18.8046 40.5799 18.5509C40.5862 18.4256 40.6092 18.4531 40.5087 18.5188C40.3852 18.5996 40.2713 18.6886 40.1262 18.727C39.5804 18.8715 39.006 18.9371 38.4767 19.1416C37.3466 19.5782 36.2069 19.8855 35.0246 20.1897C34.3686 20.3585 33.7251 20.5196 33.0566 20.631C32.594 20.7081 32.0984 20.8249 31.6278 20.8249C31.4146 20.8249 31.2054 20.857 30.9943 20.857C30.9089 20.857 30.8235 20.857 30.7381 20.857C30.6533 20.857 30.2716 20.8941 30.5335 20.7929C30.8758 20.6606 31.2309 20.5649 31.5726 20.4264C31.6981 20.3755 31.857 20.2666 31.9961 20.2484C32.3181 20.2064 32.6611 20.0983 32.9819 20.0313C33.6933 19.8829 34.4059 19.757 35.119 19.6221C35.8161 19.4902 36.5003 19.2646 37.1919 19.106C38.0078 18.919 38.8269 18.7034 39.6511 18.558C39.9104 18.5122 40.1617 18.4544 40.4269 18.4299C40.4788 18.4251 41.0346 18.3588 40.9767 18.4423C40.7203 18.8127 40.3967 19.1693 40.0443 19.4477C39.3252 20.0159 38.4299 20.3425 37.5888 20.6772C37.0031 20.9103 36.4114 21.1808 35.8147 21.3872C35.142 21.6199 34.4223 21.7116 33.7435 21.9282C33.26 22.0824 32.7395 22.01 32.2346 22.01C32.0366 22.01 31.8382 22.0074 31.6402 22.01C31.6235 22.0102 31.5833 22.0042 31.5833 22.0314C31.5833 22.1448 31.6384 22.2954 31.6812 22.3979C31.8165 22.7228 32.0646 22.9756 32.2381 23.2769C32.4166 23.587 32.6869 23.8493 32.8823 24.1524C33.1294 24.5359 33.3083 24.9689 33.4374 25.4051C33.5896 25.9193 33.839 26.3984 34.0673 26.882C34.3688 27.5204 34.6862 28.1535 35.0015 28.7842C35.0816 28.9444 35.1531 29.0981 35.2008 29.2717C35.4448 30.1607 35.7317 31.0394 35.9891 31.9248C36.2362 32.775 36.5031 33.6081 36.7115 34.4693C36.8295 34.9569 36.8803 35.4274 37.0887 35.8893C37.4043 36.5886 37.7586 37.2788 38.1012 37.9641C38.1494 38.0605 38.4341 38.6921 38.5372 38.6509C38.8329 38.5326 38.8633 38.0565 38.893 37.8039C38.9253 37.5304 38.9144 37.253 38.9144 36.9783C38.9144 36.4338 39.0187 35.8851 39.0852 35.3466C39.3071 33.5512 39.6153 31.7403 39.3148 29.9372C39.2571 29.5913 39.2546 29.2555 39.2151 28.9087C39.1416 28.2632 39.1127 27.6137 39.0728 26.9656C39.0162 26.0457 38.9242 25.1269 38.8895 24.2058C38.8742 23.8017 38.8171 23.3445 38.8966 22.9424C38.9452 22.6964 39.0105 22.455 39.0105 22.2022C39.0105 21.9504 39.0685 21.5665 38.8824 21.3694C38.7557 21.2353 38.5709 21.3599 38.4553 21.4513C38.317 21.5606 38.2958 21.7113 38.2667 21.8855C38.1501 22.583 38.1457 23.2875 38.1457 23.9923C38.1457 25.082 38.0433 26.1665 38.0105 27.2557C37.9771 28.3644 37.9605 29.4709 37.8592 30.576C37.8025 31.1957 37.7614 31.8084 37.7614 32.4301C37.7614 32.8893 37.8692 33.3168 37.9144 33.7682C37.9533 34.1577 37.9215 34.5624 37.9215 34.9533C37.9215 35.0835 37.9102 35.1544 37.8557 35.2772C37.8336 35.3268 37.7116 35.6508 37.692 35.5903C37.5404 35.1249 37.4908 34.5962 37.4393 34.1117C37.3037 32.8372 37.2231 31.5707 37.1546 30.2913C37.1106 29.4709 37.085 28.6524 37.0069 27.834C36.9104 26.8228 36.7777 25.8121 36.7133 24.7983C36.6748 24.1916 36.7412 23.6033 36.7685 23.0029C36.7768 22.8182 36.8284 22.6356 36.8325 22.4513C36.8335 22.4057 36.858 22.3158 36.8112 22.3766C36.6612 22.5709 36.581 22.7274 36.5318 22.9762C36.417 23.5564 36.5082 24.1385 36.5905 24.7147C36.6606 25.2054 36.6088 25.739 36.5834 26.2307C36.5586 26.7108 36.5481 27.1972 36.5051 27.6756C36.4805 27.9496 36.3648 28.1977 36.3272 28.4692C36.3063 28.6202 36.2188 28.3031 36.199 28.2557C35.822 27.3507 35.4996 26.4036 35.2666 25.4514C35.0298 24.4833 34.8229 23.4132 34.8947 22.4068C34.9192 22.065 34.8273 22.4514 34.7844 22.5652C34.7436 22.6734 34.7015 22.7816 34.6545 22.8873C34.6359 22.9292 34.4519 22.9522 34.3983 23.0029C34.339 23.0589 34.2297 23.0739 34.1527 23.0599C33.8741 23.0092 33.8665 23.0333 33.9339 23.3179C34.0152 23.6611 34.2711 23.9233 34.473 24.1987C35.0064 24.926 35.4564 25.7407 35.9001 26.5243C36.2261 27.1 36.5558 27.6614 36.6083 28.3304C36.6191 28.4677 36.7433 29.0186 36.6012 29.1133C36.5534 29.1452 36.2974 28.9505 36.2631 28.9283C36.0593 28.7965 35.8061 28.6031 35.7186 28.366C35.6751 28.2482 35.713 28.108 35.7382 27.9941C35.8871 27.3197 36.0714 26.6545 36.2133 25.9781C36.4162 25.0107 36.6115 24.0292 36.6706 23.0403C36.6925 22.673 36.6506 22.3612 36.546 22.0153C36.4667 21.7531 36.3472 21.5718 36.6688 21.6595C36.7942 21.6937 36.8543 21.8288 36.9606 21.8819" stroke="#FFC502" stroke-width="2" stroke-linecap="round"/>
<path d="M29.4658 20.6648C30.0847 21.6963 30.5974 22.8089 31.3022 23.7894C31.426 23.9617 31.5466 24.1254 31.6865 24.2841C32.1498 24.8098 32.4024 25.4979 32.7043 26.1204C32.8772 26.4769 33.1023 26.8383 33.2381 27.213C33.2971 27.3757 33.312 27.559 33.3556 27.7272C33.4113 27.942 33.4054 28.1727 33.4054 28.3927C33.4054 28.5489 33.3669 28.4235 33.3235 28.3286C33.2036 28.0666 33.0506 27.8386 32.9072 27.5902C32.739 27.299 32.6624 26.9631 32.5015 26.6649C32.4085 26.4927 32.2301 26.2794 32.1847 26.0866C32.1189 25.8069 31.9574 25.5469 31.8538 25.2805C31.7276 24.9562 32.1482 25.9115 32.3093 26.2201C32.5928 26.7629 32.9815 27.2672 33.2239 27.8286C33.3778 28.185 33.4884 28.5122 33.5727 28.8927C33.6842 29.3965 33.7896 29.9114 33.9499 30.4016C34.0203 30.6169 34.1093 30.8346 34.1563 31.0564C34.2933 31.7022 34.3856 32.3431 34.5976 32.9711C34.7178 33.3272 34.8637 33.6926 35.0175 34.0352C35.1602 34.353 35.2447 34.6903 35.3556 35.0209C35.5192 35.5086 35.647 36.0407 35.9037 36.4872C36.0641 36.7662 36.2657 37.0174 36.4517 37.279C36.6574 37.5683 36.8284 37.8796 37.0087 38.1847C37.3665 38.7903 37.8795 39.298 38.2276 39.9071C38.296 40.0269 38.2861 40.1998 38.2667 40.3306C38.2393 40.5156 38.2494 40.6948 38.0532 40.5406C37.9842 40.4864 37.9167 40.3883 37.8859 40.3075C37.8623 40.2454 37.7756 40.1286 37.7952 40.0602C37.8099 40.0085 38.1678 40.1509 38.1795 40.1545C38.6113 40.2877 38.9379 40.4459 39.3913 40.4837C39.6533 40.5055 39.7257 40.5243 39.8682 40.3271C39.9583 40.2022 40.0034 40.0315 40.0034 39.8769C40.0034 39.7113 39.9824 39.5227 40.0247 39.3609C40.1729 38.7953 40.4805 38.224 40.5479 37.6402C40.6426 36.8197 40.5875 36.0091 40.5799 35.1846C40.5718 34.304 40.5042 33.4293 40.418 32.5529C40.375 32.1155 40.2422 31.6973 40.2258 31.2557C40.2147 30.9555 40.1442 30.6617 40.119 30.3625C40.0843 29.9499 40.0602 29.534 40.0425 29.1205C40.0242 28.6897 40.0296 28.2583 40.0603 27.8286C40.0878 27.444 40.0344 27.0531 40.0835 26.6702C40.1857 25.8731 40.3557 25.0517 40.3557 24.2467C40.3557 23.7531 40.3382 23.276 40.2988 22.7858C40.245 22.1165 40.2478 21.4444 40.2917 20.7751C40.3133 20.445 40.3296 20.1141 40.3717 19.7858C40.3887 19.6536 40.3572 19.4858 40.3949 19.3587C40.4677 19.1127 40.5672 18.8046 40.5799 18.5509C40.5862 18.4256 40.6092 18.4531 40.5087 18.5188C40.3852 18.5996 40.2713 18.6886 40.1262 18.727C39.5804 18.8715 39.006 18.9371 38.4767 19.1416C37.3466 19.5782 36.2069 19.8855 35.0246 20.1897C34.3686 20.3585 33.7251 20.5196 33.0566 20.631C32.594 20.7081 32.0984 20.8249 31.6278 20.8249C31.4146 20.8249 31.2054 20.857 30.9943 20.857C30.9089 20.857 30.8235 20.857 30.7381 20.857C30.6533 20.857 30.2716 20.8941 30.5335 20.7929C30.8758 20.6606 31.2309 20.5649 31.5726 20.4264C31.6981 20.3755 31.857 20.2666 31.9961 20.2484C32.3181 20.2064 32.6611 20.0983 32.9819 20.0313C33.6933 19.8829 34.4059 19.757 35.119 19.6221C35.8161 19.4902 36.5003 19.2646 37.1919 19.106C38.0078 18.919 38.8269 18.7034 39.6511 18.558C39.9104 18.5122 40.1617 18.4544 40.4269 18.4299C40.4788 18.4251 41.0346 18.3588 40.9767 18.4423C40.7203 18.8127 40.3967 19.1693 40.0443 19.4477C39.3252 20.0159 38.4299 20.3425 37.5888 20.6772C37.0031 20.9103 36.4114 21.1808 35.8147 21.3872C35.142 21.6199 34.4223 21.7116 33.7435 21.9282C33.26 22.0824 32.7395 22.01 32.2346 22.01C32.0366 22.01 31.8382 22.0074 31.6402 22.01C31.6235 22.0102 31.5833 22.0042 31.5833 22.0314C31.5833 22.1448 31.6384 22.2954 31.6812 22.3979C31.8165 22.7228 32.0646 22.9756 32.2381 23.2769C32.4166 23.587 32.6869 23.8493 32.8823 24.1524C33.1294 24.5359 33.3083 24.9689 33.4374 25.4051C33.5896 25.9193 33.839 26.3984 34.0673 26.882C34.3688 27.5204 34.6862 28.1535 35.0015 28.7842C35.0816 28.9444 35.1531 29.0981 35.2008 29.2717C35.4448 30.1607 35.7317 31.0394 35.9891 31.9248C36.2362 32.775 36.5031 33.6081 36.7115 34.4693C36.8295 34.9569 36.8803 35.4274 37.0887 35.8893C37.4043 36.5886 37.7586 37.2788 38.1012 37.9641C38.1494 38.0605 38.4341 38.6921 38.5372 38.6509C38.8329 38.5326 38.8633 38.0565 38.893 37.8039C38.9253 37.5304 38.9144 37.253 38.9144 36.9783C38.9144 36.4338 39.0187 35.8851 39.0852 35.3466C39.3071 33.5512 39.6153 31.7403 39.3148 29.9372C39.2571 29.5913 39.2546 29.2555 39.2151 28.9087C39.1416 28.2632 39.1127 27.6137 39.0728 26.9656C39.0162 26.0457 38.9242 25.1269 38.8895 24.2058C38.8742 23.8017 38.8171 23.3445 38.8966 22.9424C38.9452 22.6964 39.0105 22.455 39.0105 22.2022C39.0105 21.9504 39.0685 21.5665 38.8824 21.3694C38.7557 21.2353 38.5709 21.3599 38.4553 21.4513C38.317 21.5606 38.2958 21.7113 38.2667 21.8855C38.1501 22.583 38.1457 23.2875 38.1457 23.9923C38.1457 25.082 38.0433 26.1665 38.0105 27.2557C37.9771 28.3644 37.9605 29.4709 37.8592 30.576C37.8025 31.1957 37.7614 31.8084 37.7614 32.4301C37.7614 32.8893 37.8692 33.3168 37.9144 33.7682C37.9533 34.1577 37.9215 34.5624 37.9215 34.9533C37.9215 35.0835 37.9102 35.1544 37.8557 35.2772C37.8336 35.3268 37.7116 35.6508 37.692 35.5903C37.5404 35.1249 37.4908 34.5962 37.4393 34.1117C37.3037 32.8372 37.2231 31.5707 37.1546 30.2913C37.1106 29.4709 37.085 28.6524 37.0069 27.834C36.9104 26.8228 36.7777 25.8121 36.7133 24.7983C36.6748 24.1916 36.7412 23.6033 36.7685 23.0029C36.7768 22.8182 36.8284 22.6356 36.8325 22.4513C36.8335 22.4057 36.858 22.3158 36.8112 22.3766C36.6612 22.5709 36.581 22.7274 36.5318 22.9762C36.417 23.5564 36.5082 24.1385 36.5905 24.7147C36.6606 25.2054 36.6088 25.739 36.5834 26.2307C36.5586 26.7108 36.5481 27.1972 36.5051 27.6756C36.4805 27.9496 36.3648 28.1977 36.3272 28.4692C36.3063 28.6202 36.2188 28.3031 36.199 28.2557C35.822 27.3507 35.4996 26.4036 35.2666 25.4514C35.0298 24.4833 34.8229 23.4132 34.8947 22.4068C34.9192 22.065 34.8273 22.4514 34.7844 22.5652C34.7436 22.6734 34.7015 22.7816 34.6545 22.8873C34.6359 22.9292 34.4519 22.9522 34.3983 23.0029C34.339 23.0589 34.2297 23.0739 34.1527 23.0599C33.8741 23.0092 33.8665 23.0333 33.9339 23.3179C34.0152 23.6611 34.2711 23.9233 34.473 24.1987C35.0064 24.926 35.4564 25.7407 35.9001 26.5243C36.2261 27.1 36.5558 27.6614 36.6083 28.3304C36.6191 28.4677 36.7433 29.0186 36.6012 29.1133C36.5534 29.1452 36.2974 28.9505 36.2631 28.9283C36.0593 28.7965 35.8061 28.6031 35.7186 28.366C35.6751 28.2482 35.713 28.108 35.7382 27.9941C35.8871 27.3197 36.0714 26.6545 36.2133 25.9781C36.4162 25.0107 36.6115 24.0292 36.6706 23.0403C36.6925 22.673 36.6506 22.3612 36.546 22.0153C36.4667 21.7531 36.3472 21.5718 36.6688 21.6595C36.7942 21.6937 36.8543 21.8288 36.9606 21.8819" stroke="white" stroke-opacity="0.5" stroke-width="2" stroke-linecap="round"/>
<path d="M14.5596 17.7605C14.5596 16.6404 14.5596 16.0804 14.7776 15.6526C14.9693 15.2762 15.2753 14.9703 15.6516 14.7785C16.0794 14.5605 16.6395 14.5605 17.7596 14.5605H38.2396C39.3597 14.5605 39.9197 14.5605 40.3475 14.7785C40.7239 14.9703 41.0298 15.2762 41.2216 15.6526C41.4396 16.0804 41.4396 16.6404 41.4396 17.7605V38.2405C41.4396 39.3606 41.4396 39.9207 41.2216 40.3485C41.0298 40.7249 40.7239 41.0308 40.3475 41.2226C39.9197 41.4405 39.3597 41.4405 38.2396 41.4405H17.7596C16.6395 41.4405 16.0794 41.4405 15.6516 41.2226C15.2753 41.0308 14.9693 40.7249 14.7776 40.3485C14.5596 39.9207 14.5596 39.3607 14.5596 38.2405V17.7605Z" stroke="#222222" stroke-linecap="round"/>
<path d="M28.7069 32.2862C28.7069 35.4848 25.3851 37.6866 24.183 38.3787C23.9158 38.5326 23.5948 38.5326 23.3276 38.3787C22.1254 37.6866 18.8037 35.4848 18.8037 32.2862C18.8037 29.2902 21.2029 27.293 23.7553 27.293C26.3961 27.293 28.7069 29.2902 28.7069 32.2862Z" fill="#FFC502" stroke="#222222"/>
<path d="M37.1955 41.4398L28.707 20.2188" stroke="#222222"/>
<path d="M41.4396 17.3906L14.5596 23.0496" stroke="#222222"/>
<circle cx="23.7556" cy="32.2448" r="1.41474" fill="#222222"/>
</svg>
