<svg width="30" height="30" viewBox="0 0 30 30" fill="none" xmlns="http://www.w3.org/2000/svg">
<path d="M15.9228 5.2245C16.3341 5.43565 16.667 5.78194 16.8699 6.20977L18.8304 10.3421L23.2142 11.0047C24.354 11.177 25.1437 12.2779 24.9781 13.4635C24.9121 13.9357 24.6984 14.372 24.37 14.705L21.1978 17.9216L21.9467 22.4635C22.1414 23.6443 21.379 24.7658 20.2438 24.9683C19.7918 25.049 19.3268 24.9724 18.9208 24.7504L14.9999 22.606L11.0789 24.7504C10.0595 25.3079 8.79855 24.9002 8.2626 23.8397C8.04918 23.4174 7.97553 22.9337 8.05306 22.4635L8.8019 17.9216L5.62977 14.705C4.80502 13.8687 4.78815 12.4953 5.59208 11.6373C5.91221 11.2957 6.33167 11.0733 6.78554 11.0047L11.1693 10.3421L13.1298 6.20977C13.6395 5.13538 14.89 4.69426 15.9228 5.2245Z" fill="#CCCCCC"/>
<mask id="mask0_570_66657" style="mask-type:alpha" maskUnits="userSpaceOnUse" x="3" y="3" width="24" height="24">
<path d="M15.9228 5.2245C16.3341 5.43565 16.667 5.78194 16.8699 6.20977L18.8304 10.3421L23.2142 11.0047C24.354 11.177 25.1437 12.2779 24.9781 13.4635C24.9121 13.9357 24.6984 14.372 24.37 14.705L21.1978 17.9216L21.9467 22.4635C22.1414 23.6443 21.379 24.7658 20.2438 24.9683C19.7918 25.049 19.3268 24.9724 18.9208 24.7504L14.9999 22.606L11.0789 24.7504C10.0595 25.3079 8.79855 24.9002 8.2626 23.8397C8.04918 23.4174 7.97553 22.9337 8.05306 22.4635L8.8019 17.9216L5.62977 14.705C4.80502 13.8687 4.78815 12.4953 5.59208 11.6373C5.91221 11.2957 6.33167 11.0733 6.78554 11.0047L11.1693 10.3421L13.1298 6.20977C13.6395 5.13538 14.89 4.69426 15.9228 5.2245Z" fill="#CCCCCC"/>
</mask>
<g mask="url(#mask0_570_66657)">
<rect width="30" height="30" fill="#FFD21E"/>
</g>
</svg>
