<svg width="56" height="56" viewBox="0 0 56 56" fill="none" xmlns="http://www.w3.org/2000/svg">
<circle cx="28" cy="28" r="27.5" fill="white" stroke="black"/>
<path d="M15.9996 15.6091L18.5818 13.0269C18.9723 12.6364 19.6055 12.6364 19.996 13.0269L25.5507 18.5816C25.9412 18.9721 25.9412 19.6053 25.5507 19.9958L23.2468 22.2997C22.964 22.5825 22.8939 23.0144 23.0728 23.372C25.1402 27.5069 28.493 30.8596 32.6278 32.9271C32.9854 33.1059 33.4174 33.0358 33.7001 32.753L36.004 30.4492C36.3945 30.0586 37.0277 30.0586 37.4182 30.4492L42.9729 36.0038C43.3634 36.3944 43.3634 37.0275 42.9729 37.418L40.3907 40.0002C38.2794 42.1116 34.9368 42.3491 32.5481 40.5576L25.4019 35.1979C23.6584 33.8903 22.1096 32.3414 20.8019 30.5979L15.4423 23.4517C13.6507 21.063 13.8883 17.7204 15.9996 15.6091Z" fill="#FFC502" stroke="#222222"/>
</svg>
