<svg width="56" height="56" viewBox="0 0 56 56" fill="none" xmlns="http://www.w3.org/2000/svg">
<circle cx="28" cy="28" r="27.5" fill="white" stroke="black"/>
<path d="M42.5 28.25C42.5 36.2581 36.0081 42.75 28 42.75C19.9919 42.75 13.5 36.2581 13.5 28.25C13.5 20.2419 19.9919 13.75 28 13.75C36.0081 13.75 42.5 20.2419 42.5 28.25Z" fill="#FFC502" stroke="#222222"/>
<path d="M31.25 28.25C31.25 32.3636 30.8327 36.0709 30.1666 38.7353C29.8326 40.0714 29.4428 41.1171 29.0292 41.8168C28.5959 42.55 28.2319 42.75 28 42.75C27.7681 42.75 27.4041 42.55 26.9708 41.8168C26.5572 41.1171 26.1674 40.0714 25.8334 38.7353C25.1673 36.0709 24.75 32.3636 24.75 28.25C24.75 24.1364 25.1673 20.4291 25.8334 17.7647C26.1674 16.4286 26.5572 15.3829 26.9708 14.6832C27.4041 13.95 27.7681 13.75 28 13.75C28.2319 13.75 28.5959 13.95 29.0292 14.6832C29.4428 15.3829 29.8326 16.4286 30.1666 17.7647C30.8327 20.4291 31.25 24.1364 31.25 28.25Z" stroke="#222222"/>
<path d="M36.875 28.25C36.875 32.3134 35.8446 35.9684 34.2051 38.5916C32.5612 41.2218 30.3542 42.75 28 42.75C25.6458 42.75 23.4388 41.2218 21.7949 38.5916C20.1554 35.9684 19.125 32.3134 19.125 28.25C19.125 24.1866 20.1554 20.5316 21.7949 17.9084C23.4388 15.2782 25.6458 13.75 28 13.75C30.3542 13.75 32.5612 15.2782 34.2051 17.9084C35.8446 20.5316 36.875 24.1866 36.875 28.25Z" stroke="#222222"/>
<path d="M13.9375 28.25H42.0625" stroke="#33363F" stroke-linecap="round"/>
<path d="M38.3493 18.6548C37.1274 19.8857 35.5658 20.8826 33.7823 21.5703C31.9987 22.258 30.0397 22.6186 28.053 22.6249C26.0663 22.6312 24.1036 22.2831 22.313 21.6067C20.5225 20.9303 18.9507 19.9434 17.7162 18.7203" stroke="#222222"/>
<path d="M38.3724 37.8685C37.1366 36.6163 35.5502 35.6046 33.7363 34.9121C31.9224 34.2195 29.9298 33.8647 27.9131 33.8752C25.8964 33.8857 23.91 34.2612 22.1079 34.9726C20.3058 35.6839 18.7366 36.712 17.5221 37.977" stroke="#222222"/>
</svg>
