<svg width="44" height="44" viewBox="0 0 44 44" fill="none" xmlns="http://www.w3.org/2000/svg">
<rect width="44" height="44" rx="22" fill="#EEEEEE"/>
<path d="M22.2375 10.334H21.7618L21.5653 10.3376C18.8837 10.443 16.7639 12.6539 16.764 15.3454V18.158L16.7703 18.4055V18.4055C16.8329 19.7243 17.3923 20.9702 18.3354 21.8913L19.5892 23.1163L19.6699 23.2054C19.8225 23.3917 19.906 23.6257 19.906 23.8687V24.0397L19.8979 24.163C19.8571 24.4928 19.6561 24.781 19.3612 24.9326L11.4736 28.9773L11.3372 29.0538C10.7139 29.4348 10.3334 30.1138 10.333 30.8458V31.1968L10.3384 31.3318C10.4066 32.1725 11.1084 32.834 11.9645 32.834H32.0348C32.9355 32.834 33.6658 32.1019 33.6663 31.1986V30.8476C33.6663 30.0583 33.2266 29.3355 32.5257 28.9773L24.6381 24.9326C24.3035 24.761 24.093 24.4158 24.0934 24.0388V23.8678C24.0934 23.5852 24.2083 23.3143 24.4102 23.1163L25.6639 21.8914C26.6681 20.9103 27.2345 19.564 27.2344 18.158V15.3454V15.3454C27.2344 12.5777 24.9972 10.334 22.2375 10.334Z" fill="#CCCCCC"/>
</svg>
