<svg width="80" height="80" viewBox="0 0 70 70" fill="none" xmlns="http://www.w3.org/2000/svg">
<g filter="url(#filter0_d_1362_66467)">
<circle cx="35" cy="35" r="25" fill="#FFC502"/>
<path d="M26.2503 48.1243L25.9746 43.7124C25.3337 33.459 33.4769 24.791 43.7503 24.791V24.791L41.975 26.2112C40.9849 27.0033 40.4899 27.3994 40.0579 27.8229C38.0538 29.7876 36.8018 32.3927 36.5195 35.1849C36.4587 35.7869 36.4587 36.4208 36.4587 37.6888V37.6888C36.4587 38.6985 36.4587 39.2034 36.3787 39.5974C35.9969 41.4775 34.334 42.8218 32.4157 42.8012C32.0137 42.7968 31.52 42.6911 30.5326 42.4795L26.2503 41.5618" stroke="white" stroke-width="2.5"/>
</g>
<defs>
<filter id="filter0_d_1362_66467" x="0" y="0" width="70" height="70" filterUnits="userSpaceOnUse" color-interpolation-filters="sRGB">
<feFlood flood-opacity="0" result="BackgroundImageFix"/>
<feColorMatrix in="SourceAlpha" type="matrix" values="0 0 0 0 0 0 0 0 0 0 0 0 0 0 0 0 0 0 127 0" result="hardAlpha"/>
<feOffset/>
<feGaussianBlur stdDeviation="5"/>
<feComposite in2="hardAlpha" operator="out"/>
<feColorMatrix type="matrix" values="0 0 0 0 0 0 0 0 0 0 0 0 0 0 0 0 0 0 0.1 0"/>
<feBlend mode="normal" in2="BackgroundImageFix" result="effect1_dropShadow_1362_66467"/>
<feBlend mode="normal" in="SourceGraphic" in2="effect1_dropShadow_1362_66467" result="shape"/>
</filter>
</defs>
</svg>
