<svg width="96" height="92" viewBox="0 0 96 92" fill="none" xmlns="http://www.w3.org/2000/svg">
<path d="M48 60.0005C74.5097 60.0005 96 55.4141 96 49.7566C96 44.099 74.5097 39.5127 48 39.5127C21.4903 39.5127 0 44.099 0 49.7566C0 55.4141 21.4903 60.0005 48 60.0005Z" fill="#F5F5F5"/>
<path fill-rule="evenodd" clip-rule="evenodd" d="M82.5 20.137L67.281 3.30484C66.5505 2.15753 65.484 1.46387 64.3605 1.46387H31.6395C30.516 1.46387 29.4495 2.15753 28.719 3.30338L13.5 20.1385V33.659H82.5V20.137Z" stroke="#D9D9D9" stroke-width="0.487805"/>
<path fill-rule="evenodd" clip-rule="evenodd" d="M62.4195 24.7775C62.4195 22.4288 63.9105 20.4897 65.76 20.4883H82.5V47.0302C82.5 50.1371 80.52 52.6834 78.075 52.6834H17.925C15.48 52.6834 13.5 50.1356 13.5 47.0302V20.4883H30.24C32.0895 20.4883 33.5805 22.4244 33.5805 24.7732V24.8054C33.5805 27.1541 35.088 29.0507 36.936 29.0507H59.064C60.912 29.0507 62.4195 27.1366 62.4195 24.7878V24.7775Z" fill="#FAFAFA" stroke="#D9D9D9" stroke-width="0.487805"/>
<path d="M16.4064 71.392C16.513 71.392 16.5664 71.4453 16.5664 71.552V72.336C16.5664 72.4107 16.5344 72.48 16.4704 72.544C15.9584 72.8747 15.5904 73.2747 15.3664 73.744C15.1424 74.2027 15.0304 74.7947 15.0304 75.52V85.824C15.0304 85.9413 14.9717 86 14.8544 86H13.8784C13.7717 86 13.7184 85.9413 13.7184 85.824V75.536C13.7184 74.832 13.809 74.2507 13.9904 73.792C14.1717 73.3333 14.481 72.9067 14.9184 72.512H11.9904C11.873 72.512 11.8144 72.4533 11.8144 72.336V71.552C11.8144 71.4453 11.873 71.392 11.9904 71.392H16.4064ZM21.975 86.176C21.3243 86.176 20.7323 86.0213 20.199 85.712C19.6763 85.4027 19.271 84.976 18.983 84.432L18.919 85.824C18.919 85.9413 18.8603 86 18.743 86H17.879C17.7723 86 17.719 85.9413 17.719 85.824V77.28C17.719 77.1733 17.7723 77.12 17.879 77.12H18.855C18.9723 77.12 19.031 77.1733 19.031 77.28V81.936C19.031 82.5547 19.143 83.0933 19.367 83.552C19.6017 84.0107 19.911 84.3627 20.295 84.608C20.6897 84.8533 21.1323 84.976 21.623 84.976C22.2523 84.976 22.743 84.752 23.095 84.304C23.447 83.8453 23.623 83.2053 23.623 82.384V77.28C23.623 77.1733 23.6763 77.12 23.783 77.12H24.759C24.8763 77.12 24.935 77.1733 24.935 77.28V82.768C24.935 83.824 24.6683 84.656 24.135 85.264C23.6123 85.872 22.8923 86.176 21.975 86.176ZM23.8347 75.824C23.7281 75.824 23.6747 75.7653 23.6747 75.648V73.184C23.6747 73.0667 23.7281 73.008 23.8347 73.008H24.7307C24.8374 73.008 24.8907 73.0667 24.8907 73.184V75.648C24.8907 75.7653 24.8374 75.824 24.7307 75.824H23.8347ZM36.3784 77.12C36.4957 77.12 36.5437 77.1787 36.5224 77.296L34.6024 85.84C34.5917 85.8827 34.5704 85.92 34.5384 85.952C34.5064 85.984 34.4637 86 34.4104 86H33.6264C33.541 86 33.477 85.952 33.4344 85.856L31.5784 79.376L29.7224 85.856C29.6797 85.952 29.6157 86 29.5304 86H28.7464C28.693 86 28.6504 85.984 28.6184 85.952C28.5864 85.92 28.565 85.8827 28.5544 85.84L26.6344 77.296V77.264C26.6344 77.168 26.6824 77.12 26.7784 77.12H27.7544C27.8717 77.12 27.9357 77.168 27.9464 77.264L29.2904 83.44L31.1144 77.264C31.1357 77.168 31.1944 77.12 31.2904 77.12H31.8824C31.9784 77.12 32.0424 77.168 32.0744 77.264L33.8984 83.408L35.2264 77.264C35.2584 77.168 35.3224 77.12 35.4184 77.12H36.3784ZM41.8339 86.176C40.6925 86.176 39.8019 85.8453 39.1619 85.184C38.5219 84.512 38.2019 83.584 38.2019 82.4V77.28C38.2019 77.1733 38.2552 77.12 38.3619 77.12H39.3379C39.4552 77.12 39.5139 77.1733 39.5139 77.28V82.24C39.5139 83.1147 39.7112 83.792 40.1059 84.272C40.5112 84.7413 41.0872 84.976 41.8339 84.976C42.5805 84.976 43.1565 84.7413 43.5619 84.272C43.9672 83.8027 44.1699 83.1253 44.1699 82.24V77.28C44.1699 77.1733 44.2232 77.12 44.3299 77.12H45.3059C45.4232 77.12 45.4819 77.1733 45.4819 77.28V82.4C45.4819 83.5733 45.1565 84.496 44.5059 85.168C43.8659 85.84 42.9752 86.176 41.8339 86.176ZM54.3496 77.12C54.467 77.12 54.5256 77.1733 54.5256 77.28V82.864C54.5256 83.9093 54.2376 84.7253 53.6616 85.312C53.0856 85.888 52.2803 86.176 51.2456 86.176C50.2323 86.176 49.4323 85.8827 48.8456 85.296C48.2696 84.7093 47.9816 83.8987 47.9816 82.864V81.888C47.9816 81.376 48.067 80.9387 48.2376 80.576C48.419 80.2133 48.659 79.8347 48.9576 79.44C49.1603 79.184 49.3096 78.9707 49.4056 78.8C49.5016 78.6187 49.5496 78.432 49.5496 78.24H47.8376C47.731 78.24 47.6776 78.1813 47.6776 78.064V77.28C47.6776 77.1733 47.731 77.12 47.8376 77.12H50.6536C50.771 77.12 50.8296 77.1733 50.8296 77.28V78.048C50.8296 78.3253 50.771 78.592 50.6536 78.848C50.5363 79.0933 50.3603 79.3813 50.1256 79.712C49.859 80.096 49.651 80.448 49.5016 80.768C49.363 81.0773 49.2936 81.4347 49.2936 81.84V82.736C49.2936 83.4507 49.459 84.0053 49.7896 84.4C50.131 84.784 50.6163 84.976 51.2456 84.976C51.875 84.976 52.3603 84.784 52.7016 84.4C53.043 84.0053 53.2136 83.4507 53.2136 82.736V77.28C53.2136 77.1733 53.267 77.12 53.3736 77.12H54.3496ZM55.3645 74.752C55.4712 74.752 55.5245 74.8107 55.5245 74.928V75.648C55.5245 75.7653 55.4712 75.824 55.3645 75.824H51.4765C51.3698 75.824 51.3165 75.7653 51.3165 75.648V74.112H50.3085C50.1912 74.112 50.1325 74.0587 50.1325 73.952V73.248C50.1325 73.1413 50.1912 73.088 50.3085 73.088H51.7645C51.9885 73.088 52.1645 73.152 52.2925 73.28C52.4098 73.3973 52.4685 73.5733 52.4685 73.808V74.752H55.3645ZM60.2285 76.944C61.0605 76.944 61.7858 77.136 62.4045 77.52C63.0338 77.8933 63.5138 78.4267 63.8445 79.12C64.1858 79.8133 64.3565 80.624 64.3565 81.552C64.3565 82.4907 64.1912 83.3067 63.8605 84C63.5298 84.6933 63.0552 85.232 62.4365 85.616C61.8285 85.9893 61.1138 86.176 60.2925 86.176C59.5245 86.176 58.8525 86.016 58.2765 85.696C57.7112 85.3653 57.2738 84.9013 56.9645 84.304C56.6552 83.696 56.5005 82.9867 56.5005 82.176V81.232C56.5005 81.1253 56.5538 81.072 56.6605 81.072H60.4525C60.5592 81.072 60.6125 81.1253 60.6125 81.232V82.016C60.6125 82.1333 60.5592 82.192 60.4525 82.192H57.7965V82.24C57.7965 83.072 58.0152 83.7387 58.4525 84.24C58.9005 84.7413 59.4978 84.992 60.2445 84.992C61.0872 84.992 61.7592 84.6773 62.2605 84.048C62.7618 83.4187 63.0125 82.5813 63.0125 81.536C63.0125 80.4907 62.7565 79.664 62.2445 79.056C61.7325 78.4373 61.0338 78.128 60.1485 78.128C59.6045 78.128 59.1138 78.2613 58.6765 78.528C58.2498 78.784 57.9352 79.136 57.7325 79.584C57.7112 79.6373 57.6845 79.6693 57.6525 79.68C57.6205 79.6907 57.5725 79.6907 57.5085 79.68L56.6605 79.424C56.5538 79.392 56.5165 79.3173 56.5485 79.2C56.8258 78.496 57.2952 77.9467 57.9565 77.552C58.6178 77.1467 59.3752 76.944 60.2285 76.944ZM70.6938 86.176C70.0431 86.176 69.4511 86.0213 68.9178 85.712C68.3951 85.4027 67.9898 84.976 67.7018 84.432L67.6378 85.824C67.6378 85.9413 67.5791 86 67.4618 86H66.5978C66.4911 86 66.4378 85.9413 66.4378 85.824V77.28C66.4378 77.1733 66.4911 77.12 66.5978 77.12H67.5738C67.6911 77.12 67.7498 77.1733 67.7498 77.28V81.936C67.7498 82.5547 67.8618 83.0933 68.0858 83.552C68.3204 84.0107 68.6298 84.3627 69.0138 84.608C69.4084 84.8533 69.8511 84.976 70.3418 84.976C70.9711 84.976 71.4618 84.752 71.8138 84.304C72.1658 83.8453 72.3418 83.2053 72.3418 82.384V77.28C72.3418 77.1733 72.3951 77.12 72.5018 77.12H73.4778C73.5951 77.12 73.6538 77.1733 73.6538 77.28V82.768C73.6538 83.824 73.3871 84.656 72.8538 85.264C72.3311 85.872 71.6111 86.176 70.6938 86.176ZM73.3252 87.296C73.4426 87.296 73.5012 87.3547 73.5012 87.472V88.624C73.5012 89.232 73.3146 89.7067 72.9412 90.048C72.5679 90.3893 72.0452 90.56 71.3732 90.56C70.7012 90.56 70.1839 90.3893 69.8212 90.048C69.4479 89.7173 69.2612 89.2533 69.2612 88.656V88.224H68.5092C68.4026 88.224 68.3492 88.1707 68.3492 88.064V87.472C68.3492 87.3547 68.4026 87.296 68.5092 87.296H70.1732C70.2906 87.296 70.3492 87.3547 70.3492 87.472V88.496C70.3492 88.8373 70.4399 89.104 70.6212 89.296C70.7919 89.488 71.0426 89.584 71.3732 89.584C71.6932 89.584 71.9439 89.488 72.1252 89.296C72.2959 89.104 72.3812 88.8267 72.3812 88.464V87.472C72.3812 87.3547 72.4346 87.296 72.5412 87.296H73.3252ZM79.5291 76.944C80.5851 76.944 81.4225 77.2427 82.0411 77.84C82.6705 78.4373 82.9851 79.248 82.9851 80.272V85.824C82.9851 85.9413 82.9318 86 82.8251 86H81.8491C81.7318 86 81.6731 85.9413 81.6731 85.824V81.872H80.1691C78.1958 81.872 77.2091 82.4427 77.2091 83.584C77.2091 84.0107 77.3478 84.3467 77.6251 84.592C77.9025 84.8373 78.2918 84.96 78.7931 84.96C79.1665 84.96 79.4705 84.8853 79.7051 84.736C79.7691 84.7147 79.8065 84.704 79.8171 84.704C79.8705 84.704 79.9078 84.7307 79.9291 84.784L80.2651 85.504C80.2865 85.5467 80.2971 85.584 80.2971 85.616C80.2971 85.6587 80.2758 85.7013 80.2331 85.744C79.8491 86.0107 79.3211 86.144 78.6491 86.144C77.7851 86.144 77.1078 85.9307 76.6171 85.504C76.1371 85.0667 75.8971 84.464 75.8971 83.696C75.8971 82.7573 76.2651 82.0373 77.0011 81.536C77.7478 81.024 78.8091 80.768 80.1851 80.768H81.6731V80.208C81.6731 79.5573 81.4705 79.0453 81.0651 78.672C80.6705 78.288 80.1371 78.096 79.4651 78.096C78.9425 78.096 78.4891 78.2133 78.1051 78.448C77.7211 78.6827 77.4225 79.0133 77.2091 79.44C77.1665 79.536 77.0918 79.568 76.9851 79.536L76.1211 79.264C76.0145 79.232 75.9771 79.1573 76.0091 79.04C76.2971 78.3893 76.7451 77.8773 77.3531 77.504C77.9718 77.1307 78.6971 76.944 79.5291 76.944Z" fill="#CCCCCC"/>
</svg>
