<svg width="95" height="92" viewBox="0 0 95 92" fill="none" xmlns="http://www.w3.org/2000/svg">
<path fill-rule="evenodd" clip-rule="evenodd" d="M47.5 47.5C57.165 47.5 65 39.665 65 30C65 20.335 57.165 12.5 47.5 12.5C37.835 12.5 30 20.335 30 30C30 39.665 37.835 47.5 47.5 47.5ZM42.1424 17.0657C43.841 16.3621 45.6615 16 47.5 16C47.7761 16 48 15.7761 48 15.5C48 15.2239 47.7761 15 47.5 15C45.5302 15 43.5796 15.388 41.7597 16.1418C39.9399 16.8956 38.2863 18.0005 36.8934 19.3934C35.5005 20.7863 34.3956 22.4399 33.6418 24.2598C32.888 26.0796 32.5 28.0302 32.5 30C32.5 30.2761 32.7239 30.5 33 30.5C33.2761 30.5 33.5 30.2761 33.5 30C33.5 28.1615 33.8621 26.341 34.5657 24.6424C35.2693 22.9439 36.3005 21.4005 37.6005 20.1005C38.9005 18.8005 40.4439 17.7693 42.1424 17.0657Z" fill="#7E869E" fill-opacity="0.25"/>
<path d="M68.75 51.25L60 42.5" stroke="#222222" stroke-linecap="round"/>
<circle cx="45" cy="27.5" r="22" stroke="#222222"/>
<path d="M10.5893 77.12C10.7066 77.12 10.7546 77.1787 10.7333 77.296L8.81331 85.84C8.80265 85.8827 8.78131 85.92 8.74931 85.952C8.71731 85.984 8.67465 86 8.62131 86H7.83731C7.75198 86 7.68798 85.952 7.64531 85.856L5.78931 79.376L3.93331 85.856C3.89065 85.952 3.82665 86 3.74131 86H2.95731C2.90398 86 2.86131 85.984 2.82931 85.952C2.79731 85.92 2.77598 85.8827 2.76531 85.84L0.845313 77.296V77.264C0.845313 77.168 0.893313 77.12 0.989313 77.12H1.96531C2.08265 77.12 2.14665 77.168 2.15731 77.264L3.50131 83.44L5.32531 77.264C5.34665 77.168 5.40531 77.12 5.50131 77.12H6.09331C6.18931 77.12 6.25331 77.168 6.28531 77.264L8.10931 83.408L9.43731 77.264C9.46931 77.168 9.53331 77.12 9.62931 77.12H10.5893ZM3.01194 75.824C2.8946 75.824 2.83594 75.7653 2.83594 75.648V74.928C2.83594 74.8107 2.8946 74.752 3.01194 74.752H9.39594C9.5026 74.752 9.55594 74.8053 9.55594 74.912V75.232C9.55594 75.4133 9.5026 75.5573 9.39594 75.664C9.28927 75.7707 9.14527 75.824 8.96394 75.824H3.01194ZM16.7328 86.176C16.0821 86.176 15.4901 86.0213 14.9568 85.712C14.4341 85.4027 14.0288 84.976 13.7408 84.432L13.6768 85.824C13.6768 85.9413 13.6181 86 13.5008 86H12.6368C12.5301 86 12.4768 85.9413 12.4768 85.824V77.28C12.4768 77.1733 12.5301 77.12 12.6368 77.12H13.6128C13.7301 77.12 13.7888 77.1733 13.7888 77.28V81.936C13.7888 82.5547 13.9008 83.0933 14.1248 83.552C14.3595 84.0107 14.6688 84.3627 15.0528 84.608C15.4475 84.8533 15.8901 84.976 16.3808 84.976C17.0101 84.976 17.5008 84.752 17.8528 84.304C18.2048 83.8453 18.3808 83.2053 18.3808 82.384V77.28C18.3808 77.1733 18.4341 77.12 18.5408 77.12H19.5168C19.6341 77.12 19.6928 77.1733 19.6928 77.28V82.768C19.6928 83.824 19.4261 84.656 18.8928 85.264C18.3701 85.872 17.6501 86.176 16.7328 86.176ZM31.1362 77.12C31.2535 77.12 31.3015 77.1787 31.2802 77.296L29.3602 85.84C29.3495 85.8827 29.3282 85.92 29.2962 85.952C29.2642 85.984 29.2215 86 29.1682 86H28.3842C28.2989 86 28.2349 85.952 28.1922 85.856L26.3362 79.376L24.4802 85.856C24.4375 85.952 24.3735 86 24.2882 86H23.5042C23.4509 86 23.4082 85.984 23.3762 85.952C23.3442 85.92 23.3229 85.8827 23.3122 85.84L21.3922 77.296V77.264C21.3922 77.168 21.4402 77.12 21.5362 77.12H22.5122C22.6295 77.12 22.6935 77.168 22.7042 77.264L24.0482 83.44L25.8722 77.264C25.8935 77.168 25.9522 77.12 26.0482 77.12H26.6402C26.7362 77.12 26.8002 77.168 26.8322 77.264L28.6562 83.408L29.9842 77.264C30.0162 77.168 30.0802 77.12 30.1762 77.12H31.1362ZM27.5428 75.824C27.4255 75.824 27.3668 75.7653 27.3668 75.648V75.152C27.3668 74.608 27.5321 74.1813 27.8628 73.872C28.1828 73.552 28.6308 73.392 29.2068 73.392H30.8868C30.9935 73.392 31.0468 73.4453 31.0468 73.552V74.272C31.0468 74.3787 30.9935 74.432 30.8868 74.432H29.4468C29.1695 74.432 28.9561 74.5067 28.8068 74.656C28.6468 74.8053 28.5668 75.0187 28.5668 75.296V75.648C28.5668 75.7653 28.5081 75.824 28.3908 75.824H27.5428ZM40.3677 85.808L40.3837 85.872C40.3837 85.9573 40.3357 86 40.2397 86H39.1837C39.141 86 39.0984 85.9893 39.0557 85.968C39.013 85.9467 38.9864 85.9147 38.9757 85.872L37.0237 81.408H34.3517V85.824C34.3517 85.9413 34.293 86 34.1757 86H33.1997C33.093 86 33.0397 85.9413 33.0397 85.824V77.28C33.0397 77.1733 33.093 77.12 33.1997 77.12H34.1597C34.2664 77.12 34.3197 77.1733 34.3197 77.28V80.256H37.2317C37.7757 80.256 38.1864 80.1173 38.4637 79.84C38.7517 79.5627 38.8957 79.1573 38.8957 78.624V77.28C38.8957 77.1733 38.9544 77.12 39.0717 77.12H40.0317C40.1384 77.12 40.1917 77.1733 40.1917 77.28V78.72C40.1917 79.392 40.0317 79.9467 39.7117 80.384C39.3917 80.8213 38.9384 81.12 38.3517 81.28L40.3677 85.808ZM45.9004 86C45.7831 86 45.7244 85.9413 45.7244 85.824V79.888C45.7244 79.344 45.5858 78.9173 45.3084 78.608C45.0418 78.2987 44.6684 78.144 44.1884 78.144C43.8258 78.144 43.5164 78.24 43.2604 78.432C43.0044 78.6133 42.8124 78.8853 42.6844 79.248C42.6311 79.3547 42.5564 79.392 42.4604 79.36L41.6284 79.12C41.5858 79.0987 41.5538 79.0667 41.5324 79.024C41.5111 78.9813 41.5058 78.9387 41.5164 78.896C41.7298 78.2667 42.0764 77.7867 42.5564 77.456C43.0364 77.1147 43.6071 76.944 44.2684 76.944C45.1218 76.944 45.7938 77.216 46.2844 77.76C46.7858 78.2933 47.0364 79.0187 47.0364 79.936V85.824C47.0364 85.9413 46.9831 86 46.8764 86H45.9004ZM57.1839 77.04C57.2906 77.04 57.3439 77.0933 57.3439 77.2V77.984C57.3439 78.0907 57.2906 78.144 57.1839 78.144H55.1999C55.5733 78.3467 55.8613 78.64 56.0639 79.024C56.2666 79.3973 56.3679 79.8347 56.3679 80.336V85.824C56.3679 85.9413 56.3146 86 56.2079 86H55.2319C55.1146 86 55.0559 85.9413 55.0559 85.824V81.872H53.5519C51.5786 81.872 50.5919 82.4427 50.5919 83.584C50.5919 84.0107 50.7306 84.3467 51.0079 84.592C51.2853 84.8373 51.6746 84.96 52.1759 84.96C52.5493 84.96 52.8533 84.8853 53.0879 84.736C53.1519 84.7147 53.1893 84.704 53.1999 84.704C53.2533 84.704 53.2906 84.7307 53.3119 84.784L53.6479 85.504C53.6693 85.5467 53.6799 85.584 53.6799 85.616C53.6799 85.6587 53.6586 85.7013 53.6159 85.744C53.2319 86.0107 52.7039 86.144 52.0319 86.144C51.1679 86.144 50.4906 85.9307 49.9999 85.504C49.5199 85.0667 49.2799 84.464 49.2799 83.696C49.2799 82.7573 49.6479 82.0373 50.3839 81.536C51.1306 81.024 52.1919 80.768 53.5679 80.768H55.0559V80.24C55.0559 79.6107 54.8533 79.1147 54.4479 78.752C54.0533 78.3787 53.5199 78.192 52.8479 78.192C52.3146 78.192 51.8559 78.3093 51.4719 78.544C51.0986 78.768 50.8053 79.088 50.5919 79.504C50.5493 79.6 50.4746 79.632 50.3679 79.6L49.5039 79.344C49.4506 79.3333 49.4133 79.3067 49.3919 79.264C49.3706 79.2213 49.3706 79.1733 49.3919 79.12C49.6693 78.4693 50.1119 77.9627 50.7199 77.6C51.3386 77.2267 52.0693 77.04 52.9119 77.04H57.1839ZM63.0066 77.12C64.0732 77.12 64.8892 77.392 65.4546 77.936C66.0306 78.4693 66.3186 79.2427 66.3186 80.256V85.824C66.3186 85.9413 66.2599 86 66.1426 86H65.1826C65.0652 86 65.0066 85.9413 65.0066 85.824V80.256C65.0066 79.616 64.8252 79.1253 64.4626 78.784C64.0999 78.4427 63.5772 78.272 62.8946 78.272H60.3346V83.2C60.3346 83.7653 60.4412 84.1973 60.6546 84.496C60.8786 84.784 61.2039 84.928 61.6306 84.928C61.8866 84.928 62.1266 84.864 62.3506 84.736C62.4039 84.704 62.4412 84.688 62.4626 84.688C62.5052 84.688 62.5426 84.72 62.5746 84.784L62.9106 85.504C62.9319 85.5467 62.9426 85.584 62.9426 85.616C62.9426 85.648 62.9212 85.6853 62.8786 85.728C62.5479 85.984 62.0839 86.112 61.4866 86.112C60.6972 86.112 60.0892 85.872 59.6626 85.392C59.2359 84.912 59.0226 84.2293 59.0226 83.344V77.28C59.0226 77.1733 59.0759 77.12 59.1826 77.12H63.0066ZM72.3536 86C72.2362 86 72.1776 85.9413 72.1776 85.824V79.888C72.1776 79.344 72.0389 78.9173 71.7616 78.608C71.4949 78.2987 71.1216 78.144 70.6416 78.144C70.2789 78.144 69.9696 78.24 69.7136 78.432C69.4576 78.6133 69.2656 78.8853 69.1376 79.248C69.0842 79.3547 69.0096 79.392 68.9136 79.36L68.0816 79.12C68.0389 79.0987 68.0069 79.0667 67.9856 79.024C67.9642 78.9813 67.9589 78.9387 67.9696 78.896C68.1829 78.2667 68.5296 77.7867 69.0096 77.456C69.4896 77.1147 70.0602 76.944 70.7216 76.944C71.5749 76.944 72.2469 77.216 72.7376 77.76C73.2389 78.2933 73.4896 79.0187 73.4896 79.936V85.824C73.4896 85.9413 73.4362 86 73.3296 86H72.3536ZM79.0291 86.176C78.1011 86.176 77.3757 85.888 76.8531 85.312C76.3411 84.736 76.0851 83.9307 76.0851 82.896V77.28C76.0851 77.1733 76.1384 77.12 76.2451 77.12H77.2211C77.3384 77.12 77.3971 77.1733 77.3971 77.28V82.512C77.3971 83.3013 77.5677 83.9093 77.9091 84.336C78.2611 84.7627 78.7517 84.976 79.3811 84.976C79.8717 84.976 80.3144 84.8533 80.7091 84.608C81.1037 84.3627 81.4131 84.0107 81.6371 83.552C81.8717 83.0933 81.9891 82.5547 81.9891 81.936V77.28C81.9891 77.1733 82.0424 77.12 82.1491 77.12H83.1251C83.2424 77.12 83.3011 77.1733 83.3011 77.28V85.824C83.3011 85.9413 83.2424 86 83.1251 86H82.2611C82.1437 86 82.0851 85.9413 82.0851 85.824L82.0371 84.432C81.7491 84.976 81.3384 85.4027 80.8051 85.712C80.2824 86.0213 79.6904 86.176 79.0291 86.176ZM86.1524 86C86.0458 86 85.9924 85.9413 85.9924 85.824V77.28C85.9924 77.1733 86.0458 77.12 86.1524 77.12H87.0164C87.1338 77.12 87.1924 77.1733 87.1924 77.28L87.2564 78.688C87.5444 78.1333 87.9551 77.7067 88.4884 77.408C89.0218 77.0987 89.6191 76.944 90.2804 76.944C91.2084 76.944 91.9338 77.2373 92.4564 77.824C92.9898 78.4 93.2564 79.2 93.2564 80.224V85.824C93.2564 85.9413 93.2031 86 93.0964 86H92.1204C92.0031 86 91.9444 85.9413 91.9444 85.824V80.608C91.9444 79.8187 91.7684 79.2107 91.4164 78.784C91.0751 78.3573 90.5791 78.144 89.9284 78.144C89.4271 78.144 88.9738 78.272 88.5684 78.528C88.1738 78.7733 87.8644 79.1253 87.6404 79.584C87.4164 80.0427 87.3044 80.5707 87.3044 81.168V85.824C87.3044 85.9413 87.2458 86 87.1284 86H86.1524ZM86.5588 75.824C86.4415 75.824 86.3828 75.7653 86.3828 75.648V74.928C86.3828 74.8107 86.4415 74.752 86.5588 74.752H91.9028V73.248C91.9028 73.1413 91.9615 73.088 92.0788 73.088H92.9268C93.0441 73.088 93.1028 73.1413 93.1028 73.248V75.232C93.1028 75.4133 93.0495 75.5573 92.9428 75.664C92.8361 75.7707 92.6921 75.824 92.5108 75.824H86.5588ZM92.0788 72.032C91.9721 72.032 91.9188 71.9787 91.9188 71.872V69.696C91.9188 69.5787 91.9721 69.52 92.0788 69.52H92.8948C93.0121 69.52 93.0708 69.5787 93.0708 69.696V71.872C93.0708 71.9787 93.0121 72.032 92.8948 72.032H92.0788Z" fill="#CCCCCC"/>
</svg>
