<svg width="40" height="40" viewBox="0 0 40 40" fill="none" xmlns="http://www.w3.org/2000/svg">
<path d="M40 20C40 31.0457 31.0457 40 20 40C8.9543 40 0 31.0457 0 20C0 8.9543 8.9543 0 20 0C31.0457 0 40 8.9543 40 20Z" fill="#54400E"/>
<path d="M10 20L8.93934 18.9393L7.87868 20L8.93934 21.0607L10 20ZM30 21.5C30.8284 21.5 31.5 20.8284 31.5 20C31.5 19.1716 30.8284 18.5 30 18.5V21.5ZM16.9393 10.9393L8.93934 18.9393L11.0607 21.0607L19.0607 13.0607L16.9393 10.9393ZM8.93934 21.0607L16.9393 29.0607L19.0607 26.9393L11.0607 18.9393L8.93934 21.0607ZM10 21.5H30V18.5H10V21.5Z" fill="white"/>
</svg>
