<svg width="20" height="20" viewBox="0 0 20 20" fill="none" xmlns="http://www.w3.org/2000/svg">
<rect width="20" height="20" rx="10" fill="#EEEEEE"/>
<path d="M10.0846 5.83301H9.91474L9.84454 5.83429C8.88681 5.87193 8.12976 6.66155 8.12981 7.6228V8.6273L8.13205 8.7157V8.7157C8.15439 9.18671 8.35417 9.63166 8.69102 9.96064L9.13878 10.3981L9.16762 10.4299C9.22211 10.4965 9.25192 10.5801 9.25192 10.6668V10.7279L9.24903 10.772C9.23446 10.8897 9.16269 10.9927 9.05737 11.0468L6.24038 12.4913L6.19166 12.5187C5.96904 12.6547 5.83315 12.8972 5.83301 13.1587V13.284L5.83493 13.3322C5.85929 13.6325 6.10993 13.8687 6.4157 13.8687H13.5837C13.9053 13.8687 14.1662 13.6073 14.1663 13.2847V13.1593C14.1663 12.8774 14.0093 12.6193 13.759 12.4913L10.942 11.0468C10.8225 10.9855 10.7473 10.8622 10.7474 10.7276V10.6665C10.7474 10.5656 10.7885 10.4688 10.8606 10.3981L11.3083 9.96064C11.667 9.61028 11.8693 9.12943 11.8692 8.6273V7.6228V7.6228C11.8692 6.63433 11.0702 5.83301 10.0846 5.83301Z" fill="#CCCCCC"/>
</svg>
