<svg width="128" height="128" viewBox="0 0 128 128" fill="none" xmlns="http://www.w3.org/2000/svg">
<rect x="0.5" y="0.5" width="127" height="127" rx="4.5" fill="#ECECEC" stroke="#54400E"/>
<path d="M89.6663 47.3332C89.6663 50.4628 87.1293 52.9998 83.9997 52.9998C80.8701 52.9998 78.333 50.4628 78.333 47.3332C78.333 44.2036 80.8701 41.6665 83.9997 41.6665C87.1293 41.6665 89.6663 44.2036 89.6663 47.3332Z" stroke="#54400E" stroke-width="2" stroke-linecap="round"/>
<path d="M37.2035 82.3333H80.7971C81.4444 82.3333 81.8237 81.6048 81.4525 81.0746L59.6557 49.9363C59.3372 49.4813 58.6634 49.4813 58.3449 49.9363L36.5481 81.0746C36.177 81.6048 36.5563 82.3333 37.2035 82.3333Z" stroke="#54400E" stroke-width="2" stroke-linecap="round"/>
<path d="M59 82.3332H90.8899C91.5183 82.3332 91.9014 81.642 91.5683 81.1092L76.3451 56.7519C76.0317 56.2506 75.3016 56.2506 74.9883 56.7519L70.1979 64.4165" stroke="#54400E" stroke-width="2" stroke-linecap="round"/>
</svg>
