<svg width="22" height="22" viewBox="0 0 22 22" fill="none" xmlns="http://www.w3.org/2000/svg">
<path d="M0 0H22V22C9.84974 22 0 12.1503 0 0Z" fill="black" fill-opacity="0.7"/>
<path d="M10.6518 4.02964L14.0438 7.45513L17.4357 4.02964C17.4545 4.01067 17.4801 4 17.5068 4H18.2756C18.3309 4 18.3756 4.04477 18.3756 4.1C18.3756 4.12635 18.3652 4.15164 18.3467 4.17036L14.569 7.98546L18.3752 11.8296C18.414 11.8689 18.4137 11.9322 18.3745 11.9711C18.3558 11.9896 18.3305 12 18.3041 12H17.5355C17.5088 12 17.4832 11.9893 17.4644 11.9704L14.0438 8.51579L10.623 11.9704C10.6043 11.9893 10.5787 12 10.552 12H9.78359C9.72837 12 9.68359 11.9552 9.68359 11.9C9.68359 11.8737 9.69399 11.8484 9.71253 11.8296L13.5187 7.98546L9.74102 4.17036C9.70216 4.13112 9.70247 4.0678 9.74171 4.02894C9.76044 4.0104 9.78572 4 9.81208 4H10.5807C10.6074 4 10.633 4.01067 10.6518 4.02964Z" fill="white"/>
</svg>
