<svg width="96" height="92" viewBox="0 0 96 92" fill="none" xmlns="http://www.w3.org/2000/svg">
<path d="M48 60.0005C74.5097 60.0005 96 55.4141 96 49.7566C96 44.099 74.5097 39.5127 48 39.5127C21.4903 39.5127 0 44.099 0 49.7566C0 55.4141 21.4903 60.0005 48 60.0005Z" fill="#F5F5F5"/>
<path fill-rule="evenodd" clip-rule="evenodd" d="M82.5 20.137L67.281 3.30484C66.5505 2.15753 65.484 1.46387 64.3605 1.46387H31.6395C30.516 1.46387 29.4495 2.15753 28.719 3.30338L13.5 20.1385V33.659H82.5V20.137Z" stroke="#D9D9D9" stroke-width="0.487805"/>
<path fill-rule="evenodd" clip-rule="evenodd" d="M62.4195 24.7775C62.4195 22.4288 63.9105 20.4897 65.76 20.4883H82.5V47.0302C82.5 50.1371 80.52 52.6834 78.075 52.6834H17.925C15.48 52.6834 13.5 50.1356 13.5 47.0302V20.4883H30.24C32.0895 20.4883 33.5805 22.4244 33.5805 24.7732V24.8054C33.5805 27.1541 35.088 29.0507 36.936 29.0507H59.064C60.912 29.0507 62.4195 27.1366 62.4195 24.7878V24.7775Z" fill="#FAFAFA" stroke="#D9D9D9" stroke-width="0.487805"/>
<path d="M21.7423 71.392C21.849 71.392 21.9023 71.4453 21.9023 71.552V72.336C21.9023 72.4107 21.8703 72.48 21.8063 72.544C21.2943 72.8747 20.9263 73.2747 20.7023 73.744C20.4783 74.2027 20.3663 74.7947 20.3663 75.52V85.824C20.3663 85.9413 20.3076 86 20.1903 86H19.2143C19.1076 86 19.0543 85.9413 19.0543 85.824V75.536C19.0543 74.832 19.145 74.2507 19.3263 73.792C19.5076 73.3333 19.817 72.9067 20.2543 72.512H17.3263C17.209 72.512 17.1503 72.4533 17.1503 72.336V71.552C17.1503 71.4453 17.209 71.392 17.3263 71.392H21.7423ZM27.3109 86.176C26.6603 86.176 26.0683 86.0213 25.5349 85.712C25.0123 85.4027 24.6069 84.976 24.3189 84.432L24.2549 85.824C24.2549 85.9413 24.1963 86 24.0789 86H23.2149C23.1083 86 23.0549 85.9413 23.0549 85.824V77.28C23.0549 77.1733 23.1083 77.12 23.2149 77.12H24.1909C24.3083 77.12 24.3669 77.1733 24.3669 77.28V81.936C24.3669 82.5547 24.4789 83.0933 24.7029 83.552C24.9376 84.0107 25.2469 84.3627 25.6309 84.608C26.0256 84.8533 26.4683 84.976 26.9589 84.976C27.5883 84.976 28.0789 84.752 28.4309 84.304C28.7829 83.8453 28.9589 83.2053 28.9589 82.384V77.28C28.9589 77.1733 29.0123 77.12 29.1189 77.12H30.0949C30.2123 77.12 30.2709 77.1733 30.2709 77.28V82.768C30.2709 83.824 30.0043 84.656 29.4709 85.264C28.9483 85.872 28.2283 86.176 27.3109 86.176ZM29.1707 75.824C29.064 75.824 29.0107 75.7653 29.0107 75.648V73.184C29.0107 73.0667 29.064 73.008 29.1707 73.008H30.0667C30.1734 73.008 30.2267 73.0667 30.2267 73.184V75.648C30.2267 75.7653 30.1734 75.824 30.0667 75.824H29.1707ZM37.1703 86.176C36.5196 86.176 35.9276 86.0213 35.3943 85.712C34.8716 85.4027 34.4663 84.976 34.1783 84.432L34.1143 85.824C34.1143 85.9413 34.0556 86 33.9383 86H33.0743C32.9676 86 32.9143 85.9413 32.9143 85.824V77.28C32.9143 77.1733 32.9676 77.12 33.0743 77.12H34.0503C34.1676 77.12 34.2263 77.1733 34.2263 77.28V81.936C34.2263 82.5547 34.3383 83.0933 34.5623 83.552C34.797 84.0107 35.1063 84.3627 35.4903 84.608C35.885 84.8533 36.3276 84.976 36.8183 84.976C37.4476 84.976 37.9383 84.752 38.2903 84.304C38.6423 83.8453 38.8183 83.2053 38.8183 82.384V77.28C38.8183 77.1733 38.8716 77.12 38.9783 77.12H39.9543C40.0716 77.12 40.1303 77.1733 40.1303 77.28V82.768C40.1303 83.824 39.8636 84.656 39.3303 85.264C38.8076 85.872 38.0876 86.176 37.1703 86.176ZM33.5901 75.824C33.4727 75.824 33.4141 75.7653 33.4141 75.648V74.928C33.4141 74.8107 33.4727 74.752 33.5901 74.752H38.9341V73.248C38.9341 73.1413 38.9927 73.088 39.1101 73.088H39.9581C40.0754 73.088 40.1341 73.1413 40.1341 73.248V75.232C40.1341 75.4133 40.0807 75.5573 39.9741 75.664C39.8674 75.7707 39.7234 75.824 39.5421 75.824H33.5901ZM49.0137 77.12C49.131 77.12 49.1897 77.1733 49.1897 77.28V82.864C49.1897 83.9093 48.9017 84.7253 48.3257 85.312C47.7497 85.888 46.9444 86.176 45.9097 86.176C44.8964 86.176 44.0964 85.8827 43.5097 85.296C42.9337 84.7093 42.6457 83.8987 42.6457 82.864V81.888C42.6457 81.376 42.731 80.9387 42.9017 80.576C43.083 80.2133 43.323 79.8347 43.6217 79.44C43.8244 79.184 43.9737 78.9707 44.0697 78.8C44.1657 78.6187 44.2137 78.432 44.2137 78.24H42.5017C42.395 78.24 42.3417 78.1813 42.3417 78.064V77.28C42.3417 77.1733 42.395 77.12 42.5017 77.12H45.3177C45.435 77.12 45.4937 77.1733 45.4937 77.28V78.048C45.4937 78.3253 45.435 78.592 45.3177 78.848C45.2004 79.0933 45.0244 79.3813 44.7897 79.712C44.523 80.096 44.315 80.448 44.1657 80.768C44.027 81.0773 43.9577 81.4347 43.9577 81.84V82.736C43.9577 83.4507 44.123 84.0053 44.4537 84.4C44.795 84.784 45.2804 84.976 45.9097 84.976C46.539 84.976 47.0244 84.784 47.3657 84.4C47.707 84.0053 47.8777 83.4507 47.8777 82.736V77.28C47.8777 77.1733 47.931 77.12 48.0377 77.12H49.0137ZM50.0286 74.752C50.1352 74.752 50.1886 74.8107 50.1886 74.928V75.648C50.1886 75.7653 50.1352 75.824 50.0286 75.824H46.1406C46.0339 75.824 45.9806 75.7653 45.9806 75.648V74.112H44.9726C44.8552 74.112 44.7966 74.0587 44.7966 73.952V73.248C44.7966 73.1413 44.8552 73.088 44.9726 73.088H46.4286C46.6526 73.088 46.8286 73.152 46.9566 73.28C47.0739 73.3973 47.1326 73.5733 47.1326 73.808V74.752H50.0286ZM54.8926 76.944C55.7246 76.944 56.4499 77.136 57.0686 77.52C57.6979 77.8933 58.1779 78.4267 58.5086 79.12C58.8499 79.8133 59.0206 80.624 59.0206 81.552C59.0206 82.4907 58.8552 83.3067 58.5246 84C58.1939 84.6933 57.7192 85.232 57.1006 85.616C56.4926 85.9893 55.7779 86.176 54.9566 86.176C54.1886 86.176 53.5166 86.016 52.9406 85.696C52.3752 85.3653 51.9379 84.9013 51.6286 84.304C51.3192 83.696 51.1646 82.9867 51.1646 82.176V81.232C51.1646 81.1253 51.2179 81.072 51.3246 81.072H55.1166C55.2232 81.072 55.2766 81.1253 55.2766 81.232V82.016C55.2766 82.1333 55.2232 82.192 55.1166 82.192H52.4606V82.24C52.4606 83.072 52.6792 83.7387 53.1166 84.24C53.5646 84.7413 54.1619 84.992 54.9086 84.992C55.7512 84.992 56.4232 84.6773 56.9246 84.048C57.4259 83.4187 57.6766 82.5813 57.6766 81.536C57.6766 80.4907 57.4206 79.664 56.9086 79.056C56.3966 78.4373 55.6979 78.128 54.8126 78.128C54.2686 78.128 53.7779 78.2613 53.3406 78.528C52.9139 78.784 52.5992 79.136 52.3966 79.584C52.3752 79.6373 52.3486 79.6693 52.3166 79.68C52.2846 79.6907 52.2366 79.6907 52.1726 79.68L51.3246 79.424C51.2179 79.392 51.1806 79.3173 51.2126 79.2C51.4899 78.496 51.9592 77.9467 52.6206 77.552C53.2819 77.1467 54.0392 76.944 54.8926 76.944ZM65.3578 86.176C64.7071 86.176 64.1151 86.0213 63.5818 85.712C63.0591 85.4027 62.6538 84.976 62.3658 84.432L62.3018 85.824C62.3018 85.9413 62.2431 86 62.1258 86H61.2618C61.1551 86 61.1018 85.9413 61.1018 85.824V77.28C61.1018 77.1733 61.1551 77.12 61.2618 77.12H62.2378C62.3551 77.12 62.4138 77.1733 62.4138 77.28V81.936C62.4138 82.5547 62.5258 83.0933 62.7498 83.552C62.9845 84.0107 63.2938 84.3627 63.6778 84.608C64.0725 84.8533 64.5151 84.976 65.0058 84.976C65.6351 84.976 66.1258 84.752 66.4778 84.304C66.8298 83.8453 67.0058 83.2053 67.0058 82.384V77.28C67.0058 77.1733 67.0591 77.12 67.1658 77.12H68.1418C68.2591 77.12 68.3178 77.1733 68.3178 77.28V82.768C68.3178 83.824 68.0511 84.656 67.5178 85.264C66.9951 85.872 66.2751 86.176 65.3578 86.176ZM67.9893 87.296C68.1066 87.296 68.1653 87.3547 68.1653 87.472V88.624C68.1653 89.232 67.9786 89.7067 67.6053 90.048C67.232 90.3893 66.7093 90.56 66.0373 90.56C65.3653 90.56 64.848 90.3893 64.4853 90.048C64.112 89.7173 63.9253 89.2533 63.9253 88.656V88.224H63.1733C63.0666 88.224 63.0133 88.1707 63.0133 88.064V87.472C63.0133 87.3547 63.0666 87.296 63.1733 87.296H64.8373C64.9546 87.296 65.0133 87.3547 65.0133 87.472V88.496C65.0133 88.8373 65.104 89.104 65.2853 89.296C65.456 89.488 65.7066 89.584 66.0373 89.584C66.3573 89.584 66.608 89.488 66.7893 89.296C66.96 89.104 67.0453 88.8267 67.0453 88.464V87.472C67.0453 87.3547 67.0986 87.296 67.2053 87.296H67.9893ZM74.1932 76.944C75.2492 76.944 76.0865 77.2427 76.7052 77.84C77.3345 78.4373 77.6492 79.248 77.6492 80.272V85.824C77.6492 85.9413 77.5959 86 77.4892 86H76.5132C76.3959 86 76.3372 85.9413 76.3372 85.824V81.872H74.8332C72.8599 81.872 71.8732 82.4427 71.8732 83.584C71.8732 84.0107 72.0119 84.3467 72.2892 84.592C72.5665 84.8373 72.9559 84.96 73.4572 84.96C73.8305 84.96 74.1345 84.8853 74.3692 84.736C74.4332 84.7147 74.4705 84.704 74.4812 84.704C74.5345 84.704 74.5719 84.7307 74.5932 84.784L74.9292 85.504C74.9505 85.5467 74.9612 85.584 74.9612 85.616C74.9612 85.6587 74.9399 85.7013 74.8972 85.744C74.5132 86.0107 73.9852 86.144 73.3132 86.144C72.4492 86.144 71.7719 85.9307 71.2812 85.504C70.8012 85.0667 70.5612 84.464 70.5612 83.696C70.5612 82.7573 70.9292 82.0373 71.6652 81.536C72.4119 81.024 73.4732 80.768 74.8492 80.768H76.3372V80.208C76.3372 79.5573 76.1345 79.0453 75.7292 78.672C75.3345 78.288 74.8012 78.096 74.1292 78.096C73.6065 78.096 73.1532 78.2133 72.7692 78.448C72.3852 78.6827 72.0865 79.0133 71.8732 79.44C71.8305 79.536 71.7559 79.568 71.6492 79.536L70.7852 79.264C70.6785 79.232 70.6412 79.1573 70.6732 79.04C70.9612 78.3893 71.4092 77.8773 72.0172 77.504C72.6359 77.1307 73.3612 76.944 74.1932 76.944Z" fill="#CCCCCC"/>
</svg>
