<svg width="80" height="80" viewBox="0 0 80 80" fill="none" xmlns="http://www.w3.org/2000/svg">
<rect width="80" height="80" rx="4" fill="#F5F5F5"/>
<path d="M40.55 31.25C40.6605 31.25 40.75 31.3395 40.75 31.45V39.25H48.55C48.6605 39.25 48.75 39.3395 48.75 39.45V40.55C48.75 40.6605 48.6605 40.75 48.55 40.75H40.75V48.55C40.75 48.6605 40.6605 48.75 40.55 48.75H39.45C39.3395 48.75 39.25 48.6605 39.25 48.55V40.75H31.45C31.3395 40.75 31.25 40.6605 31.25 40.55V39.45C31.25 39.3395 31.3395 39.25 31.45 39.25H39.25V31.45C39.25 31.3395 39.3395 31.25 39.45 31.25H40.55Z" fill="#999999"/>
</svg>
