<svg width="32" height="32" viewBox="0 0 32 32" fill="none" xmlns="http://www.w3.org/2000/svg">
<circle cx="16" cy="16" r="15.25" stroke="black" stroke-opacity="0.85" stroke-width="1.5"/>
<path d="M13.5 19L13.5 16" stroke="black" stroke-opacity="0.85" stroke-width="1.5" stroke-linecap="round"/>
<path d="M18.5 19L18.5 16" stroke="black" stroke-opacity="0.85" stroke-width="1.5" stroke-linecap="round"/>
<path d="M7 11H25V11C23.5955 11 22.8933 11 22.3889 11.3371C22.1705 11.483 21.983 11.6705 21.8371 11.8889C21.5 12.3933 21.5 13.0955 21.5 14.5V20C21.5 21.8856 21.5 22.8284 20.9142 23.4142C20.3284 24 19.3856 24 17.5 24H14.5C12.6144 24 11.6716 24 11.0858 23.4142C10.5 22.8284 10.5 21.8856 10.5 20V14.5C10.5 13.0955 10.5 12.3933 10.1629 11.8889C10.017 11.6705 9.82952 11.483 9.61114 11.3371C9.10669 11 8.40446 11 7 11V11Z" stroke="black" stroke-opacity="0.85" stroke-width="1.5" stroke-linecap="round"/>
<path d="M13.5 8.00024C13.5 8.00024 14 7 16 7C18 7 18.5 8 18.5 8" stroke="black" stroke-opacity="0.85" stroke-width="1.5" stroke-linecap="round"/>
</svg>
