<svg width="24" height="24" viewBox="0 0 24 24" fill="none" xmlns="http://www.w3.org/2000/svg">
<circle cx="12" cy="12" r="11" fill="white"/>
<path d="M12 1C18.0751 1 23 5.92487 23 12C23 18.0751 18.0751 23 12 23C5.92487 23 1 18.0751 1 12C1 5.92487 5.92487 1 12 1ZM12 2.5C6.75329 2.5 2.5 6.75329 2.5 12C2.5 17.2467 6.75329 21.5 12 21.5C17.2467 21.5 21.5 17.2467 21.5 12C21.5 6.75329 17.2467 2.5 12 2.5ZM12.75 7.45V11.25H16.55C16.6605 11.25 16.75 11.3395 16.75 11.45V12.55C16.75 12.6605 16.6605 12.75 16.55 12.75H12.75V16.55C12.75 16.6605 12.6605 16.75 12.55 16.75H11.45C11.3395 16.75 11.25 16.6605 11.25 16.55V12.75H7.45C7.33954 12.75 7.25 12.6605 7.25 12.55V11.45C7.25 11.3395 7.33954 11.25 7.45 11.25H11.25V7.45C11.25 7.33954 11.3395 7.25 11.45 7.25H12.55C12.6605 7.25 12.75 7.33954 12.75 7.45Z" fill="#FFC502"/>
</svg>
