<svg width="24" height="24" viewBox="0 0 24 24" fill="none" xmlns="http://www.w3.org/2000/svg">
<circle cx="12" cy="12" r="11" fill="#FFC502"/>
<path d="M12 1C18.0751 1 23 5.92487 23 12C23 18.0751 18.0751 23 12 23C5.92487 23 1 18.0751 1 12C1 5.92487 5.92487 1 12 1ZM12 2.5C6.75329 2.5 2.5 6.75329 2.5 12C2.5 17.2467 6.75329 21.5 12 21.5C17.2467 21.5 21.5 17.2467 21.5 12C21.5 6.75329 17.2467 2.5 12 2.5ZM17.9699 8.84101L11.6716 15.1391C11.3787 15.432 10.9038 15.432 10.6109 15.1391L10.5724 15.0981C10.5178 15.0663 10.4663 15.0269 10.4194 14.9801L6.7807 11.341C6.7026 11.2629 6.7026 11.1363 6.78071 11.0582C6.81822 11.0207 6.86908 10.9996 6.92212 10.9996H8.47748C8.53052 10.9996 8.58139 11.0207 8.61889 11.0582L11.125 13.5641L16.1312 8.55816C16.1687 8.52065 16.2196 8.49958 16.2727 8.49958H17.8285C17.9389 8.49958 18.0285 8.58913 18.0285 8.69958C18.0285 8.75263 18.0074 8.8035 17.9699 8.84101Z" fill="white"/>
<circle cx="12" cy="12" r="10" stroke="#FFC502" stroke-width="2"/>
</svg>
