<svg width="24" height="24" viewBox="0 0 24 24" fill="none" xmlns="http://www.w3.org/2000/svg">
<circle cx="12" cy="12" r="11" fill="white"/>
<path d="M12 1C18.0751 1 23 5.92487 23 12C23 18.0751 18.0751 23 12 23C5.92487 23 1 18.0751 1 12C1 5.92487 5.92487 1 12 1ZM12 2.5C6.75329 2.5 2.5 6.75329 2.5 12C2.5 17.2467 6.75329 21.5 12 21.5C17.2467 21.5 21.5 17.2467 21.5 12C21.5 6.75329 17.2467 2.5 12 2.5ZM9.1875 8.05858L11.9999 10.871L14.8123 8.05858C14.8499 8.02107 14.9007 8 14.9538 8H16.51C16.6205 8 16.71 8.08954 16.71 8.2C16.71 8.25305 16.689 8.30392 16.6514 8.34143L13.0604 11.932L16.7875 15.6586C16.8656 15.7367 16.8656 15.8633 16.7875 15.9414C16.75 15.9789 16.6991 16 16.6461 16H15.0898C15.0368 16 14.9859 15.9789 14.9484 15.9414L11.9999 12.9925L9.05055 15.9414C9.01305 15.9789 8.96218 16 8.90914 16H7.35381C7.24335 16 7.15381 15.9105 7.15381 15.8C7.15381 15.747 7.17488 15.6961 7.21239 15.6586L10.9389 11.932L7.34835 8.34142C7.27024 8.26332 7.27024 8.13668 7.34835 8.05858C7.38585 8.02107 7.43673 8 7.48977 8H9.04608C9.09912 8 9.14999 8.02107 9.1875 8.05858Z" fill="#FFC502"/>
<circle cx="12" cy="12" r="10" stroke="#FFC502" stroke-width="2"/>
</svg>
