<svg width="32" height="32" viewBox="0 0 32 32" fill="none" xmlns="http://www.w3.org/2000/svg">
<path d="M13.6882 21.4977C13.2527 22.2522 12.3189 22.4923 11.6162 22.0865C10.9135 21.6806 10.6545 20.7516 11.0899 19.9971C11.5475 19.2044 12.5636 18.4454 13.6136 17.8497C13.825 17.7297 14.0307 17.6203 14.2235 17.5224C14.2326 17.7672 14.2378 18.0328 14.2363 18.3096C14.233 18.9103 14.1978 19.5452 14.1055 20.1255C14.0113 20.7184 13.8678 21.1865 13.6882 21.4977Z" stroke="black" stroke-opacity="0.85" stroke-width="2"/>
<path d="M20.291 20.4799C19.8556 21.2344 18.9218 21.4745 18.2191 21.0687C17.5164 20.6628 17.2574 19.7337 17.6928 18.9793C18.1503 18.1866 19.1664 17.4276 20.2165 16.8318C20.4279 16.7119 20.6335 16.6025 20.8264 16.5045C20.8354 16.7494 20.8407 17.015 20.8392 17.2918C20.8359 17.8925 20.8006 18.5273 20.7084 19.1076C20.6142 19.7006 20.4707 20.1687 20.291 20.4799Z" stroke="black" stroke-opacity="0.85" stroke-width="2"/>
<path d="M22.5452 26.613C22.1098 27.3674 21.176 27.6076 20.4733 27.2017C19.7706 26.7959 19.5116 25.8668 19.947 25.1123C20.4045 24.3196 21.4207 23.5607 22.4707 22.9649C22.6821 22.8449 22.8877 22.7355 23.0806 22.6376C23.0896 22.8824 23.0949 23.148 23.0934 23.4248C23.0901 24.0255 23.0548 24.6604 22.9626 25.2407C22.8684 25.8337 22.7249 26.3017 22.5452 26.613Z" stroke="black" stroke-opacity="0.85" stroke-width="2"/>
<path d="M15.8269 28.2148C15.3915 28.9692 14.4577 29.2094 13.755 28.8035C13.0522 28.3977 12.7932 27.4686 13.2287 26.7142C13.6862 25.9214 14.7023 25.1625 15.7524 24.5667C15.9638 24.4467 16.1694 24.3373 16.3623 24.2394C16.3713 24.4842 16.3766 24.7499 16.3751 25.0266C16.3718 25.6273 16.3365 26.2622 16.2443 26.8425C16.1501 27.4355 16.0065 27.9035 15.8269 28.2148Z" stroke="black" stroke-opacity="0.85" stroke-width="2"/>
<path fill-rule="evenodd" clip-rule="evenodd" d="M7.99997 22.9107C4.44935 21.1323 1.99997 17.3628 1.99997 13C1.99997 6.92487 6.74946 2 12.6083 2C17.4689 2 21.5661 5.38977 22.821 10.0139C22.9626 10.0047 23.1054 10 23.2493 10C26.9776 10 30 13.134 30 17C30 19.8501 28.3572 22.3025 26 23.3944V21.0745C27.1984 20.1797 28 18.7105 28 17C28 14.1696 25.8053 12 23.2493 12C22.5272 12 21.8339 12.1732 21.2108 12.4855C21.179 11.9037 21.0937 11.3367 20.9598 10.7899L20.9568 10.7911C20.0091 6.85004 16.5838 4 12.6083 4C7.92176 4 3.99997 7.96046 3.99997 13C3.99997 16.2291 5.61016 19.0152 7.99997 20.6003V22.9107Z" fill="black" fill-opacity="0.85"/>
</svg>
