<svg width="32" height="32" viewBox="0 0 32 32" fill="none" xmlns="http://www.w3.org/2000/svg">
<path fill-rule="evenodd" clip-rule="evenodd" d="M15.6667 5.33325C17.4989 5.33325 18.9841 6.8065 18.9841 8.62385V17.0326C20.7921 18.1375 22 20.1198 22 22.3845C22 25.854 19.1645 28.6666 15.6667 28.6666C12.1689 28.6666 9.33334 25.854 9.33334 22.3845C9.33334 20.1198 10.5412 18.1375 12.3492 17.0326V8.62385C12.3492 6.8065 13.8345 5.33325 15.6667 5.33325ZM13.8572 17.9461C12.0887 18.6562 10.8413 20.3758 10.8413 22.3845C10.8413 25.0279 13.0017 27.1709 15.6667 27.1709C18.3317 27.1709 20.4921 25.0279 20.4921 22.3845C20.4921 20.3758 19.2446 18.6562 17.4762 17.9461V8.62385C17.4762 7.63257 16.666 6.82898 15.6667 6.82898C14.6673 6.82898 13.8572 7.63257 13.8572 8.62385V17.9461Z" fill="#231815"/>
<path d="M20 9.99992C20 9.63173 20.2985 9.33325 20.6667 9.33325H24.6667C25.0349 9.33325 25.3333 9.63173 25.3333 9.99992C25.3333 10.3681 25.0349 10.6666 24.6667 10.6666H20.6667C20.2985 10.6666 20 10.3681 20 9.99992Z" fill="#231815"/>
<rect x="22" y="12.6665" width="5.33333" height="1.33333" rx="0.666667" transform="rotate(-90 22 12.6665)" fill="#231815"/>
<path fill-rule="evenodd" clip-rule="evenodd" d="M15.6667 8.6665C16.219 8.6665 16.6667 9.11422 16.6667 9.6665V18.4592C18.3919 18.9032 19.6667 20.4693 19.6667 22.3332C19.6667 24.5423 17.8758 26.3332 15.6667 26.3332C13.4575 26.3332 11.6667 24.5423 11.6667 22.3332C11.6667 20.4693 12.9415 18.9032 14.6667 18.4592V9.6665C14.6667 9.11422 15.1144 8.6665 15.6667 8.6665Z" fill="black" fill-opacity="0.85"/>
</svg>
