<svg width="32" height="32" viewBox="0 0 32 32" fill="none" xmlns="http://www.w3.org/2000/svg">
<path fill-rule="evenodd" clip-rule="evenodd" d="M24 23.9572C27.375 23.57 30 20.6028 30 17C30 13.134 26.9776 10 23.2493 10C23.1054 10 22.9626 10.0047 22.821 10.0139C21.5661 5.38977 17.469 2 12.6083 2C6.74949 2 2 6.92487 2 13C2 18.1419 5.40237 22.4598 10 23.665V21.5772C6.55261 20.4291 4 17.0657 4 13C4 7.96046 7.92179 4 12.6083 4C16.5839 4 20.0091 6.85004 20.9569 10.7911L20.9599 10.7899C21.0937 11.3367 21.1791 11.9037 21.2108 12.4855C21.8339 12.1732 22.5272 12 23.2493 12C25.8053 12 28 14.1696 28 17C28 19.5486 26.2205 21.5615 24 21.937V23.9572Z" fill="black" fill-opacity="0.85"/>
<path d="M15.0021 27.456C15.0024 28.3271 14.3139 29.0021 13.5024 29.0021C12.6909 29.0021 12.0019 28.3271 12.0017 27.456C12.0014 26.5408 12.5017 25.3753 13.113 24.3343C13.2361 24.1247 13.3595 23.9271 13.4775 23.7458C13.6078 23.9533 13.7452 24.1807 13.8823 24.4211C14.1799 24.943 14.4668 25.5103 14.6772 26.059C14.8922 26.6196 15.002 27.0967 15.0021 27.456Z" stroke="black" stroke-opacity="0.85" stroke-width="2"/>
<path d="M21.0021 24.456C21.0024 25.3271 20.3139 26.0021 19.5024 26.0021C18.6909 26.0021 18.0019 25.3271 18.0017 24.456C18.0014 23.5408 18.5017 22.3753 19.113 21.3343C19.2361 21.1247 19.3595 20.9271 19.4775 20.7458C19.6078 20.9533 19.7452 21.1807 19.8823 21.4211C20.1799 21.943 20.4668 22.5103 20.6772 23.059C20.8922 23.6196 21.002 24.0967 21.0021 24.456Z" stroke="black" stroke-opacity="0.85" stroke-width="2"/>
</svg>
