<svg width="32" height="32" viewBox="0 0 32 32" fill="none" xmlns="http://www.w3.org/2000/svg">
<g clip-path="url(#clip0_127_2338)">
<path fill-rule="evenodd" clip-rule="evenodd" d="M24 23.9572C27.375 23.57 30 20.6028 30 17C30 13.134 26.9776 10 23.2493 10C23.1054 10 22.9626 10.0047 22.821 10.0139C21.5661 5.38977 17.469 2 12.6083 2C6.74949 2 2 6.92487 2 13C2 18.1419 5.40237 22.4598 10 23.665V21.5772C6.55261 20.4291 4 17.0657 4 13C4 7.96046 7.92179 4 12.6083 4C16.5839 4 20.0091 6.85004 20.9569 10.7911L20.9599 10.7899C21.0937 11.3367 21.1791 11.9037 21.2108 12.4855C21.8339 12.1732 22.5272 12 23.2493 12C25.8053 12 28 14.1696 28 17C28 19.5486 26.2205 21.5615 24 21.937V23.9572Z" fill="black" fill-opacity="0.85"/>
<path d="M15.0021 29.456C15.0024 30.3271 14.3139 31.0021 13.5024 31.0021C12.6909 31.0021 12.0019 30.3271 12.0017 29.456C12.0014 28.5408 12.5017 27.3753 13.113 26.3343C13.2361 26.1247 13.3595 25.9271 13.4775 25.7458C13.6078 25.9533 13.7452 26.1807 13.8823 26.4211C14.1799 26.943 14.4668 27.5103 14.6772 28.059C14.8922 28.6196 15.002 29.0967 15.0021 29.456Z" stroke="black" stroke-opacity="0.85" stroke-width="2"/>
<path d="M21.0021 26.456C21.0024 27.3271 20.3139 28.0021 19.5024 28.0021C18.6909 28.0021 18.0019 27.3271 18.0017 26.456C18.0014 25.5408 18.5017 24.3753 19.113 23.3343C19.2361 23.1247 19.3595 22.9271 19.4775 22.7458C19.6078 22.9533 19.7452 23.1807 19.8823 23.4211C20.1799 23.943 20.4668 24.5103 20.6772 25.059C20.8922 25.6196 21.002 26.0967 21.0021 26.456Z" stroke="black" stroke-opacity="0.85" stroke-width="2"/>
<path d="M17.0021 20.456C17.0024 21.3271 16.3139 22.0021 15.5024 22.0021C14.6909 22.0021 14.0019 21.3271 14.0017 20.456C14.0014 19.5408 14.5017 18.3753 15.113 17.3343C15.2361 17.1247 15.3595 16.9271 15.4775 16.7458C15.6078 16.9533 15.7452 17.1807 15.8823 17.4211C16.1799 17.943 16.4668 18.5103 16.6772 19.059C16.8922 19.6196 17.002 20.0967 17.0021 20.456Z" stroke="black" stroke-opacity="0.85" stroke-width="2"/>
</g>
<defs>
<clipPath id="clip0_127_2338">
<rect width="32" height="32" fill="white"/>
</clipPath>
</defs>
</svg>
