<svg width="32" height="32" viewBox="0 0 32 32" fill="none" xmlns="http://www.w3.org/2000/svg">
<path fill-rule="evenodd" clip-rule="evenodd" d="M12.7671 29.9988C12.7143 29.9996 12.6613 30 12.6083 30C6.74949 30 2 25.0751 2 19C2 12.9249 6.74949 8 12.6083 8C17.469 8 21.5661 11.3898 22.821 16.0139C22.9626 16.0047 23.1054 16 23.2493 16C26.9776 16 30 19.134 30 23C30 26.866 26.9776 30 23.2493 30C23.1658 30 23.0827 29.9984 23 29.9953V30H12.7671V29.9988ZM12.7671 28H23H23.3029V27.9996C25.8359 27.9695 28 25.8105 28 23C28 20.1696 25.8053 18 23.2493 18C22.5272 18 21.8339 18.1732 21.2108 18.4855C21.1791 17.9037 21.0937 17.3367 20.9599 16.7899L20.9569 16.7911C20.0091 12.85 16.5839 10 12.6083 10C7.92179 10 4 13.9605 4 19C4 24.0395 7.92179 28 12.6083 28L12.652 27.9999V28H12.7671Z" fill="black" fill-opacity="0.85"/>
<path fill-rule="evenodd" clip-rule="evenodd" d="M9.34967 8.68417C9.87284 4.90771 13.1141 2 17.0345 2C20.3494 2 23.1787 4.07884 24.2899 7.00394C24.3596 7.00132 24.4296 7 24.5 7C27.5375 7 30 9.46243 30 12.5C30 14.59 28.8342 16.4078 27.1174 17.3385C25.9619 16.4967 24.5389 16.0001 23 16.0001L22.9664 16.0002C22.9664 16.0001 22.9664 16.0001 22.9664 16H24.5H24.5602V15.9995C26.4654 15.9673 28 14.4129 28 12.5C28 10.567 26.433 9 24.5 9C23.8509 9 23.2432 9.17666 22.7221 9.48451C22.7206 8.92577 22.6357 8.38663 22.4793 7.87885C21.7001 5.62147 19.5567 4 17.0345 4C14.3729 4 12.133 5.80576 11.4731 8.25902C10.7416 8.3306 10.0313 8.47475 9.34967 8.68417Z" fill="black" fill-opacity="0.85"/>
</svg>
