<svg width="32" height="32" viewBox="0 0 32 32" fill="none" xmlns="http://www.w3.org/2000/svg">
<path fill-rule="evenodd" clip-rule="evenodd" d="M12.5 28L12.5411 27.9999V28L12.6971 28L22.9973 28H23C23.0014 28 23.0028 28 23.0043 28C25.6983 27.9976 28 25.7147 28 22.75C28 19.7838 25.6958 17.5 23 17.5C22.2698 17.5 21.5684 17.6675 20.9337 17.9708C20.8474 17.2839 20.685 16.6218 20.4555 15.9939L20.4577 15.993C19.2369 12.6095 16.0973 10.25 12.5 10.25C7.87115 10.25 4 14.1567 4 19.125C4 24.0933 7.87115 28 12.5 28ZM23.2414 29.9958C26.9956 29.864 30 26.6704 30 22.75C30 18.7459 26.866 15.5 23 15.5C22.8017 15.5 22.6053 15.5085 22.4111 15.5253C20.9766 11.2883 17.0809 8.25 12.5 8.25C6.70101 8.25 2 13.1189 2 19.125C2 25.1311 6.70101 30 12.5 30C12.5658 30 12.6315 29.9994 12.6971 29.9981V30H22.9949C22.9966 30 22.9983 30 23 30C23.0017 30 23.0034 30 23.0051 30H23.2414V29.9958Z" fill="black" fill-opacity="0.85"/>
<path fill-rule="evenodd" clip-rule="evenodd" d="M23.1351 16.5772C23.7766 15.6689 24.1536 14.5604 24.1536 13.3638C24.1536 10.2843 21.6571 7.78784 18.5776 7.78784C16.6217 7.78784 14.901 8.79489 13.9057 10.3188C13.217 10.1574 12.499 10.0721 11.761 10.0721L11.7522 10.0721C12.9772 7.53678 15.5731 5.78784 18.5776 5.78784C22.7617 5.78784 26.1536 9.17971 26.1536 13.3638C26.1536 14.7196 25.7974 15.9922 25.1736 17.0931C24.5431 16.8111 23.8565 16.632 23.1351 16.5772Z" fill="black" fill-opacity="0.85"/>
<path fill-rule="evenodd" clip-rule="evenodd" d="M17.6361 4.43513V2H19.6361V4.43513H17.6361ZM27.5649 12.3639H30V14.3639H27.5649L27.5649 12.3639ZM27.9775 6.81594L25.8687 8.03351L26.8687 9.76556L28.9775 8.54799L27.9775 6.81594ZM22.2345 5.13133L23.4521 3.02245L25.1841 4.02245L23.9666 6.13133L22.2345 5.13133ZM12.0881 4.02245L13.3056 6.13133L15.0377 5.13133L13.8201 3.02245L12.0881 4.02245Z" fill="black" fill-opacity="0.85"/>
</svg>
