<svg width="32" height="32" viewBox="0 0 32 32" fill="none" xmlns="http://www.w3.org/2000/svg">
<path fill-rule="evenodd" clip-rule="evenodd" d="M9 23.3473C4.91752 21.8163 2 17.7615 2 13C2 6.92487 6.74949 2 12.6083 2C17.469 2 21.5661 5.38977 22.821 10.0139C22.9626 10.0047 23.1054 10 23.2493 10C26.9776 10 30 13.134 30 17C30 20.866 26.9776 24 23.2493 24C23.1658 24 23.0827 23.9984 23 23.9953V22H23.3029V21.9996C25.8359 21.9695 28 19.8105 28 17C28 14.1696 25.8053 12 23.2493 12C22.5272 12 21.8339 12.1732 21.2108 12.4855C21.1791 11.9037 21.0937 11.3367 20.9599 10.7899L20.9569 10.7911C20.0091 6.85004 16.5839 4 12.6083 4C7.92179 4 4 7.96046 4 13C4 16.6616 6.0703 19.7535 9 21.1706V23.3473Z" fill="black" fill-opacity="0.85"/>
<path d="M18 17L14 23H19L14.6667 29" stroke="black" stroke-opacity="0.85" stroke-width="2"/>
<path d="M22.001 28.4091C22.0012 28.7917 21.7228 29 21.5012 29C21.2797 29 21.0012 28.7917 21.001 28.4091C21.0009 27.9966 21.196 27.446 21.4831 26.8896C21.6145 27.1438 21.7352 27.4061 21.8279 27.6579C21.9502 27.9899 22.001 28.2434 22.001 28.4091Z" stroke="black" stroke-opacity="0.85" stroke-width="2"/>
<path d="M11.001 28.4091C11.0012 28.7917 10.7228 29 10.5012 29C10.2797 29 10.0012 28.7917 10.001 28.4091C10.0009 27.9966 10.196 27.446 10.4831 26.8896C10.6145 27.1438 10.7352 27.4061 10.8279 27.6579C10.9502 27.9899 11.001 28.2434 11.001 28.4091Z" stroke="black" stroke-opacity="0.85" stroke-width="2"/>
</svg>
