<svg width="40" height="40" viewBox="0 0 40 40" fill="none" xmlns="http://www.w3.org/2000/svg">
<circle cx="20" cy="20" r="20" fill="#54400E"/>
<path d="M12.7713 12.7186C16.4614 9.09381 22.4407 9.09381 26.1308 12.7186C29.5841 16.1107 29.8104 21.4761 26.808 25.127L30.2052 28.4644C30.481 28.7354 30.4849 29.1786 30.214 29.4543M12.7713 12.7186L29.8573 29.1039M12.7713 12.7186C9.07622 16.3482 9.07622 22.2368 12.7713 25.8665C16.1036 29.1397 21.3008 29.4565 24.9948 26.8201M12.7713 12.7186L30.2051 29.4632M30.214 29.4543L29.8573 29.1039M30.214 29.4543L30.214 29.4543L29.8573 29.1039M30.214 29.4543L30.2051 29.4632L29.8548 29.1065M29.8573 29.1039L29.8548 29.1065M29.8548 29.1065L30.2051 29.4632M29.8548 29.1065L30.2051 29.4632M30.2051 29.4632L29.4356 30.219C29.1633 30.4865 28.7269 30.4865 28.4546 30.219L24.9948 26.8201M24.9948 26.8201C25.1141 26.735 25.2319 26.6467 25.3479 26.5554L25.0388 26.1624L24.6884 26.5191L24.9948 26.8201ZM14.527 24.1169C11.8135 21.4514 11.8135 17.1336 14.527 14.4682C17.2455 11.7978 21.6567 11.7978 24.3752 14.4682C27.0887 17.1336 27.0887 21.4514 24.3752 24.1169C21.6567 26.7872 17.2455 26.7872 14.527 24.1169Z" fill="white" stroke="white"/>
</svg>
