<svg width="44" height="44" viewBox="0 0 44 44" fill="none" xmlns="http://www.w3.org/2000/svg">
<rect width="44" height="44" rx="22" fill="#EEEEEE"/>
<path d="M22.2375 10.333H21.7618L21.5653 10.3366C18.8837 10.442 16.7639 12.6529 16.764 15.3444V18.157L16.7703 18.4045V18.4045C16.8329 19.7234 17.3923 20.9692 18.3354 21.8904L19.5892 23.1153L19.6699 23.2044C19.8225 23.3907 19.906 23.6247 19.906 23.8678V24.0388L19.8979 24.1621C19.8571 24.4919 19.6561 24.78 19.3612 24.9316L11.4736 28.9764L11.3372 29.0529C10.7139 29.4338 10.3334 30.1128 10.333 30.8448V31.1958L10.3384 31.3308C10.4066 32.1715 11.1084 32.833 11.9645 32.833H32.0348C32.9355 32.833 33.6658 32.101 33.6663 31.1976V30.8466C33.6663 30.0573 33.2266 29.3346 32.5257 28.9764L24.6381 24.9316C24.3035 24.7601 24.093 24.4148 24.0934 24.0379V23.8669C24.0934 23.5842 24.2083 23.3133 24.4102 23.1153L25.6639 21.8904C26.6681 20.9094 27.2345 19.563 27.2344 18.157V15.3444V15.3444C27.2344 12.5767 24.9972 10.333 22.2375 10.333Z" fill="#CCCCCC"/>
</svg>
