<svg width="18" height="18" viewBox="0 0 18 18" fill="none" xmlns="http://www.w3.org/2000/svg">
<path d="M3.97764 3.04446L9.06576 8.18269L14.1536 3.04446C14.1817 3.01601 14.2201 3 14.2601 3H15.4135C15.4963 3 15.5635 3.06716 15.5635 3.15C15.5635 3.18953 15.5479 3.22746 15.52 3.25554L9.85345 8.97818L15.5628 14.7445C15.6211 14.8033 15.6206 14.8983 15.5617 14.9566C15.5336 14.9844 15.4957 15 15.4562 15H14.3032C14.2632 15 14.2248 14.984 14.1966 14.9555L9.06576 9.77368L3.93457 14.9555C3.9064 14.984 3.86802 15 3.82798 15H2.67539C2.59255 15 2.52539 14.9328 2.52539 14.85C2.52539 14.8105 2.54099 14.7725 2.5688 14.7445L8.27808 8.97818L2.61153 3.25554C2.55324 3.19668 2.5537 3.1017 2.61257 3.04341C2.64066 3.0156 2.67859 3 2.71811 3H3.87106C3.91109 3 3.94947 3.01601 3.97764 3.04446Z" fill="#999999"/>
</svg>
