<svg width="19" height="19" viewBox="0 0 19 19" fill="none" xmlns="http://www.w3.org/2000/svg">
<path d="M2.57636 11.8645L3.20939 12.2229L2.57636 11.8645C2.45735 12.0747 2.40029 12.3048 2.34723 12.5189C2.3429 12.5364 2.33859 12.5537 2.33428 12.571L1.47451 16.0101C1.47189 16.0205 1.46922 16.0312 1.4665 16.042C1.42867 16.1928 1.38229 16.3777 1.36665 16.5376C1.34897 16.7183 1.34739 17.0749 1.63649 17.364C1.92558 17.653 2.28209 17.6515 2.4628 17.6338C2.62273 17.6181 2.80756 17.5718 2.95834 17.534C2.96919 17.5312 2.97987 17.5286 2.99035 17.5259L6.42946 16.6662C6.4467 16.6618 6.46407 16.6575 6.48154 16.6532C6.6956 16.6001 6.92576 16.5431 7.13596 16.4241C7.34617 16.3051 7.51351 16.137 7.66915 15.9808C7.68185 15.968 7.69447 15.9554 7.70704 15.9428L16.6673 6.9825L16.699 6.95087C17.0051 6.64485 17.2857 6.36428 17.4833 6.10533C17.7008 5.82018 17.887 5.47499 17.887 5.03796C17.887 4.60094 17.7008 4.25575 17.4833 3.97059C17.2857 3.71163 17.005 3.43106 16.699 3.12504L16.6673 3.09342L15.907 2.3331L15.3767 2.86343L15.907 2.3331L15.8754 2.30145C15.5694 1.99537 15.2888 1.71474 15.0298 1.51717C14.7447 1.2996 14.3995 1.11343 13.9625 1.11343C13.5254 1.11343 13.1803 1.2996 12.8951 1.51717C12.6361 1.71474 12.3556 1.99538 12.0496 2.30147L12.0179 2.3331L3.05763 11.2934C3.04507 11.306 3.0324 11.3186 3.01964 11.3313C2.86339 11.4869 2.69538 11.6543 2.57636 11.8645Z" stroke="#FFC502" stroke-width="1.5"/>
<path d="M10.8887 3.37036L14.4442 1L17.9998 4.55554L15.6294 8.11109L10.8887 3.37036Z" fill="#FFC502"/>
</svg>
