<svg width="15" height="15" viewBox="0 0 15 15" fill="none" xmlns="http://www.w3.org/2000/svg">
<path d="M1.63648 13.3639L2.16682 12.8336L1.63649 13.3639C1.92558 13.653 2.28209 13.6514 2.4628 13.6337C2.62275 13.6181 2.8076 13.5717 2.95839 13.5339C2.96923 13.5312 2.97989 13.5285 2.99036 13.5259L5.23323 12.9651C5.25046 12.9608 5.26783 12.9565 5.2853 12.9522C5.49936 12.8991 5.72952 12.8421 5.93973 12.7231C6.14993 12.6041 6.31727 12.436 6.47291 12.2798C6.48561 12.267 6.49824 12.2544 6.5108 12.2418L12.848 5.90459L12.8764 5.8762C13.1521 5.60051 13.4051 5.3476 13.5872 5.11495C13.7865 4.86037 13.9643 4.55336 13.9942 4.16136C14.0009 4.07291 14.0009 3.98406 13.9942 3.89559C13.9643 3.5036 13.7865 3.19659 13.5872 2.94201C13.4051 2.70936 13.1521 2.45645 12.8764 2.18075L12.848 2.15237L12.8196 2.12399C12.5439 1.84823 12.291 1.59526 12.0584 1.41316C11.8038 1.2139 11.4968 1.03603 11.1048 1.00618L11.0478 1.75401L11.1048 1.00618C11.0163 0.999444 10.9275 0.999444 10.839 1.00618L10.896 1.75401L10.839 1.00618C10.447 1.03603 10.14 1.2139 9.88542 1.41316C9.65276 1.59526 9.39985 1.84823 9.12415 2.12399C9.11472 2.13342 9.10526 2.14288 9.09577 2.15237L2.75857 8.48957L3.2889 9.0199L2.75857 8.48957C2.74601 8.50213 2.73334 8.51475 2.72058 8.52746C2.56433 8.68309 2.39632 8.85044 2.2773 9.06064C2.15829 9.27084 2.10123 9.50101 2.04817 9.71507C2.04384 9.73254 2.03953 9.7499 2.03522 9.76714L1.47451 12.01C1.47189 12.0205 1.46921 12.0311 1.4665 12.042C1.42867 12.1928 1.38229 12.3776 1.36665 12.5376C1.34897 12.7183 1.34739 13.0748 1.63648 13.3639Z" stroke="black" stroke-opacity="0.85" stroke-width="1.5"/>
<path d="M8.66699 2.77778L11.3337 1L14.0003 3.66667L12.2225 6.33333L8.66699 2.77778Z" fill="black" fill-opacity="0.85"/>
</svg>
