<svg width="96" height="60" viewBox="0 0 96 60" fill="none" xmlns="http://www.w3.org/2000/svg">
<path d="M48 60.0005C74.5097 60.0005 96 55.4141 96 49.7566C96 44.099 74.5097 39.5127 48 39.5127C21.4903 39.5127 0 44.099 0 49.7566C0 55.4141 21.4903 60.0005 48 60.0005Z" fill="#F5F5F5"/>
<path fill-rule="evenodd" clip-rule="evenodd" d="M82.5 20.137L67.281 3.30484C66.5505 2.15753 65.484 1.46387 64.3605 1.46387H31.6395C30.516 1.46387 29.4495 2.15753 28.719 3.30338L13.5 20.1385V33.659H82.5V20.137Z" stroke="#D9D9D9" stroke-width="0.487805"/>
<path fill-rule="evenodd" clip-rule="evenodd" d="M62.4195 24.7775C62.4195 22.4288 63.9105 20.4897 65.76 20.4883H82.5V47.0302C82.5 50.1371 80.52 52.6834 78.075 52.6834H17.925C15.48 52.6834 13.5 50.1356 13.5 47.0302V20.4883H30.24C32.0895 20.4883 33.5805 22.4244 33.5805 24.7732V24.8054C33.5805 27.1541 35.088 29.0507 36.936 29.0507H59.064C60.912 29.0507 62.4195 27.1366 62.4195 24.7878V24.7775Z" fill="#FAFAFA" stroke="#D9D9D9" stroke-width="0.487805"/>
</svg>
