<svg width="18" height="24" viewBox="0 0 12 16" fill="none" xmlns="http://www.w3.org/2000/svg">
<path fill-rule="evenodd" clip-rule="evenodd" d="M11.8723 6.97914C11.8723 3.36467 9.25218 0.43457 6.02012 0.43457C2.78807 0.43457 0.167969 3.36467 0.167969 6.97914C0.167969 7.87391 0.328533 8.72674 0.619198 9.50356C1.82478 13.1846 6.05088 15.7052 6.05088 15.7052C6.05088 15.7052 11.2422 12.609 11.7588 8.26816C11.8332 7.85141 11.8723 7.42037 11.8723 6.97914Z" fill="white"/>
<path fill-rule="evenodd" clip-rule="evenodd" d="M10.9389 8.15834L10.9336 8.18839L10.93 8.21877C10.7136 10.0567 9.4875 11.7406 8.16437 13.0333C7.51965 13.6632 6.88743 14.1658 6.41575 14.511C6.27872 14.6113 6.15582 14.6978 6.05079 14.7699C5.981 14.722 5.9033 14.6677 5.8188 14.6072C5.42409 14.3247 4.88545 13.9108 4.31231 13.3875C3.14424 12.321 1.92851 10.886 1.40414 9.26736L1.39764 9.24729L1.39034 9.22758C1.14168 8.55574 1.00391 7.81742 1.00391 7.04032C1.00391 3.90821 3.24971 1.36914 6.02004 1.36914C8.79037 1.36914 11.0362 3.90821 11.0362 7.04032C11.0362 7.42389 11.0026 7.79764 10.9389 8.15834Z" fill="#FFA553"/>
<path d="M8.2498 6.9795C8.2498 5.60256 7.25167 4.48633 6.02041 4.48633C4.78915 4.48633 3.79102 5.60256 3.79102 6.9795C3.79102 8.35644 4.78915 9.47267 6.02041 9.47267C7.25167 9.47267 8.2498 8.35644 8.2498 6.9795Z" fill="white"/>
</svg>
