<svg width="59" height="59" viewBox="0 0 59 59" fill="none" xmlns="http://www.w3.org/2000/svg">
<path d="M29.3348 2.44531C44.1859 2.44531 56.2252 14.4846 56.2252 29.3357C56.2252 44.1869 44.1859 56.2261 29.3348 56.2261C14.4836 56.2261 2.44434 44.1869 2.44434 29.3357C2.44434 14.4846 14.4836 2.44531 29.3348 2.44531ZM29.3348 6.11219C16.5087 6.11219 6.11121 16.5097 6.11121 29.3357C6.11121 42.1617 16.5087 52.5593 29.3348 52.5593C42.1608 52.5593 52.5583 42.1617 52.5583 29.3357C52.5583 16.5097 42.1608 6.11219 29.3348 6.11219ZM30.6793 37.8918C30.9493 37.8918 31.1682 38.1107 31.1682 38.3807V41.0697C31.1682 41.3397 30.9493 41.5586 30.6793 41.5586H27.9902C27.7202 41.5586 27.5013 41.3397 27.5013 41.0697V38.3807C27.5013 38.1107 27.7202 37.8918 27.9902 37.8918H30.6793ZM30.6793 17.1128C30.9493 17.1128 31.1682 17.3317 31.1682 17.6017V33.736C31.1682 34.006 30.9493 34.2249 30.6793 34.2249H27.9902C27.7202 34.2249 27.5013 34.006 27.5013 33.736V17.6017C27.5013 17.3317 27.7202 17.1128 27.9902 17.1128H30.6793Z" fill="#FFC502"/>
</svg>
