<svg width="32" height="32" viewBox="0 0 32 32" fill="none" xmlns="http://www.w3.org/2000/svg">
<g id="User_cicrle_light">
<circle id="Ellipse 47" cx="16" cy="16" r="12" fill="#FFC502" stroke="#222222"/>
<circle id="Ellipse 46" cx="16" cy="13.3335" r="4" fill="white" stroke="#222222" stroke-linecap="round"/>
<path id="Vector 561" d="M9.78569 24.57C9.66687 24.7037 9.76844 24.7462 9.90541 24.8183C10.1723 24.9588 10.4384 25.0817 10.7168 25.1997C10.8862 25.2714 11.0207 25.348 11.1735 25.448C11.4573 25.6335 11.9645 25.6645 12.2953 25.7473C13.5047 26.0496 14.706 26.3658 15.9622 26.3658C16.2544 26.3658 16.5435 26.3976 16.8357 26.4035C17.4163 26.4152 18.0641 26.4865 18.6359 26.3747C19.0516 26.2933 19.4237 26.1424 19.8552 26.1064C20.2664 26.0721 20.7198 26.1028 21.0568 25.8271C21.2207 25.693 21.3475 25.532 21.4869 25.377C21.6446 25.2018 21.7602 24.912 21.8771 24.7075C22.0628 24.3826 21.6858 24.1179 21.4382 23.9803C21.2539 23.8779 21.0781 23.7698 20.8972 23.6655C20.6569 23.5269 20.4095 23.3913 20.1811 23.2332C20.1069 23.1818 20.0628 23.0897 19.9816 23.0536C19.69 22.924 19.5075 22.502 19.2034 22.4151C19.0341 22.3667 18.886 22.2634 18.7068 22.2156C18.5101 22.1631 18.3073 22.1464 18.1083 22.1047C17.3294 21.9417 16.5069 21.8564 15.7117 21.8564C15.2744 21.8564 14.8165 21.9675 14.3793 22.0161C14.1199 22.0449 13.8834 22.1476 13.6299 22.2023C13.2975 22.2741 12.9599 22.3119 12.6279 22.3841C12.322 22.4506 11.9796 22.6049 11.6879 22.7166C11.4538 22.8063 11.1488 22.8665 11.0028 23.0935C10.9108 23.2367 10.7723 23.3214 10.7235 23.497C10.5636 24.0724 11.0463 24.1685 11.5149 24.2508C12.6777 24.4549 13.7771 23.9895 14.9335 23.9714C15.7302 23.959 16.5281 24.0114 17.3257 24.0114C17.8204 24.0114 18.3125 24.0513 18.8066 24.0513C19.1231 24.0513 19.2546 23.9727 19.5227 23.8118" stroke="white" stroke-width="3" stroke-linecap="round"/>
<path id="Ellipse 48" d="M24 24.9412C23.5281 23.5237 22.4883 22.271 21.0419 21.3776C19.5955 20.4843 17.8232 20 16 20C14.1768 20 12.4046 20.4842 10.9581 21.3776C9.51167 22.271 8.47188 23.5236 8 24.9412" stroke="#222222" stroke-linecap="round"/>
<circle id="Ellipse 49" cx="16" cy="16" r="12" stroke="#222222"/>
</g>
</svg>
