<svg width="32" height="32" viewBox="0 0 32 32" fill="none" xmlns="http://www.w3.org/2000/svg">
<g id="Map">
<path id="Vector 372" d="M6 10.0002L11.3333 7.3335V20.6668L7.33333 22.6668H6V10.0002Z" fill="#FFC502"/>
<path id="Vector 373" d="M26 20.6668L20.6667 23.3335V10.0002L24.6667 8.00016H26V20.6668Z" fill="#FFC502"/>
<path id="Vector 326" d="M26 20.3887V8.06161C26 7.72709 25.648 7.50952 25.3488 7.65912L20.8232 9.92188C20.7225 9.97223 20.6066 9.983 20.4984 9.95207L11.5016 7.38158C11.3934 7.35065 11.2775 7.36143 11.1768 7.41178L6.24875 9.87579C6.0963 9.95201 6 10.1078 6 10.2783V22.6054C6 22.9399 6.35204 23.1575 6.65125 23.0079L11.1768 20.7451C11.2775 20.6948 11.3934 20.684 11.5016 20.7149L20.4984 23.2854C20.6066 23.3163 20.7225 23.3056 20.8232 23.2552L25.7512 20.7912C25.9037 20.715 26 20.5592 26 20.3887Z" stroke="#222222"/>
<path id="Vector 327" d="M20.6667 23.3333V10" stroke="#222222"/>
<path id="Vector 328" d="M11.3333 20.6668V7.3335" stroke="#222222"/>
</g>
</svg>
