<svg width="32" height="32" viewBox="0 0 32 32" fill="none" xmlns="http://www.w3.org/2000/svg">
<g id="Chat_alt_light">
<path id="Rectangle 1" d="M26.6666 13.3335C26.6666 9.56226 26.6666 7.67664 25.4951 6.50507C24.3235 5.3335 22.4379 5.3335 18.6666 5.3335H13.3333C9.56208 5.3335 7.67646 5.3335 6.50489 6.50507C5.33331 7.67664 5.33331 9.56226 5.33331 13.3335V24.6668C5.33331 25.6096 5.33331 26.081 5.62621 26.3739C5.9191 26.6668 6.3905 26.6668 7.33331 26.6668H18.6666C22.4379 26.6668 24.3235 26.6668 25.4951 25.4953C26.6666 24.3237 26.6666 22.4381 26.6666 18.6668V13.3335Z" stroke="#222222"/>
<path id="Vector 7" d="M12 13.3335L20 13.3335" stroke="#222222" stroke-linecap="round" stroke-linejoin="round"/>
<path id="Vector 8" d="M12 18.6665H16" stroke="#222222" stroke-linecap="round" stroke-linejoin="round"/>
<path id="Rectangle 1_2" d="M22.0137 16.0017L22.0137 16.0018C22.0127 16.0029 22.0118 16.004 22.0108 16.0051C22.0022 16.0148 21.9937 16.0245 21.9853 16.0342C21.8446 16.1946 21.7201 16.3366 21.6339 16.5076C21.5476 16.6786 21.5075 16.8631 21.4621 17.0717C21.459 17.0856 21.456 17.0996 21.4529 17.1138L21.93 17.2181L21.4529 17.1138L21.0237 19.0758C21.0217 19.0847 21.0198 19.0937 21.0178 19.1028C20.9831 19.2612 20.946 19.4302 20.9364 19.5714C20.9259 19.7266 20.9371 19.9883 21.1536 20.1916C21.3701 20.3949 21.6319 20.3896 21.7862 20.3693C21.9266 20.3508 22.0929 20.3032 22.2488 20.2586C22.2577 20.2561 22.2665 20.2535 22.2753 20.251L23.7752 19.8225C23.7912 19.8179 23.807 19.8134 23.8228 19.8089C24.0576 19.7421 24.2655 19.683 24.4501 19.5659L24.1823 19.1437L24.4501 19.5659C24.6346 19.4489 24.7768 19.286 24.9374 19.1021C24.9481 19.0898 24.9589 19.0774 24.9699 19.0649L24.5936 18.7357L24.9699 19.0649L30.109 13.1917L30.121 13.1779C30.2798 12.9965 30.4178 12.8388 30.5219 12.6987C30.6326 12.5499 30.7289 12.3905 30.7825 12.1987L30.301 12.0642L30.7825 12.1987C30.8563 11.9347 30.8563 11.6554 30.7825 11.3913L30.301 11.5259L30.7825 11.3913C30.7289 11.1995 30.6326 11.0402 30.5219 10.8913C30.4178 10.7513 30.2798 10.5936 30.1211 10.4122L30.109 10.3984L30.0948 10.3822C29.8917 10.1501 29.7179 9.95145 29.5621 9.80226C29.3988 9.64597 29.2178 9.50626 28.9888 9.42963C28.6799 9.32624 28.3457 9.32624 28.0367 9.42963C27.8078 9.50626 27.6268 9.64597 27.4635 9.80226C27.3077 9.95145 27.1339 10.15 26.9308 10.3822L26.9166 10.3984L22.0137 16.0017Z" fill="#FFC502" stroke="#222222"/>
<path id="Vector 107" d="M26.6667 10.6668L28.6667 9.3335L30.6667 11.3335L30 12.6668L29.3334 13.3335L26.6667 10.6668Z" fill="#222222"/>
</g>
</svg>
