<svg width="32" height="32" viewBox="0 0 32 32" fill="none" xmlns="http://www.w3.org/2000/svg">
<g id="Chat_alt_light">
<path id="Rectangle 1" d="M26.6668 13.3333C26.6668 9.56202 26.6668 7.6764 25.4953 6.50482C24.3237 5.33325 22.4381 5.33325 18.6668 5.33325H13.3335C9.56226 5.33325 7.67664 5.33325 6.50507 6.50482C5.3335 7.6764 5.3335 9.56202 5.3335 13.3333V24.6666C5.3335 25.6094 5.3335 26.0808 5.62639 26.3737C5.91928 26.6666 6.39069 26.6666 7.3335 26.6666H18.6668C22.4381 26.6666 24.3237 26.6666 25.4953 25.495C26.6668 24.3234 26.6668 22.4378 26.6668 18.6666V13.3333Z" stroke="#222222"/>
<path id="Vector 7" d="M12 13.3333L20 13.3333" stroke="#222222" stroke-linecap="round" stroke-linejoin="round"/>
<path id="Vector 8" d="M12 18.6667H16" stroke="#222222" stroke-linecap="round" stroke-linejoin="round"/>
<path id="Rectangle 1_2" d="M22.0139 16.0015L22.0139 16.0015C22.0129 16.0026 22.0119 16.0037 22.011 16.0048C22.0024 16.0146 21.9939 16.0243 21.9855 16.0339C21.8448 16.1944 21.7203 16.3364 21.6341 16.5074C21.5478 16.6784 21.5077 16.8629 21.4623 17.0714C21.4592 17.0853 21.4562 17.0994 21.4531 17.1135L21.9302 17.2179L21.4531 17.1135L21.0239 19.0756C21.0219 19.0845 21.02 19.0935 21.018 19.1025C20.9833 19.2609 20.9462 19.4299 20.9366 19.5711C20.926 19.7264 20.9373 19.9881 21.1538 20.1913C21.3703 20.3946 21.6321 20.3894 21.7864 20.3691C21.9267 20.3506 22.0931 20.303 22.249 20.2584C22.2578 20.2558 22.2667 20.2533 22.2755 20.2508L23.7754 19.8222C23.7914 19.8177 23.8072 19.8132 23.8229 19.8087C24.0577 19.7419 24.2657 19.6827 24.4502 19.5657L24.1825 19.1434L24.4502 19.5657C24.6348 19.4486 24.777 19.2858 24.9375 19.1019C24.9483 19.0896 24.9591 19.0772 24.9701 19.0647L24.5938 18.7354L24.9701 19.0647L30.1091 13.1914L30.1212 13.1776C30.28 12.9962 30.418 12.8385 30.5221 12.6985C30.6328 12.5496 30.7291 12.3903 30.7827 12.1985L30.3012 12.0639L30.7827 12.1985C30.8565 11.9344 30.8565 11.6552 30.7827 11.3911L30.3012 11.5257L30.7827 11.3911C30.7291 11.1993 30.6328 11.0399 30.5221 10.8911C30.418 10.7511 30.28 10.5934 30.1213 10.412L30.1091 10.3981L30.095 10.382C29.8919 10.1498 29.7181 9.9512 29.5622 9.80202C29.3989 9.64572 29.218 9.50601 28.989 9.42939C28.6801 9.326 28.3459 9.326 28.0369 9.42939C27.808 9.50601 27.627 9.64572 27.4637 9.80202C27.3079 9.9512 27.1341 10.1498 26.931 10.382L26.9168 10.3981L22.0139 16.0015Z" fill="white" stroke="#222222"/>
<path id="Vector 107" d="M26.6665 10.6666L28.6665 9.33325L30.6665 11.3333L29.9998 12.6666L29.3332 13.3333L26.6665 10.6666Z" fill="#222222"/>
</g>
</svg>
