<svg width="32" height="32" viewBox="0 0 32 32" fill="none" xmlns="http://www.w3.org/2000/svg">
<g id="Pointers_light">
<path id="Vector 429" d="M16 3.3335V6.00016" stroke="#222222" stroke-linecap="round"/>
<path id="Vector 430" d="M16 12.6665V15.3332" stroke="#222222" stroke-linecap="round"/>
<path id="Vector 431" d="M16 22V28.6667" stroke="#222222" stroke-linecap="round"/>
<path id="Rectangle 4215" d="M8.66669 7.6C8.66669 7.03995 8.66669 6.75992 8.77568 6.54601C8.87155 6.35785 9.02453 6.20487 9.2127 6.10899C9.42661 6 9.70663 6 10.2667 6H23.8977C24.1801 6 24.3213 6 24.4517 6.03591C24.5671 6.06773 24.676 6.12004 24.773 6.19035C24.8825 6.26971 24.9707 6.37997 25.1471 6.60049L26.5337 8.33382C26.8191 8.69054 26.9618 8.8689 27.0165 9.0667C27.0648 9.24118 27.0648 9.42549 27.0165 9.59996C26.9618 9.79777 26.8191 9.97613 26.5337 10.3328L25.1471 12.0662C24.9707 12.2867 24.8825 12.397 24.773 12.4763C24.676 12.5466 24.5671 12.5989 24.4517 12.6308C24.3213 12.6667 24.1801 12.6667 23.8977 12.6667H10.2667C9.70663 12.6667 9.42661 12.6667 9.2127 12.5577C9.02453 12.4618 8.87155 12.3088 8.77568 12.1207C8.66669 11.9067 8.66669 11.6267 8.66669 11.0667V7.6Z" stroke="#222222"/>
<path id="Rectangle 4216" d="M23.3333 16.9335C23.3333 16.3734 23.3333 16.0934 23.2243 15.8795C23.1284 15.6913 22.9755 15.5384 22.7873 15.4425C22.5734 15.3335 22.2934 15.3335 21.7333 15.3335H8.10231C7.81991 15.3335 7.67872 15.3335 7.54835 15.3694C7.43286 15.4012 7.32402 15.4535 7.22703 15.5238C7.11754 15.6032 7.02934 15.7135 6.85292 15.934L5.46626 17.6673C5.18088 18.024 5.0382 18.2024 4.98347 18.4002C4.93521 18.5747 4.93521 18.759 4.98347 18.9335C5.0382 19.1313 5.18088 19.3096 5.46626 19.6663L6.85292 21.3997C7.02934 21.6202 7.11754 21.7304 7.22703 21.8098C7.32402 21.8801 7.43286 21.9324 7.54835 21.9642C7.67872 22.0002 7.81991 22.0002 8.10231 22.0002H21.7333C22.2934 22.0002 22.5734 22.0002 22.7873 21.8912C22.9755 21.7953 23.1284 21.6423 23.2243 21.4542C23.3333 21.2402 23.3333 20.9602 23.3333 20.4002V16.9335Z" stroke="#222222"/>
</g>
</svg>
