<svg width="32" height="32" viewBox="0 0 32 32" fill="none" xmlns="http://www.w3.org/2000/svg">
<g id="Pointers_light">
<path id="Vector 429" d="M16 3.33325V5.99992" stroke="#222222" stroke-linecap="round"/>
<path id="Vector 430" d="M16 12.6667V15.3334" stroke="#222222" stroke-linecap="round"/>
<path id="Vector 431" d="M16 22V28.6667" stroke="#222222" stroke-linecap="round"/>
<path id="Rectangle 4215" d="M8.6665 7.6C8.6665 7.03995 8.6665 6.75992 8.7755 6.54601C8.87137 6.35785 9.02435 6.20487 9.21251 6.10899C9.42643 6 9.70645 6 10.2665 6H23.8975C24.1799 6 24.3211 6 24.4515 6.03591C24.567 6.06773 24.6758 6.12004 24.7728 6.19035C24.8823 6.26971 24.9705 6.37997 25.1469 6.60049L26.5336 8.33382C26.8189 8.69054 26.9616 8.8689 27.0163 9.0667C27.0646 9.24118 27.0646 9.42549 27.0163 9.59996C26.9616 9.79777 26.8189 9.97613 26.5336 10.3328L25.1469 12.0662C24.9705 12.2867 24.8823 12.397 24.7728 12.4763C24.6758 12.5466 24.567 12.5989 24.4515 12.6308C24.3211 12.6667 24.1799 12.6667 23.8975 12.6667H10.2665C9.70645 12.6667 9.42643 12.6667 9.21251 12.5577C9.02435 12.4618 8.87137 12.3088 8.7755 12.1207C8.6665 11.9067 8.6665 11.6267 8.6665 11.0667V7.6Z" fill="#FFC502" stroke="#222222"/>
<path id="Rectangle 4216" d="M23.3335 16.9333C23.3335 16.3732 23.3335 16.0932 23.2245 15.8793C23.1286 15.6911 22.9756 15.5381 22.7875 15.4422C22.5736 15.3333 22.2935 15.3333 21.7335 15.3333H8.1025C7.8201 15.3333 7.6789 15.3333 7.54853 15.3692C7.43304 15.401 7.3242 15.4533 7.22721 15.5236C7.11773 15.603 7.02952 15.7132 6.85311 15.9337L5.46644 17.6671C5.18107 18.0238 5.03838 18.2022 4.98366 18.4C4.93539 18.5744 4.93539 18.7587 4.98366 18.9332C5.03838 19.131 5.18107 19.3094 5.46644 19.6661L6.85311 21.3994C7.02952 21.6199 7.11773 21.7302 7.22721 21.8096C7.3242 21.8799 7.43304 21.9322 7.54853 21.964C7.6789 21.9999 7.8201 21.9999 8.1025 21.9999H21.7335C22.2935 21.9999 22.5736 21.9999 22.7875 21.8909C22.9756 21.7951 23.1286 21.6421 23.2245 21.4539C23.3335 21.24 23.3335 20.96 23.3335 20.3999V16.9333Z" fill="#FFC502" stroke="#222222"/>
</g>
</svg>
