<svg width="32" height="32" viewBox="0 0 32 32" fill="none" xmlns="http://www.w3.org/2000/svg">
<g id="Map">
<path id="Vector 326" d="M26 20.3885V8.06137C26 7.72685 25.648 7.50927 25.3488 7.65888L20.8232 9.92164C20.7225 9.97199 20.6066 9.98276 20.4984 9.95183L11.5016 7.38134C11.3934 7.35041 11.2775 7.36118 11.1768 7.41153L6.24875 9.87554C6.0963 9.95177 6 10.1076 6 10.278V22.6051C6 22.9397 6.35204 23.1572 6.65125 23.0076L11.1768 20.7449C11.2775 20.6945 11.3934 20.6837 11.5016 20.7147L20.4984 23.2852C20.6066 23.3161 20.7225 23.3053 20.8232 23.255L25.7512 20.791C25.9037 20.7147 26 20.5589 26 20.3885Z" stroke="#222222"/>
<path id="Vector 327" d="M20.6665 23.3333V10" stroke="#222222"/>
<path id="Vector 328" d="M11.3335 20.6666V7.33325" stroke="#222222"/>
</g>
</svg>
