<svg width="18" height="18" viewBox="0 0 18 18" fill="none" xmlns="http://www.w3.org/2000/svg">
<path d="M3.97862 3.04446L9.06674 8.18269L14.1545 3.04446C14.1827 3.01601 14.2211 3 14.2611 3H15.4144C15.4973 3 15.5644 3.06716 15.5644 3.15C15.5644 3.18953 15.5488 3.22746 15.521 3.25554L9.85442 8.97818L15.5637 14.7445C15.622 14.8033 15.6216 14.8983 15.5627 14.9566C15.5346 14.9844 15.4967 15 15.4572 15H14.3042C14.2642 15 14.2258 14.984 14.1976 14.9555L9.06674 9.77368L3.93554 14.9555C3.90737 14.984 3.869 15 3.82896 15H2.67637C2.59352 15 2.52637 14.9328 2.52637 14.85C2.52637 14.8105 2.54197 14.7725 2.56978 14.7445L8.27906 8.97818L2.6125 3.25554C2.55421 3.19668 2.55468 3.1017 2.61355 3.04341C2.64163 3.0156 2.67956 3 2.71909 3H3.87203C3.91207 3 3.95045 3.01601 3.97862 3.04446Z" fill="#999999"/>
</svg>
