<svg width="25" height="21" viewBox="0 0 25 21" fill="none" xmlns="http://www.w3.org/2000/svg">
<path d="M15.9436 4.44444C15.9436 6.34675 14.4014 7.88887 12.4991 7.88887C10.5968 7.88887 9.05469 6.34675 9.05469 4.44444C9.05469 2.54213 10.5968 1 12.4991 1C14.4014 1 15.9436 2.54213 15.9436 4.44444Z" stroke="#FFC502" stroke-width="2" stroke-linecap="round"/>
<path d="M15.3437 2.35185C15.611 1.88875 16.0097 1.51533 16.4893 1.27882C16.9689 1.04232 17.5079 0.953333 18.038 1.02313C18.5682 1.09293 19.0658 1.31837 19.4678 1.67095C19.8699 2.02353 20.1583 2.48741 20.2967 3.00393C20.4351 3.52045 20.4172 4.06641 20.2454 4.57277C20.0735 5.07914 19.7553 5.52316 19.331 5.84869C18.9068 6.17422 18.3956 6.36663 17.862 6.40161C17.3284 6.43658 16.7964 6.31254 16.3333 6.04517" stroke="#FFC502" stroke-width="2"/>
<path d="M9.65633 2.35185C9.38896 1.88875 8.99027 1.51533 8.51067 1.27882C8.03108 1.04232 7.49212 0.953333 6.96195 1.02313C6.43179 1.09293 5.93422 1.31837 5.53219 1.67095C5.13015 2.02353 4.84169 2.48741 4.70329 3.00393C4.56488 3.52045 4.58276 4.06641 4.75464 4.57277C4.92653 5.07914 5.24471 5.52316 5.66895 5.84869C6.09319 6.17422 6.60443 6.36663 7.13803 6.40161C7.67162 6.43658 8.20361 6.31254 8.66671 6.04517" stroke="#FFC502" stroke-width="2"/>
<path d="M12.4997 11.1113C18.9534 11.1113 20.2955 16.6877 20.5746 19.0069C20.6405 19.5552 20.2001 20.0002 19.6478 20.0002H5.35156C4.79928 20.0002 4.35885 19.5552 4.42483 19.0069C4.70392 16.6877 6.04597 11.1113 12.4997 11.1113Z" stroke="#FFC502" stroke-width="2" stroke-linecap="round"/>
<path d="M23.4293 15.9505L22.4509 16.1573V16.1573L23.4293 15.9505ZM14.1104 11.239L13.3719 10.5648L12.1311 11.9238L13.9464 12.2255L14.1104 11.239ZM20.1755 17.0376L19.2149 17.3155L19.4238 18.0376H20.1755V17.0376ZM17.6851 10.6302C19.2194 10.6302 20.2717 11.4359 21.0393 12.5767C21.8245 13.7438 22.244 15.1786 22.4509 16.1573L24.4077 15.7437C24.1795 14.6641 23.6934 12.9388 22.6987 11.4603C21.6862 9.95552 20.084 8.6302 17.6851 8.6302V10.6302ZM14.8489 11.9133C15.5499 11.1455 16.4526 10.6302 17.6851 10.6302V8.6302C15.7967 8.6302 14.3836 9.4567 13.3719 10.5648L14.8489 11.9133ZM13.9464 12.2255C17.2119 12.7683 18.6024 15.1983 19.2149 17.3155L21.1361 16.7597C20.4255 14.3033 18.6386 10.978 14.2744 10.2526L13.9464 12.2255ZM22.506 16.0376H20.1755V18.0376H22.506V16.0376ZM22.4509 16.1573C22.4489 16.1479 22.4478 16.1286 22.454 16.1056C22.4598 16.084 22.4695 16.068 22.4785 16.0576C22.4963 16.037 22.5112 16.0376 22.506 16.0376V18.0376C23.6668 18.0376 24.6749 17.0076 24.4077 15.7437L22.4509 16.1573Z" fill="#FFC502"/>
<path d="M10.8897 11.2386L11.0536 12.2251L12.8691 11.9235L11.6282 10.5644L10.8897 11.2386ZM1.57083 15.9502L0.592452 15.7433L0.592452 15.7433L1.57083 15.9502ZM4.82385 17.0373V18.0373H5.57555L5.78446 17.3152L4.82385 17.0373ZM7.31503 10.6299C8.54752 10.6299 9.45018 11.1451 10.1512 11.9129L11.6282 10.5644C10.6165 9.45631 9.20334 8.62988 7.31503 8.62988V10.6299ZM2.5492 16.157C2.75612 15.1783 3.1756 13.7435 3.96087 12.5764C4.72846 11.4356 5.78073 10.6299 7.31503 10.6299V8.62988C4.91619 8.62988 3.31394 9.9552 2.3015 11.4599C1.30673 12.9384 0.820683 14.6638 0.592452 15.7433L2.5492 16.157ZM2.4941 16.0373C2.48896 16.0373 2.50385 16.0367 2.52166 16.0573C2.53061 16.0677 2.54037 16.0837 2.54615 16.1053C2.55233 16.1283 2.55119 16.1476 2.5492 16.157L0.592452 15.7433C0.325243 17.0072 1.3333 18.0373 2.4941 18.0373V16.0373ZM4.82385 16.0373H2.4941V18.0373H4.82385V16.0373ZM5.78446 17.3152C6.39703 15.1979 7.78765 12.7677 11.0536 12.2251L10.7258 10.2521C6.36101 10.9773 4.57396 14.3028 3.86325 16.7594L5.78446 17.3152Z" fill="#FFC502"/>
</svg>
