<svg width="25" height="21" viewBox="0 0 25 21" fill="none" xmlns="http://www.w3.org/2000/svg">
<path d="M10.9958 6.45202C10.9958 8.03761 9.71047 9.32299 8.12487 9.32299C6.53928 9.32299 5.25391 8.03761 5.25391 6.45202C5.25391 4.86643 6.53928 3.58105 8.12487 3.58105C9.71047 3.58105 10.9958 4.86643 10.9958 6.45202Z" stroke="white" stroke-width="2" stroke-linecap="round"/>
<path d="M13.2943 7.27404C13.5895 6.7628 14.0756 6.38976 14.6458 6.23698C15.216 6.08419 15.8236 6.16417 16.3348 6.45933C16.846 6.75449 17.2191 7.24065 17.3719 7.81086C17.5246 8.38106 17.4447 8.98861 17.1495 9.49984C16.8543 10.0111 16.3682 10.3841 15.798 10.5369C15.2278 10.6897 14.6202 10.6097 14.109 10.3145C13.5978 10.0194 13.2247 9.53323 13.0719 8.96302C12.9192 8.39281 12.9991 7.78527 13.2943 7.27404L13.2943 7.27404Z" stroke="white" stroke-width="2"/>
<path d="M15.1417 19.0054L16.133 18.8739L15.1417 19.0054ZM14.2218 18.9997H2.02828V20.9997H14.2218V18.9997ZM2.09977 19.1368C2.22884 18.1634 2.57538 16.6659 3.46668 15.434C4.31993 14.2547 5.71006 13.2578 8.12505 13.2578V11.2578C5.03561 11.2578 3.05599 12.5897 1.84631 14.2617C0.674707 15.881 0.265163 17.7574 0.117118 18.8739L2.09977 19.1368ZM8.12505 13.2578C10.54 13.2578 11.9302 14.2547 12.7834 15.434C13.6747 16.6659 14.0213 18.1634 14.1503 19.1368L16.133 18.8739C15.9849 17.7574 15.5754 15.881 14.4038 14.2617C13.1941 12.5897 11.2145 11.2578 8.12505 11.2578V13.2578ZM2.02828 18.9997C2.0237 18.9997 2.03988 18.9988 2.06135 19.0216C2.07234 19.0332 2.08441 19.0511 2.09243 19.0751C2.10088 19.1004 2.10159 19.1231 2.09977 19.1368L0.117118 18.8739C-0.0445795 20.0935 0.947359 20.9997 2.02828 20.9997V18.9997ZM14.2218 20.9997C15.3027 20.9997 16.2947 20.0935 16.133 18.8739L14.1503 19.1368C14.1485 19.1231 14.1492 19.1004 14.1577 19.0751C14.1657 19.0511 14.1778 19.0332 14.1888 19.0216C14.2102 18.9988 14.2264 18.9997 14.2218 18.9997V20.9997Z" fill="white"/>
<path d="M11.1543 20.0004V19.0004L11.1432 21.0003L11.1543 20.0004ZM20.1947 18.9144L19.2188 19.1323V19.1323L20.1947 18.9144ZM13.029 14.1691L12.4932 13.3247L11.4628 13.9786L12.3064 14.8604L13.029 14.1691ZM15.142 19.006L14.1506 19.1374V19.1374L15.142 19.006ZM11.1657 19.0004C11.1656 19.0004 11.1655 19.0004 11.1654 19.0004L11.1432 21.0003C11.1507 21.0004 11.1582 21.0004 11.1657 21.0004V19.0004ZM19.2783 19.0004H11.1657V21.0004H19.2783V19.0004ZM19.2188 19.1323C19.2164 19.1216 19.215 19.1003 19.2216 19.075C19.2277 19.0513 19.2384 19.0336 19.2482 19.0222C19.2676 18.9997 19.2836 19.0004 19.2783 19.0004V21.0004C20.436 21.0004 21.4549 19.9689 21.1707 18.6964L19.2188 19.1323ZM15.222 14.5488C16.4722 14.5488 17.3388 15.1848 17.9861 16.1139C18.6523 17.0701 19.0251 18.2653 19.2188 19.1323L21.1707 18.6964C20.9537 17.725 20.5097 16.2374 19.6271 14.9706C18.7254 13.6764 17.311 12.5488 15.222 12.5488V14.5488ZM13.5648 15.0134C14.0122 14.7295 14.5505 14.5488 15.222 14.5488V12.5488C14.1622 12.5488 13.2536 12.8422 12.4932 13.3247L13.5648 15.0134ZM12.3064 14.8604C13.5509 16.1613 13.9986 17.9912 14.1506 19.1374L16.1333 18.8746C15.9625 17.5864 15.4376 15.2403 13.7516 13.4778L12.3064 14.8604ZM14.1506 19.1374C14.1488 19.1237 14.1495 19.101 14.158 19.0757C14.166 19.0517 14.1781 19.0339 14.189 19.0222C14.2105 18.9995 14.2267 19.0004 14.2221 19.0004V21.0004C15.303 21.0004 16.295 20.0941 16.1333 18.8746L14.1506 19.1374ZM14.2221 19.0004H11.1543V21.0004H14.2221V19.0004Z" fill="white"/>
<rect x="18.7698" y="2.90364" width="5.80645" height="0.645161" rx="0.322581" stroke="white" stroke-width="0.645161" stroke-linecap="round"/>
<rect x="21.9958" y="0.322581" width="5.80645" height="0.645161" rx="0.322581" transform="rotate(90 21.9958 0.322581)" stroke="white" stroke-width="0.645161" stroke-linecap="round"/>
</svg>
