<svg width="40" height="40" viewBox="0 0 40 40" fill="none" xmlns="http://www.w3.org/2000/svg">
<path d="M5.5 13C5.5 11.1002 5.50106 9.72573 5.64199 8.67754C5.78098 7.64373 6.04772 7.00253 6.52513 6.52513C7.00253 6.04772 7.64373 5.78098 8.67754 5.64199C9.72573 5.50106 11.1002 5.5 13 5.5H27C28.8998 5.5 30.2743 5.50106 31.3225 5.64199C32.3563 5.78098 32.9975 6.04772 33.4749 6.52513C33.9523 7.00253 34.219 7.64373 34.358 8.67754C34.4989 9.72573 34.5 11.1002 34.5 13V27C34.5 28.8998 34.4989 30.2743 34.358 31.3225C34.219 32.3563 33.9523 32.9975 33.4749 33.4749C32.9975 33.9523 32.3563 34.219 31.3225 34.358C30.2743 34.4989 28.8998 34.5 27 34.5H13C11.1002 34.5 9.72573 34.4989 8.67754 34.358C7.64373 34.219 7.00253 33.9523 6.52513 33.4749C6.04772 32.9975 5.78098 32.3563 5.64199 31.3225C5.50106 30.2743 5.5 28.8998 5.5 27V13Z" stroke="#D9D9D9"/>
<path d="M20 13.333L20 26.6663" stroke="#D9D9D9" stroke-linejoin="round"/>
<path d="M26.667 20L13.3337 20" stroke="#D9D9D9" stroke-linejoin="round"/>
</svg>
