<svg width="16" height="16" viewBox="0 0 24 24" fill="none" xmlns="http://www.w3.org/2000/svg">
<path d="M12 0C18.6274 0 24 5.37258 24 12C24 18.6274 18.6274 24 12 24C5.37258 24 0 18.6274 0 12C0 5.37258 5.37258 0 12 0ZM18.4474 8.18182H16.7502C16.6923 8.18182 16.6368 8.2048 16.5959 8.24571L10.5776 14.2632L7.83227 11.518C7.79135 11.4771 7.73586 11.4541 7.67799 11.4541H5.98113C5.92328 11.4541 5.8678 11.4771 5.82688 11.518C5.74166 11.6032 5.74163 11.7413 5.82682 11.8266C5.92273 11.9225 6.01865 12.0185 6.11457 12.1144C6.14059 12.1405 6.16719 12.1671 6.19432 12.1943L6.36333 12.3637C6.71318 12.7146 7.13065 13.135 7.55564 13.5636L7.87486 13.8857C8.86652 14.8867 9.8173 15.8495 9.96361 15.9974L9.98237 16.0163C10.3019 16.3358 10.8199 16.3358 11.1395 16.0163L18.6017 8.55428C18.6426 8.51336 18.6656 8.45787 18.6656 8.4C18.6656 8.2795 18.5679 8.18182 18.4474 8.18182Z" fill="#FFC502"/>
</svg>
